<svg width="137" height="48" viewBox="0 0 137 48" fill="none" xmlns="http://www.w3.org/2000/svg">
<g clip-path="url(#clip0_506_274)">
<path fill-rule="evenodd" clip-rule="evenodd" d="M24 48C37.2549 48 48 37.2549 48 24C48 10.7451 37.2549 0 24 0C10.7451 0 0 10.7451 0 24C0 37.2549 10.7451 48 24 48ZM24.098 45.7469C36.1084 45.7469 45.8449 36.0105 45.8449 24C45.8449 11.9895 36.1084 2.25306 24.098 2.25306C12.0875 2.25306 2.35102 11.9895 2.35102 24C2.35102 36.0105 12.0875 45.7469 24.098 45.7469ZM24 44.0816C35.0907 44.0816 44.0816 35.0907 44.0816 24C44.0816 12.9093 35.0907 3.91837 24 3.91837C12.9093 3.91837 3.91837 12.9093 3.91837 24C3.91837 35.0907 12.9093 44.0816 24 44.0816ZM24.049 41.6327C33.8142 41.6327 41.7306 33.7163 41.7306 23.951C41.7306 14.1858 33.8142 6.26939 24.049 6.26939C14.2837 6.26939 6.36735 14.1858 6.36735 23.951C6.36735 33.7163 14.2837 41.6327 24.049 41.6327ZM23.0511 9.66504L35.8519 31.872L37.2245 29.4906L25.7964 9.66504H23.0511ZM10.7755 29.4505L21.7315 10.4439L21.7541 10.4831L21.7756 10.4457L34.7592 32.9696H32.0138L28.7338 27.2794C27.2433 26.8082 25.6565 26.5541 24.0102 26.5541C23.1616 26.5541 22.3334 26.6134 21.5283 26.7316L23.1094 23.993C23.4078 23.9784 23.7082 23.9711 24.0102 23.9711C25.0159 23.9711 26.0026 24.0525 26.964 24.2091L21.7531 15.1691L12.1482 31.8318L10.7755 29.4505ZM18.2238 29.1617L23.1469 20.621L21.7743 18.2397L13.2836 32.9695H16.0289L16.0549 32.9243C18.4096 31.5066 21.1115 30.79 24.0618 30.79C25.9458 30.79 27.7519 31.1228 29.4248 31.7329L27.5856 28.5473C26.4247 28.3205 25.2447 28.2066 24.0618 28.2072C22.0201 28.2072 20.0568 28.5427 18.2238 29.1617Z" fill="white"/>
<path fill-rule="evenodd" clip-rule="evenodd" d="M61.917 26.7202H67.0143L64.4529 19.322L61.917 26.7202ZM69.0892 32.7964L67.9367 29.4659H60.9693L59.8166 32.7964H56L62.3269 15H66.6048L72.9058 32.7964H69.0892Z" fill="white"/>
<path fill-rule="evenodd" clip-rule="evenodd" d="M77.9906 31.0169C76.6927 29.6949 76.0439 27.9405 76.0439 25.7542C76.0439 23.5679 76.6927 21.8136 77.9906 20.4917C79.2884 19.1696 80.9704 18.5087 83.0368 18.5087C84.7615 18.5087 86.2044 18.924 87.3658 19.7542C88.5269 20.585 89.3036 21.7629 89.6968 23.2881H85.8032C85.3421 22.1188 84.42 21.5339 83.0368 21.5339C81.9949 21.5339 81.1798 21.9113 80.5906 22.6653C80.0015 23.4198 79.7069 24.4493 79.7069 25.7542C79.7069 27.0594 80.0015 28.0892 80.5906 28.8431C81.1798 29.5976 81.9949 29.9744 83.0368 29.9744C84.4029 29.9744 85.3249 29.3813 85.8032 28.1949H89.6968C89.287 29.6694 88.4968 30.8389 87.3275 31.7033C86.1575 32.5675 84.7275 32.9998 83.0368 32.9998C80.9704 32.9998 79.2884 32.339 77.9906 31.0169Z" fill="white"/>
<path fill-rule="evenodd" clip-rule="evenodd" d="M103.689 28.7926C104.44 28.0553 104.815 27.0428 104.815 25.7545C104.815 24.4667 104.44 23.4538 103.689 22.7163C102.937 21.9791 102.057 21.6104 101.05 21.6104C100.042 21.6104 99.1675 21.9751 98.4248 22.7037C97.6818 23.4327 97.3103 24.4412 97.3103 25.7291C97.3103 27.0173 97.6859 28.0342 98.4374 28.7799C99.1888 29.5259 100.064 29.8984 101.063 29.8984C102.062 29.8984 102.937 29.5299 103.689 28.7926ZM95.5554 30.9533C94.2831 29.5893 93.6471 27.8478 93.6471 25.729C93.6471 23.6106 94.2786 21.8772 95.5426 20.5299C96.8062 19.1823 98.4115 18.5087 100.358 18.5087C102.305 18.5087 103.791 19.3056 104.815 20.8986V18.712H108.401V32.7967H104.815V30.4323C103.739 32.1443 102.245 33 100.333 33C98.4199 33 96.8274 32.3179 95.5554 30.9533Z" fill="white"/>
<path fill-rule="evenodd" clip-rule="evenodd" d="M113.77 15.2188H117.381V32.9883H113.77V15.2188Z" fill="white"/>
<path fill-rule="evenodd" clip-rule="evenodd" d="M131.587 28.7365C132.338 27.9993 132.714 26.9868 132.714 25.6985C132.714 24.4106 132.338 23.3978 131.587 22.6604C130.836 21.9232 129.956 21.5545 128.949 21.5545C127.942 21.5545 127.066 21.9192 126.324 22.6478C125.581 23.3768 125.209 24.3852 125.209 25.6731C125.209 26.9613 125.585 27.9783 126.336 28.724C127.087 29.4699 127.963 29.8424 128.962 29.8424C129.961 29.8424 130.836 29.474 131.587 28.7365ZM123.455 30.8974C122.183 29.5333 121.546 27.7919 121.546 25.6731C121.546 23.5546 122.177 21.8213 123.442 20.474C124.705 19.1264 126.311 18.4528 128.257 18.4528C130.204 18.4528 131.689 19.2496 132.714 20.8426V18.6561H136.301V32.7406H132.714V30.3764C131.638 32.0884 130.144 32.9441 128.232 32.9441C126.319 32.9441 124.726 32.262 123.455 30.8974Z" fill="white"/>
</g>
<defs>
<clipPath id="clip0_506_274">
<rect width="137" height="48" fill="white"/>
</clipPath>
</defs>
</svg>
