<svg width="234" height="40" viewBox="0 0 234 40" fill="none" xmlns="http://www.w3.org/2000/svg">
<g clip-path="url(#clip0_304_3)">
<path d="M22.7 40C23.3046 39.9861 23.8795 39.7346 24.3 39.3L42 21.6C42.4155 21.171 42.6477 20.5972 42.6477 20C42.6477 19.4028 42.4155 18.829 42 18.4L24.3 0.7C23.8795 0.265382 23.3046 0.0138993 22.7 0V40Z" fill="white"/>
<path opacity="0.5" d="M20.2 32.5C19.6398 32.5187 19.0855 32.3802 18.6 32.1L1.00001 21C0.100012 20.4 0.100012 19.6 1.00001 19L18.6 7.89997C19.0855 7.61978 19.6398 7.48121 20.2 7.49997V32.5Z" fill="white"/>
<path opacity="0.5" d="M20.2 25C19.6398 25.0188 19.0855 24.8802 18.6 24.6L1 13.6C0 13 0 12 1 11.5L18.6 0.299997C19.0855 0.0198039 19.6398 -0.118766 20.2 -0.100003V24.9V25Z" fill="white"/>
<path opacity="0.5" d="M20.2 40C19.6398 40.0187 19.0855 39.8802 18.6 39.6L1.00001 28.5C0.100012 27.9 0.100012 27 1.00001 26.5L18.7 15.4C19.1855 15.1198 19.7398 14.9812 20.3 15V40H20.2Z" fill="white"/>
<path opacity="0.7" d="M49.6 33.7001L60 6.30005H67.4L77.8 33.7001H70.8L68.3 27.5H59L56.6 33.7001H49.5H49.6ZM60 22.4H67.2L63.7 13L60 22.4ZM80.2 33.7001V6.30005H87.1V28.4H100V33.7001H80.2Z" fill="white"/>
<path d="M136 33.7L146.4 6.29995H153.8L164.2 33.7H157.1L154.6 27.5H145.5L143.1 33.7H136ZM146.4 22.4H153.7L150 13L146.4 22.5V22.4ZM169 33.7V23.7L159 6.19995H166.1L172.3 17.6L178.3 6.19995H185.5L175.7 23.5V33.5H168.8L169 33.7ZM187.9 33.7V6.29995H208V11.6H194.7V17.3H206.5V22.7H194.7V28.4H208V33.7H188H187.9ZM210.4 33.7V6.29995H224C227.2 6.29995 229.6 7.19995 231.1 8.89995C232.7 10.6 233.4 12.9 233.4 15.7C233.447 17.4035 232.975 19.0811 232.046 20.5099C231.117 21.9388 229.776 23.0514 228.2 23.7C228.6 23.9 228.9 24.3 229.2 24.7L230 26.2999L233.2 33.7H226L222.9 26.7C222.6 26.1 222.3 25.7 221.9 25.4C221.386 25.101 220.794 24.9617 220.2 25H217.1V33.7H210.3H210.4ZM217.2 19.7H222.2C223.6 19.7 224.6 19.4 225.4 18.7C226.1 18.1 226.4 17.1 226.4 15.7C226.4 13 225.2 11.6 222.5 11.6H217.2V19.7ZM133.6 28.4H120.7V6.39995H113.8V33.7H133.7V28.4H133.6Z" fill="white"/>
<path opacity="0.66" d="M96.5 11.6H104.6V33.6H111.4V6.40002H96.4V11.7L96.5 11.6Z" fill="white"/>
</g>
<defs>
<clipPath id="clip0_304_3">
<rect width="234" height="40" fill="white"/>
</clipPath>
</defs>
</svg>
