<svg width="250" height="50" viewBox="0 0 250 50" fill="none" xmlns="http://www.w3.org/2000/svg">
<g clip-path="url(#clip0_304_41)">
<path d="M21.5 32L28.1 42.3L34.3 38.8L25.5 25.1L21.5 32ZM39.8 34.6V31.8L30.3 17L26.8 23L35.9 37.8L39.3 35.8C39.5893 35.5436 39.7684 35.1853 39.8 34.8V34.6ZM0 37.3L4.7 40L20.3 15H17.6C15.4 15 13 15.5 11.8 17.3L3 31L0 35.6V37.3ZM29.3 15H22.3L6.5 41L12.1 44.2L13.5 41.7L29.3 15Z" fill="white"/>
<path d="M42.8 15C42.7748 14.2731 42.5697 13.5638 42.2033 12.9356C41.8368 12.3074 41.3203 11.7798 40.7 11.4L23.4 1.40001C22.7743 1.10579 22.0914 0.953247 21.4 0.953247C20.7086 0.953247 20.0257 1.10579 19.4 1.40001L1.8 11.6C1.26207 11.9934 0.820538 12.5039 0.508722 13.0929C0.196906 13.6819 0.0229554 14.334 0 15L0 35.6L3 31V15C3 14.6 3.3 14.2 3.6 14L20.7 4.00001H22L39.2 14C39.3863 14.1397 39.5375 14.3209 39.6416 14.5292C39.7458 14.7375 39.8 14.9671 39.8 15.2V34.9C39.8 35.3 39.6 35.7 39.3 35.9L36 37.9L34.3 38.9L28.2 42.4L22 46C21.6 46.2 21.2 46.2 21 46L13.6 41.8L12.1 44.3L18.7 48.1L19.7 48.7C20.7 49.2 22 49.2 23.1 48.8L41.1 38.3C41.6067 37.9071 42.0214 37.4081 42.315 36.8381C42.6087 36.268 42.7742 35.6407 42.8 35V15ZM61.4 17.7C61.9 17.7 62.4 17.7 62.7 18C63.1 18.3 63.5 18.7 63.7 19.2L70.5 31.5C70.5 31.7 70.6 31.8 70.5 31.9L70.3 32H67.7C67.5 32 67.3 32 67.2 31.7L65.7 29.1H56.1L54.7 31.7C54.7 31.9 54.5 32 54.3 32H51.6L51.3 31.9V31.5L58 19.2C58.2512 18.7382 58.591 18.3304 59 18C59.3582 17.7757 59.7784 17.6707 60.2 17.7H61.4ZM57.4 26.7H64.4L61.2 20.7C61.1487 20.6422 61.0771 20.6063 61 20.6H60.8C60.7229 20.6063 60.6513 20.6422 60.6 20.7L57.4 26.7ZM92 17.7C93.6 17.7 94.7 18 95.4 18.7C96.1 19.4 96.4 20.5 96.4 21.9V23C96.4 24.1 96.2 25 95.8 25.7C95.5074 26.0664 95.1442 26.3703 94.7319 26.5936C94.3197 26.8169 93.8667 26.9551 93.4 27L96.9 31.4V31.7C96.9 31.9 96.9 31.9 96.6 31.9H93.6L93.4 31.6L90.2 27.4H83.6V31.4C83.6 31.8 83.4 31.9 83.1 31.9H81C80.7 31.9 80.5 31.8 80.5 31.5V18.3C80.5 17.9 80.7 17.7 81.1 17.7H92.1H92ZM83.7 25H91.5C92.2 25 92.7 24.8 93 24.5C93.3 24.2 93.4 23.8 93.4 23.1V22.3C93.4 21.7 93.3 21.3 93 20.9C92.7 20.6 92.2 20.5 91.5 20.5H83.9C83.7 20.5 83.7 20.5 83.7 20.7V25ZM119.5 17.7C120.9 17.7 121.9 18 122.5 18.5C123.1 19 123.4 19.9 123.4 21.1V22.1C123.405 22.5913 123.288 23.0762 123.062 23.5121C122.835 23.9481 122.505 24.3216 122.1 24.6C122.553 24.8844 122.921 25.2847 123.168 25.7595C123.414 26.2342 123.528 26.766 123.5 27.3V28.5C123.5 29 123.5 29.5 123.3 29.9C123.2 30.4 123 30.7 122.7 31.1C122.389 31.4112 122.014 31.6501 121.6 31.8L119.9 32H107.7C107.3 32 107.1 31.8 107.1 31.4V18.3C107.1 17.9 107.3 17.7 107.7 17.7H119.5ZM110.2 23.7H118.6C119.3 23.7 119.8 23.5 120 23.3C120.2 23.1 120.4 22.8 120.4 22.4V21.7C120.4 21.3 120.2 21 120 20.7L118.8 20.5H110.5C110.3 20.5 110.2 20.5 110.2 20.8V23.6V23.7ZM110.2 25.9V28.9C110.2 29.1 110.2 29.2 110.5 29.2H118.9C119.4 29.2 119.8 29.1 120 28.9C120.3 28.7 120.4 28.4 120.4 27.9V27.1C120.4 26.7 120.2 26.4 120 26.1L118.6 25.9H110H110.2ZM136.5 17.7C136.8 17.7 136.9 17.8 136.9 18.1V31.6C136.9 31.9 136.8 32 136.5 32H134.3C134 32 133.8 31.9 133.8 31.6V18C133.8 17.7 134 17.6 134.3 17.6H136.5V17.7ZM163.3 17.7C163.6 17.7 163.8 17.8 163.8 18.1V20.1C163.8 20.4 163.7 20.6 163.3 20.6H156.9V31.6C156.9 31.9 156.8 32 156.5 32H154C153.7 32 153.6 31.9 153.6 31.6V20.6H147.1C146.8 20.6 146.7 20.4 146.7 20.1V18.1C146.7 17.8 146.8 17.7 147.1 17.7H163.1H163.3ZM185.3 17.7C186.9 17.7 188 18 188.7 18.7C189.4 19.4 189.7 20.5 189.7 21.9V23C189.7 24.1 189.5 25 189 25.7C188.433 26.4172 187.607 26.8838 186.7 27L190.2 31.4V31.7C190.2 31.9 190.2 31.9 189.9 31.9H186.9L186.7 31.6L183.5 27.4H176.8V31.4C176.8 31.8 176.7 31.9 176.4 31.9H174C173.7 31.9 173.5 31.8 173.5 31.5V18.3C173.5 17.9 173.7 17.7 174.1 17.7H185.1H185.3ZM176.8 25H184.7C185.4 25 185.9 24.8 186.2 24.5C186.5 24.2 186.6 23.8 186.6 23.1V22.3C186.6 21.7 186.5 21.3 186.2 20.9C185.9 20.6 185.4 20.5 184.7 20.5H177C176.8 20.5 176.7 20.5 176.7 20.7V25H176.8ZM202.6 17.7C202.9 17.7 203.1 17.8 203.1 18.1V26.3L203.2 27.6C203.3 28 203.4 28.3 203.7 28.6L204.5 29H212.8C213.2 28.9 213.4 28.7 213.6 28.5C213.9 28.3 214 28 214.1 27.6L214.2 26.3V18C214.2 17.7 214.3 17.6 214.6 17.6H216.9C217.2 17.6 217.3 17.7 217.3 18V26.5C217.3 27.5 217.3 28.3 217 29C216.814 29.6413 216.47 30.2257 216 30.7C215.526 31.17 214.941 31.5138 214.3 31.7L211.6 31.9H205.6C204.6 31.9 203.8 31.9 203 31.6C202.369 31.4428 201.785 31.1338 201.3 30.7C200.83 30.2257 200.486 29.6413 200.3 29C200 28.3 200 27.5 200 26.5V18C200 17.7 200.1 17.6 200.4 17.6H202.6V17.7ZM231.9 17.7H232.7L233.3 18C233.7 18.3 234 18.7 234.1 19.2L238.4 29.1L238.7 29.2H238.9C238.954 29.2129 239.011 29.2104 239.064 29.1928C239.117 29.1751 239.164 29.143 239.2 29.1L243.5 19.2L243.9 18.4L244.3 18L244.9 17.7H247.7C248.4 17.7 248.9 17.8 249.2 18.1C249.4 18.5 249.5 19.1 249.5 19.8V31.6C249.5 31.9 249.4 32 249.1 32H247C246.7 32 246.5 31.9 246.5 31.6V20.8L246.4 20.6H246.2L245.9 20.8L241.8 30C241.599 30.6055 241.256 31.1541 240.8 31.6L240 31.9L239.1 32H238.1L237.3 31.9C237 31.9 236.8 31.7 236.6 31.6C236.365 31.399 236.163 31.1629 236 30.9L235.5 30L231.4 20.8C231.4 20.7 231.3 20.6 231.1 20.6H231C230.8 20.6 230.8 20.7 230.8 20.8V31.6C230.8 31.9 230.6 32 230.3 32H228.3C227.9 32 227.8 31.9 227.8 31.6V19.8C227.8 19 227.8 18.5 228.2 18.1C228.4 17.8 228.9 17.7 229.6 17.7H231.8H231.9Z" fill="white"/>
</g>
<defs>
<clipPath id="clip0_304_41">
<rect width="250" height="50" fill="white"/>
</clipPath>
</defs>
</svg>
