<svg width="241" height="50" viewBox="0 0 241 50" fill="none" xmlns="http://www.w3.org/2000/svg">
<path fill-rule="evenodd" clip-rule="evenodd" d="M36.8504 3.81805V39.2468H28.1679V17.2831L22.6992 26.1768H26.7467V34.2368H17.4779L14.6392 38.9531H4.7442L28.4392 3.81805H36.8504Z" fill="#DEE5FF"/>
<path fill-rule="evenodd" clip-rule="evenodd" d="M38.2292 10.8943L38.1879 45.5505H46.8729V18.4105H50.1717C50.1717 18.4105 54.2229 18.328 54.2229 22.5468C54.2229 26.7605 50.5892 26.5555 50.5892 26.5555H48.2517V34.2368H53.7217C53.7217 34.2368 63.4492 34.7355 63.0317 22.2955C62.6317 10.443 49.7129 10.8943 49.7129 10.8943H38.2292Z" fill="#DEE5FF"/>
<path fill-rule="evenodd" clip-rule="evenodd" d="M227.189 30.6781L230.282 30.2068C230.415 30.8056 230.68 31.2631 231.085 31.5743C231.486 31.8856 232.049 32.0431 232.775 32.0431C233.574 32.0431 234.172 31.8968 234.575 31.6006C234.847 31.3981 234.982 31.1206 234.982 30.7806C234.982 30.5443 234.907 30.3493 234.761 30.1956C234.607 30.0493 234.262 29.9143 233.73 29.7906C231.242 29.2431 229.665 28.7418 228.997 28.2881C228.076 27.6581 227.615 26.7818 227.615 25.6605C227.615 24.653 228.012 23.8018 228.811 23.1168C229.609 22.4268 230.845 22.0818 232.52 22.0818C234.116 22.0818 235.305 22.3443 236.081 22.8618C236.856 23.3831 237.389 24.1505 237.68 25.1705L234.772 25.7056C234.649 25.2531 234.412 24.9043 234.065 24.6643C233.716 24.4205 233.221 24.3006 232.576 24.3006C231.764 24.3006 231.182 24.413 230.83 24.6418C230.597 24.803 230.481 25.013 230.481 25.2668C230.481 25.4893 230.584 25.6718 230.789 25.8268C231.066 26.0318 232.025 26.3205 233.67 26.6955C235.311 27.0668 236.459 27.5243 237.11 28.0668C237.755 28.6181 238.077 29.383 238.077 30.3593C238.077 31.428 237.632 32.3493 236.736 33.118C235.844 33.8868 234.525 34.2681 232.775 34.2681C231.186 34.2681 229.931 33.9456 229.001 33.3018C228.076 32.6618 227.474 31.7843 227.189 30.6781ZM84.7111 34.0056H81.1736L79.7673 30.3493H73.3336L72.0073 34.0056H68.5598L74.8286 17.9118H78.2648L84.7111 34.0056ZM78.7261 27.6393L76.5073 21.6668L74.3336 27.6393H78.7261ZM84.2036 30.6781L87.2973 30.2068C87.4298 30.8056 87.6948 31.2631 88.0998 31.5743C88.5011 31.8856 89.0636 32.0431 89.7911 32.0431C90.5886 32.0431 91.1886 31.8968 91.5898 31.6006C91.8623 31.3981 91.9973 31.1206 91.9973 30.7806C91.9973 30.5443 91.9224 30.3493 91.7761 30.1956C91.6224 30.0493 91.2773 29.9143 90.7448 29.7906C88.2573 29.2431 86.6798 28.7418 86.0123 28.2881C85.0911 27.6581 84.6298 26.7818 84.6298 25.6605C84.6298 24.653 85.0273 23.8018 85.8261 23.1168C86.6236 22.4268 87.8598 22.0818 89.5348 22.0818C91.1311 22.0818 92.3198 22.3443 93.0961 22.8618C93.8711 23.3831 94.4036 24.1505 94.6948 25.1705L91.7873 25.7056C91.6636 25.2531 91.4273 24.9043 91.0798 24.6643C90.7311 24.4205 90.2361 24.3006 89.5911 24.3006C88.7786 24.3006 88.1973 24.413 87.8448 24.6418C87.6123 24.803 87.4973 25.013 87.4973 25.2668C87.4973 25.4893 87.5986 25.6718 87.8036 25.8268C88.0811 26.0318 89.0411 26.3205 90.6861 26.6955C92.3261 27.0668 93.4736 27.5243 94.1261 28.0668C94.7711 28.6181 95.0923 29.383 95.0923 30.3593C95.0923 31.428 94.6461 32.3493 93.7511 33.118C92.8586 33.8868 91.5411 34.2681 89.7911 34.2681C88.2011 34.2681 86.9461 33.9456 86.0161 33.3018C85.0911 32.6618 84.4886 31.7843 84.2036 30.6781ZM95.5861 30.6781L98.6811 30.2068C98.8123 30.8056 99.0773 31.2631 99.4823 31.5743C99.8848 31.8856 100.446 32.0431 101.174 32.0431C101.971 32.0431 102.571 31.8968 102.972 31.6006C103.246 31.3981 103.38 31.1206 103.38 30.7806C103.38 30.5443 103.305 30.3493 103.159 30.1956C103.005 30.0493 102.661 29.9143 102.129 29.7906C99.6411 29.2431 98.0636 28.7418 97.3961 28.2881C96.4736 27.6581 96.0136 26.7818 96.0136 25.6605C96.0136 24.653 96.4098 23.8018 97.2086 23.1168C98.0061 22.4268 99.2436 22.0818 100.919 22.0818C102.514 22.0818 103.702 22.3443 104.479 22.8618C105.254 23.3831 105.786 24.1505 106.079 25.1705L103.17 25.7056C103.046 25.2531 102.811 24.9043 102.462 24.6643C102.114 24.4205 101.619 24.3006 100.974 24.3006C100.161 24.3006 99.5811 24.413 99.2286 24.6418C98.9961 24.803 98.8798 25.013 98.8798 25.2668C98.8798 25.4893 98.9811 25.6718 99.1861 25.8268C99.4636 26.0318 100.424 26.3205 102.069 26.6955C103.71 27.0668 104.856 27.5243 105.509 28.0668C106.154 28.6181 106.476 29.383 106.476 30.3593C106.476 31.428 106.03 32.3493 105.134 33.118C104.241 33.8868 102.924 34.2681 101.174 34.2681C99.5848 34.2681 98.3286 33.9456 97.3998 33.3018C96.4736 32.6618 95.8711 31.7843 95.5861 30.6781ZM107.34 28.0106C107.34 26.9881 107.595 25.9955 108.096 25.0355C108.604 24.0793 109.317 23.3455 110.244 22.843C111.17 22.3368 112.204 22.0818 113.346 22.0818C115.107 22.0818 116.554 22.6555 117.682 23.8018C118.81 24.9493 119.371 26.3956 119.371 28.1456C119.371 29.9068 118.804 31.3681 117.667 32.5293C116.527 33.6918 115.096 34.2681 113.369 34.2681C112.297 34.2681 111.281 34.0281 110.311 33.5456C109.34 33.0618 108.604 32.353 108.096 31.4205C107.595 30.488 107.34 29.3518 107.34 28.0106ZM110.502 28.1756C110.502 29.3343 110.776 30.2181 111.327 30.8318C111.874 31.4468 112.552 31.7543 113.357 31.7543C114.164 31.7543 114.837 31.4468 115.381 30.8318C115.929 30.2181 116.201 29.3256 116.201 28.1531C116.201 27.0143 115.929 26.1331 115.381 25.5193C114.837 24.9043 114.164 24.5981 113.357 24.5981C112.552 24.5981 111.874 24.9043 111.327 25.5193C110.776 26.1331 110.502 27.0218 110.502 28.1756ZM130.834 25.7955L127.791 26.3431C127.69 25.7356 127.457 25.2793 127.094 24.9718C126.73 24.6643 126.262 24.5106 125.685 24.5106C124.914 24.5106 124.302 24.7768 123.845 25.3055C123.387 25.8368 123.159 26.7256 123.159 27.9693C123.159 29.3518 123.391 30.3306 123.856 30.9006C124.321 31.4693 124.942 31.7543 125.726 31.7543C126.315 31.7543 126.791 31.5893 127.165 31.2556C127.54 30.9218 127.802 30.3493 127.956 29.5393L130.987 30.0531C130.672 31.4431 130.065 32.4955 129.174 33.2043C128.281 33.9168 127.086 34.2681 125.584 34.2681C123.879 34.2681 122.519 33.7331 121.506 32.6568C120.491 31.5818 119.985 30.0905 119.985 28.1868C119.985 26.2643 120.495 24.7656 121.51 23.6931C122.53 22.6181 123.905 22.0818 125.64 22.0818C127.061 22.0818 128.189 22.3906 129.027 23.0006C129.862 23.6106 130.466 24.5443 130.834 25.7955ZM132.05 20.7668V17.9118H135.135V20.7668H132.05ZM132.05 34.0056V22.3481H135.135V34.0056H132.05ZM139.48 25.9043L136.68 25.3993C136.995 24.2718 137.535 23.4393 138.302 22.8968C139.075 22.3555 140.215 22.0818 141.727 22.0818C143.107 22.0818 144.13 22.2468 144.804 22.573C145.476 22.8993 145.951 23.3118 146.224 23.813C146.499 24.3155 146.637 25.2343 146.637 26.5756L146.604 30.1768C146.604 31.2006 146.652 31.9568 146.754 32.4431C146.85 32.9281 147.039 33.4518 147.309 34.0056H144.254C144.175 33.8006 144.074 33.4968 143.957 33.0955C143.909 32.913 143.871 32.7918 143.849 32.7318C143.32 33.2456 142.759 33.6268 142.159 33.8868C141.559 34.1418 140.919 34.2681 140.236 34.2681C139.037 34.2681 138.09 33.9418 137.4 33.2943C136.706 32.6418 136.361 31.8181 136.361 30.8206C136.361 30.1656 136.519 29.5768 136.834 29.0593C137.149 28.5431 137.591 28.1493 138.157 27.8768C138.722 27.6018 139.544 27.3631 140.611 27.1556C142.05 26.8868 143.051 26.6318 143.606 26.3993V26.0918C143.606 25.4968 143.46 25.0768 143.167 24.8218C142.875 24.5706 142.324 24.443 141.51 24.443C140.96 24.443 140.534 24.5518 140.225 24.7693C139.919 24.9818 139.67 25.3606 139.48 25.9043ZM143.606 28.408C143.211 28.5393 142.586 28.6956 141.727 28.8793C140.874 29.0643 140.315 29.2431 140.05 29.4168C139.649 29.7043 139.446 30.0643 139.446 30.5031C139.446 30.9381 139.607 31.3081 139.93 31.6231C140.252 31.9381 140.66 32.0956 141.159 32.0956C141.716 32.0956 142.245 31.9118 142.751 31.5481C143.126 31.2706 143.369 30.9293 143.486 30.5255C143.567 30.263 143.606 29.7606 143.606 29.0218V28.408ZM153.902 22.3481V24.8068H151.795V29.5056C151.795 30.4568 151.815 31.0118 151.855 31.1693C151.896 31.3268 151.987 31.4543 152.13 31.5593C152.271 31.6606 152.447 31.7131 152.65 31.7131C152.939 31.7131 153.35 31.6118 153.894 31.4168L154.156 33.8081C153.436 34.1156 152.627 34.2681 151.717 34.2681C151.162 34.2681 150.66 34.1743 150.215 33.9905C149.769 33.8043 149.442 33.5606 149.232 33.2656C149.022 32.9681 148.88 32.5668 148.797 32.0618C148.734 31.7055 148.7 30.9781 148.7 29.8881V24.8068H147.284V22.3481H148.7V20.0281L151.795 18.2305V22.3481H153.902ZM161.672 30.2968L164.749 30.8093C164.351 31.9381 163.73 32.7956 162.875 33.3843C162.024 33.9756 160.956 34.2681 159.675 34.2681C157.647 34.2681 156.149 33.6093 155.174 32.2831C154.406 31.2218 154.02 29.8806 154.02 28.2656C154.02 26.3318 154.525 24.8181 155.537 23.7243C156.545 22.6306 157.822 22.0818 159.366 22.0818C161.102 22.0818 162.47 22.6555 163.475 23.8018C164.475 24.9493 164.954 26.7031 164.912 29.0681H157.182C157.206 29.9818 157.452 30.6931 157.929 31.2006C158.405 31.7093 159 31.9643 159.709 31.9643C160.192 31.9643 160.596 31.833 160.926 31.5705C161.256 31.3043 161.507 30.8806 161.672 30.2968ZM161.849 27.1781C161.825 26.2831 161.596 25.6043 161.159 25.1406C160.72 24.6756 160.184 24.443 159.555 24.443C158.88 24.443 158.326 24.6906 157.887 25.1818C157.449 25.6693 157.231 26.3356 157.239 27.1781H161.849ZM176.996 34.0056H174.134V32.2943C173.657 32.9606 173.096 33.4556 172.447 33.7818C171.799 34.1081 171.147 34.2681 170.487 34.2681C169.146 34.2681 168 33.7293 167.044 32.6506C166.092 31.5706 165.612 30.0643 165.612 28.1343C165.612 26.1556 166.077 24.6531 167.006 23.6268C167.936 22.5993 169.112 22.0818 170.532 22.0818C171.834 22.0818 172.961 22.6256 173.912 23.7093V17.9118H176.996V34.0056ZM168.764 27.9243C168.764 29.1681 168.936 30.0681 169.281 30.6256C169.775 31.4281 170.472 31.8331 171.365 31.8331C172.076 31.8331 172.68 31.5293 173.179 30.9256C173.672 30.3231 173.924 29.4193 173.924 28.2206C173.924 26.8831 173.68 25.9156 173.201 25.3281C172.717 24.7393 172.099 24.443 171.342 24.443C170.611 24.443 170.001 24.7356 169.506 25.3168C169.012 25.8981 168.764 26.7668 168.764 27.9243ZM185.185 34.0056V17.9118H190.397C192.372 17.9118 193.661 17.9943 194.26 18.1555C195.182 18.3955 195.959 18.9193 196.58 19.7293C197.201 20.5381 197.514 21.5843 197.514 22.8618C197.514 23.8506 197.334 24.6831 196.974 25.3543C196.614 26.0281 196.161 26.5568 195.606 26.943C195.055 27.3255 194.492 27.5793 193.922 27.703C193.149 27.8568 192.024 27.9356 190.551 27.9356H188.434V34.0056H185.185ZM188.434 20.6356V25.2006H190.21C191.491 25.2006 192.349 25.118 192.78 24.9493C193.211 24.7805 193.547 24.5181 193.796 24.1581C194.04 23.7993 194.162 23.383 194.162 22.9068C194.162 22.3218 193.991 21.8393 193.646 21.4568C193.305 21.0781 192.866 20.8381 192.341 20.7443C191.952 20.6693 191.172 20.6356 190.004 20.6356H188.434ZM201.99 34.0056H198.905V22.3481H201.769V24.0056C202.26 23.2218 202.701 22.7043 203.092 22.4568C203.485 22.2106 203.926 22.0818 204.425 22.0818C205.13 22.0818 205.804 22.2781 206.456 22.6681L205.501 25.3543C204.984 25.0193 204.501 24.8518 204.054 24.8518C203.62 24.8518 203.256 24.968 202.956 25.208C202.652 25.443 202.42 25.8743 202.249 26.4968C202.076 27.1181 201.99 28.4231 201.99 30.4056V34.0056ZM213.414 30.2968L216.49 30.8093C216.092 31.9381 215.471 32.7956 214.616 33.3843C213.766 33.9756 212.697 34.2681 211.416 34.2681C209.389 34.2681 207.89 33.6093 206.915 32.2831C206.147 31.2218 205.761 29.8806 205.761 28.2656C205.761 26.3318 206.267 24.8181 207.279 23.7243C208.286 22.6306 209.565 22.0818 211.109 22.0818C212.844 22.0818 214.211 22.6555 215.216 23.8018C216.216 24.9493 216.696 26.7031 216.655 29.0681H208.925C208.946 29.9818 209.194 30.6931 209.67 31.2006C210.145 31.7093 210.741 31.9643 211.45 31.9643C211.934 31.9643 212.337 31.833 212.667 31.5705C212.997 31.3043 213.249 30.8806 213.414 30.2968ZM213.59 27.1781C213.566 26.2831 213.337 25.6043 212.9 25.1406C212.461 24.6756 211.926 24.443 211.296 24.443C210.621 24.443 210.067 24.6906 209.629 25.1818C209.19 25.6693 208.974 26.3356 208.98 27.1781H213.59ZM216.961 30.6781L220.056 30.2068C220.187 30.8056 220.452 31.2631 220.857 31.5743C221.259 31.8856 221.821 32.0431 222.547 32.0431C223.346 32.0431 223.946 31.8968 224.346 31.6006C224.62 31.3981 224.755 31.1206 224.755 30.7806C224.755 30.5443 224.68 30.3493 224.534 30.1956C224.38 30.0493 224.035 29.9143 223.502 29.7906C221.015 29.2431 219.437 28.7418 218.771 28.2881C217.849 27.6581 217.387 26.7818 217.387 25.6605C217.387 24.653 217.785 23.8018 218.584 23.1168C219.381 22.4268 220.619 22.0818 222.294 22.0818C223.889 22.0818 225.077 22.3443 225.854 22.8618C226.629 23.3831 227.161 24.1505 227.452 25.1705L224.545 25.7056C224.421 25.2531 224.185 24.9043 223.837 24.6643C223.489 24.4205 222.994 24.3006 222.349 24.3006C221.536 24.3006 220.955 24.413 220.604 24.6418C220.37 24.803 220.255 25.013 220.255 25.2668C220.255 25.4893 220.356 25.6718 220.561 25.8268C220.839 26.0318 221.799 26.3205 223.442 26.6955C225.085 27.0668 226.231 27.5243 226.884 28.0668C227.527 28.6181 227.85 29.383 227.85 30.3593C227.85 31.428 227.405 32.3493 226.509 33.118C225.616 33.8868 224.297 34.2681 222.547 34.2681C220.96 34.2681 219.704 33.9456 218.775 33.3018C217.849 32.6618 217.246 31.7843 216.961 30.6781Z" fill="#DEE5FF"/>
</svg>
