<svg width="158" height="44" viewBox="0 0 158 44" fill="none" xmlns="http://www.w3.org/2000/svg">
<g clip-path="url(#clip0_304_44)">
<mask id="mask0_304_44" style="mask-type:luminance" maskUnits="userSpaceOnUse" x="0" y="0" width="158" height="44">
<path d="M157.143 0H0V44H157.143V0Z" fill="white"/>
</mask>
<g mask="url(#mask0_304_44)">
<mask id="mask1_304_44" style="mask-type:luminance" maskUnits="userSpaceOnUse" x="0" y="0" width="158" height="44">
<path d="M157.105 0H0V44H157.105V0Z" fill="white"/>
</mask>
<g mask="url(#mask1_304_44)">
<path d="M43.9249 20.5071C43.1008 8.38539 32.6115 -0.772946 20.4961 0.0515814C14.4608 0.462308 9.16153 3.27386 5.46354 7.48989L5.45325 7.48242C5.42833 7.51692 5.40505 7.55094 5.38031 7.58542C1.70702 11.822 -0.358928 17.4552 0.05153 23.4929C0.0906432 24.0683 0.158329 24.6344 0.240118 25.1957C0.240093 25.1956 0.240143 25.1959 0.240118 25.1957C0.243801 25.2211 0.24761 25.2466 0.251172 25.272C0.306462 25.6423 0.370659 26.0093 0.443908 26.3729C0.443859 26.3727 0.443956 26.373 0.443908 26.3729C0.44525 26.3795 0.44664 26.3867 0.447933 26.3933C0.514619 26.7225 0.588698 27.0487 0.669754 27.3723C0.669827 27.3726 0.670047 27.3734 0.670097 27.3736C3.20948 37.506 12.6978 44.6823 23.4804 43.9484C35.5956 43.124 44.7491 32.6288 43.9249 20.5071ZM39.1388 20.8328C39.2403 22.3252 39.1465 23.7864 38.8808 25.1922C38.8775 25.1841 38.875 25.1756 38.8716 25.1677C37.2776 21.2691 34.1243 18.4545 31.3513 16.8997C31.9126 10.2938 29.6727 7.51079 27.1376 7.05797C27.0687 7.04469 26.9994 7.03337 26.9289 7.02463C24.917 6.76644 23.077 8.18935 22.8193 10.2023C22.5611 12.2154 23.9833 14.0563 25.9953 14.3146C26.1707 14.3368 26.3443 14.343 26.5162 14.3403C26.5274 14.5633 26.5344 14.8001 26.5363 15.0479C24.1924 14.4667 22.0012 14.3529 20.0035 14.5327C19.2564 14.5825 18.5088 14.6766 17.7654 14.8157C18.0147 12.5851 18.8511 10.0808 20.4742 8.24806C22.0431 6.47645 24.3758 5.46102 26.9204 5.7216C27.4028 5.77098 27.9175 5.88949 28.3808 6.04519C28.4021 6.05235 28.4248 6.0584 28.4458 6.06572C28.4461 6.06531 28.4465 6.06475 28.4468 6.06433C34.3408 8.46668 38.6785 14.0634 39.1388 20.8328ZM23.8132 24.1931C23.8115 24.1955 23.8099 24.1978 23.8083 24.2003C23.2837 24.9574 22.6596 25.7039 21.9271 26.426C20.8292 25.257 19.947 23.9982 19.2778 22.6959C19.2435 22.6261 19.2069 22.5598 19.1735 22.4888C19.1722 22.4863 19.171 22.4837 19.1697 22.4811C18.7765 21.6476 18.4423 20.7332 18.1836 19.7372C19.7461 19.3694 21.2783 19.2342 22.7416 19.3054C22.8191 19.3106 22.8949 19.312 22.9731 19.3185C22.9758 19.3186 22.9788 19.3189 22.9817 19.3191C23.8982 19.3951 24.8551 19.5623 25.845 19.8353C25.3822 21.3724 24.7333 22.7672 23.9402 23.9991C23.897 24.0637 23.8579 24.1286 23.8132 24.1931ZM16.2998 5.7727C16.2957 5.77799 16.2911 5.78299 16.287 5.7883C13.7108 9.11714 12.8508 13.2542 12.8906 16.4337C6.89253 19.2503 5.60367 22.5826 6.47927 25.0055C6.50221 25.0718 6.52712 25.1376 6.55476 25.2031C7.3373 27.0755 9.48891 27.9583 11.3601 27.1751C13.2316 26.3922 14.1139 24.2395 13.3316 22.3671C13.2631 22.2039 13.1816 22.0503 13.0933 21.9028C13.2829 21.7801 13.4864 21.6543 13.7026 21.5273C14.3716 23.8493 15.3612 25.8135 16.5158 27.4548C16.9317 28.0761 17.386 28.6755 17.8769 29.2491C15.8213 30.1488 13.2349 30.6765 10.8366 30.1865C8.51861 29.7128 6.47339 28.1993 5.42663 25.8641C5.22821 25.4214 5.07349 24.9163 4.97652 24.437C4.91686 24.0181 4.86687 23.596 4.83773 23.1672C4.30196 15.2866 9.18856 8.27087 16.2998 5.7727ZM23.1548 39.1597C18.4776 39.478 14.1055 37.8818 10.8011 35.0445C14.9705 35.6123 18.9813 34.2889 21.7136 32.6646C27.1529 36.4566 30.6829 35.9077 32.3427 33.9371C32.3887 33.884 32.4331 33.8295 32.4759 33.7728C33.7055 32.1586 33.3939 29.8528 31.7804 28.623C30.1669 27.3928 27.8624 27.7047 26.6329 29.3188C26.5259 29.4598 26.4337 29.607 26.3502 29.7573C26.1507 29.6551 25.9412 29.5423 25.7247 29.4194C27.4016 27.6779 28.5965 25.835 29.4404 24.0129C29.7708 23.3407 30.0631 22.6458 30.3146 21.9319C32.1221 23.2634 33.8737 25.2415 34.649 27.5659C35.3979 29.8112 35.1106 32.3401 33.6127 34.4147C33.3288 34.808 32.9688 35.1947 32.6023 35.5184C32.597 35.5231 32.5917 35.5281 32.5866 35.5329C29.9661 37.5936 26.7237 38.9168 23.1548 39.1597Z" fill="url(#paint0_linear_304_44)"/>
<path style="mix-blend-mode:overlay" opacity="0.9" d="M27.1376 7.05795C27.0687 7.04466 26.9994 7.03334 26.9289 7.0246C26.573 6.97892 26.2229 6.98834 25.8855 7.04187C27.989 8.1868 29.5226 11.3769 28.7164 17.6695C28.4493 19.7536 27.8298 21.7369 26.9355 23.5569C26.2106 25.1217 25.2246 26.7014 23.899 28.2195C24.5357 28.6972 25.1563 29.0971 25.7247 29.4194C27.4016 27.6779 28.5965 25.835 29.4404 24.0128C30.3349 22.193 30.9542 20.2096 31.2213 18.1256C32.1813 10.6332 29.8244 7.53786 27.1376 7.05795Z" fill="url(#paint1_radial_304_44)"/>
<g style="mix-blend-mode:overlay" opacity="0.8">
<path d="M28.7164 17.6694C29.5227 11.3768 27.9891 8.1868 25.8855 7.04187C25.8034 7.0549 25.7228 7.07241 25.6423 7.09089C27.7017 8.27531 29.1835 11.4623 28.3881 17.6694C28.121 19.7536 27.5017 21.7368 26.6072 23.5568C25.9065 25.0698 24.9588 26.5963 23.6989 28.0681C23.766 28.12 23.8325 28.1694 23.8991 28.2195C25.2247 26.7013 26.2108 25.1216 26.9355 23.5568C27.8299 21.7368 28.4493 19.7536 28.7164 17.6694Z" fill="white"/>
</g>
<path style="mix-blend-mode:overlay" opacity="0.5" d="M20.7212 31.9417C20.5236 31.791 20.3333 31.6332 20.143 31.4756C17.0389 32.7714 12.7357 33.5837 8.46289 32.5917C9.16259 33.484 9.94343 34.308 10.8011 35.0445C14.9705 35.6123 18.9813 34.2889 21.7136 32.6647C21.3893 32.4386 21.0592 32.1994 20.7212 31.9417Z" fill="url(#paint2_radial_304_44)"/>
<path style="mix-blend-mode:overlay" opacity="0.6" d="M20.143 31.4757C20.048 31.3967 19.9523 31.3187 19.8591 31.2382C16.7313 32.4887 12.4086 33.2362 8.14539 32.1732C8.24926 32.3143 8.35488 32.4541 8.46288 32.5918C12.7357 33.5838 17.0389 32.7715 20.143 31.4757Z" fill="url(#paint3_linear_304_44)"/>
<path style="mix-blend-mode:overlay" opacity="0.9" d="M6.48028 25.0092C6.50322 25.0755 6.52812 25.1412 6.55577 25.2066C6.69425 25.5379 6.8774 25.8365 7.09244 26.1021C7.03171 23.7071 9.02612 20.7831 14.876 18.3354C16.8134 17.5248 18.8397 17.0698 20.8622 16.9349C22.579 16.7804 24.4395 16.845 26.4163 17.2345C26.5114 16.4441 26.5472 15.7064 26.5421 15.0527C24.1962 14.4704 22.0035 14.3565 20.0045 14.5363C17.982 14.6712 15.9556 15.1262 14.0182 15.9368C7.05303 18.8512 5.55225 22.441 6.48028 25.0092Z" fill="url(#paint4_radial_304_44)"/>
<g style="mix-blend-mode:overlay" opacity="0.8">
<path d="M14.8759 18.3355C9.02608 20.7831 7.03167 23.707 7.0924 26.1021C7.14475 26.1668 7.20021 26.2278 7.25642 26.2882C7.25197 23.9118 9.26971 21.0343 15.0399 18.6199C16.9774 17.8093 19.0038 17.3543 21.0263 17.2194C22.6863 17.0701 24.4816 17.1279 26.3853 17.4837C26.3967 17.3996 26.4063 17.3172 26.4162 17.2345C24.4395 16.8451 22.579 16.7804 20.8621 16.9349C18.8397 17.0698 16.8134 17.5247 14.8759 18.3355Z" fill="white"/>
</g>
<path style="mix-blend-mode:overlay" opacity="0.4" d="M31.2269 18.1272C31.1954 18.3738 31.1539 18.6175 31.1125 18.8613C33.7862 20.903 36.641 24.2255 37.9187 28.4238C38.3413 27.3715 38.6641 26.2828 38.8727 25.1713C37.2794 21.2748 34.1286 18.461 31.3565 16.9058C31.3231 17.2999 31.281 17.7055 31.2269 18.1272Z" fill="url(#paint5_radial_304_44)"/>
<path style="mix-blend-mode:overlay" opacity="0.5" d="M31.1126 18.8612C31.0919 18.9829 31.0721 19.1049 31.049 19.2259C33.6953 21.3107 36.5038 24.6825 37.7152 28.9081C37.7854 28.7475 37.8536 28.5862 37.9187 28.4237C36.641 24.2254 33.7862 20.9029 31.1126 18.8612Z" fill="url(#paint6_linear_304_44)"/>
<path style="mix-blend-mode:overlay" opacity="0.9" d="M32.3452 33.932C32.3912 33.8789 32.4356 33.8245 32.4785 33.7677C32.696 33.4821 32.8628 33.1741 32.9852 32.855C30.9425 34.1052 27.4146 33.839 22.371 29.994C20.7005 28.7206 19.2936 27.1922 18.1656 25.5073C17.1734 24.0968 16.2992 22.4525 15.6478 20.545C14.9161 20.8577 14.2596 21.1956 13.6964 21.5269C14.3654 23.8505 15.3631 25.8075 16.5183 27.4497C17.6463 29.1348 19.0533 30.6631 20.7237 31.9366C26.7288 36.5146 30.5864 36.0201 32.3452 33.932Z" fill="url(#paint7_radial_304_44)"/>
<g style="mix-blend-mode:overlay" opacity="0.8">
<path d="M22.371 29.994C27.4145 33.839 30.9425 34.1052 32.9852 32.855C33.0149 32.7773 33.0401 32.6986 33.0643 32.6197C31.0094 33.8118 27.5101 33.5022 22.535 29.7096C20.8646 28.4361 19.4577 26.9078 18.3297 25.2227C17.3704 23.8592 16.523 22.2746 15.8789 20.4471C15.8006 20.4793 15.7244 20.5123 15.6477 20.545C16.2991 22.4525 17.1734 24.0968 18.1655 25.5073C19.2935 27.1922 20.7005 28.7206 22.371 29.994Z" fill="white"/>
</g>
<path style="mix-blend-mode:overlay" opacity="0.3" d="M14.015 15.9303C14.2443 15.8344 14.476 15.7485 14.7076 15.6625C15.138 12.3249 16.5864 8.18992 19.5815 4.98364C18.4594 5.14374 17.3557 5.40835 16.2893 5.7833C13.7133 9.11215 12.8533 13.2492 12.893 16.4287C13.2509 16.2608 13.6231 16.0943 14.015 15.9303Z" fill="url(#paint8_radial_304_44)"/>
<path style="mix-blend-mode:overlay" opacity="0.4" d="M14.7076 15.6625C14.8234 15.6196 14.9388 15.5757 15.0552 15.5351C15.5365 12.1997 17.0509 8.08035 20.1027 4.91785C19.9285 4.93728 19.7548 4.95897 19.5816 4.98367C16.5865 8.18997 15.138 12.3249 14.7076 15.6625Z" fill="url(#paint9_linear_304_44)"/>
<path style="mix-blend-mode:multiply" opacity="0.4" d="M20.4962 0.0515803C14.4608 0.462306 9.16157 3.27387 5.46358 7.48989C5.43564 7.52174 5.40788 7.55369 5.38013 7.5857C6.10008 8.30022 8.45321 9.70884 9.40684 10.2964C11.2793 8.28159 13.6331 6.7095 16.2998 5.7727C16.4861 5.53259 16.6792 5.29568 16.8837 5.06478C19.3673 2.2606 22.7592 0.778433 26.6932 0.778433C27.1311 0.778433 28.0229 0.848168 28.0421 0.849585C25.6571 0.164018 23.1153 -0.126668 20.4962 0.0515803Z" fill="url(#paint10_linear_304_44)"/>
<path style="mix-blend-mode:multiply" opacity="0.4" d="M23.1548 39.1597C18.4776 39.478 14.1055 37.8818 10.8011 35.0445C10.4935 35.0027 10.1853 34.9523 9.8765 34.8892C6.20743 34.1392 3.22861 31.9414 1.26158 28.5325C1.04263 28.1531 0.846725 27.7665 0.670166 27.3739C3.20962 37.5062 12.6979 44.6823 23.4804 43.9484C23.5282 42.8375 23.2008 40.2597 23.1548 39.1597Z" fill="url(#paint11_linear_304_44)"/>
<path style="mix-blend-mode:multiply" opacity="0.4" d="M43.925 20.5071C43.2495 20.4378 39.9501 20.6985 39.1389 20.8328C39.2403 22.3251 39.1465 23.7864 38.8809 25.1922C38.9948 25.4717 39.1027 25.7557 39.1997 26.0464C40.385 29.6005 39.9719 33.2807 38.005 36.6895C37.7901 37.0618 37.5581 37.4185 37.3118 37.7618C37.3071 37.7683 37.3017 37.7757 37.2977 37.7812C37.2977 37.7812 37.3078 37.7727 37.3137 37.7674C41.7797 33.42 44.381 27.2143 43.925 20.5071Z" fill="url(#paint12_linear_304_44)"/>
<path style="mix-blend-mode:multiply" opacity="0.5" d="M26.9204 5.72163C27.4028 5.77102 27.9175 5.88952 28.3808 6.04522C28.4021 6.05238 28.4248 6.05842 28.4458 6.06576L28.4468 6.06436C30.3436 6.83747 32.0778 7.94296 33.5749 9.31036C33.5781 9.31304 33.5813 9.31523 33.5846 9.31793C34.3061 8.49261 35.6953 7.58574 35.6953 7.58574C35.6953 7.58574 33.568 5.40857 30.3146 4.73292C28.0369 4.25991 22.8996 3.80141 19.6595 9.31791C19.6595 9.31791 19.6724 9.30577 19.6914 9.28826C19.931 8.9258 20.1859 8.57349 20.4741 8.24808C22.0431 6.47648 24.3757 5.46104 26.9204 5.72163Z" fill="url(#paint13_linear_304_44)"/>
<path style="mix-blend-mode:multiply" opacity="0.5" d="M33.6121 34.4127C33.3282 34.806 32.9683 35.1927 32.6019 35.5164C32.585 35.5312 32.5684 35.5478 32.5516 35.5625L32.5523 35.5641C30.9347 36.821 29.1107 37.771 27.1787 38.3845C27.1747 38.386 27.1712 38.3876 27.1672 38.389C27.5208 39.4268 27.6113 41.084 27.6113 41.084C27.6113 41.084 30.5593 40.3294 32.7709 37.8481C34.3191 36.111 37.2846 31.8889 34.1297 26.3232C34.1297 26.3232 34.1339 26.3405 34.1396 26.3656C34.3334 26.7546 34.5109 27.1514 34.6485 27.5639C35.3974 29.8092 35.1101 32.3381 33.6121 34.4127Z" fill="url(#paint14_linear_304_44)"/>
<path style="mix-blend-mode:multiply" opacity="0.5" d="M5.43431 25.8705C5.23586 25.4279 5.08106 24.9226 4.98414 24.4433C4.97968 24.4213 4.97362 24.3986 4.96942 24.3767L4.96771 24.3766C4.6885 22.3464 4.77827 20.291 5.21332 18.3102C5.21402 18.306 5.21431 18.3021 5.21502 18.298C4.13991 18.0855 2.66033 17.3351 2.66033 17.3351C2.66033 17.3351 1.8395 20.267 2.88142 23.4238C3.61083 25.634 5.78262 30.3147 12.1775 30.3638C12.1775 30.3638 12.1606 30.3587 12.1359 30.351C11.7023 30.3246 11.27 30.2799 10.8442 30.1929C8.52629 29.7192 6.48106 28.2058 5.43431 25.8705Z" fill="url(#paint15_linear_304_44)"/>
<path style="mix-blend-mode:multiply" opacity="0.6" d="M25.9953 14.3146C26.1708 14.3368 26.3443 14.343 26.5163 14.3403C26.5163 14.3403 26.4015 12.0544 26.1209 10.8816C25.8404 9.70881 25.4267 8.93215 24.9721 8.49258C24.6465 8.17767 23.6187 7.78547 22.8193 10.2023C22.5612 12.2154 23.9834 14.0563 25.9953 14.3146Z" fill="url(#paint16_linear_304_44)"/>
<path style="mix-blend-mode:multiply" opacity="0.5" d="M13.3326 22.3708C13.2641 22.2075 13.1826 22.054 13.0943 21.9064C13.0943 21.9064 11.1732 23.1488 10.2983 23.9784C9.42341 24.8078 8.95805 25.5546 8.80482 26.1683C8.69504 26.6078 8.86953 27.6946 11.3611 27.1788C13.2326 26.3959 14.1149 24.2431 13.3326 22.3708Z" fill="url(#paint17_linear_304_44)"/>
<path style="mix-blend-mode:multiply" opacity="0.6" d="M26.6359 29.3128C26.5289 29.4539 26.4369 29.6012 26.3531 29.7515C26.3531 29.7515 28.3893 30.7949 29.5447 31.1382C30.6999 31.4816 31.5792 31.5113 32.1869 31.3374C32.6223 31.2127 33.4757 30.5181 31.7834 28.6172C30.17 27.3869 27.8655 27.6987 26.6359 29.3128Z" fill="url(#paint18_linear_304_44)"/>
<path style="mix-blend-mode:multiply" opacity="0.3" d="M25.845 19.8354C25.3822 21.3724 24.7333 22.7672 23.9402 23.9991C23.897 24.0638 23.8578 24.1286 23.8131 24.1931C23.8115 24.1955 23.8099 24.1978 23.8083 24.2003C23.2837 24.9574 22.6596 25.7039 21.9271 26.4261C22.4305 26.9618 22.9749 27.4805 23.5727 27.9727C24.3234 28.5655 25.0593 29.0421 25.7246 29.4194C27.4016 27.6779 28.5965 25.8351 29.4404 24.0129C29.7708 23.3407 30.0631 22.6458 30.3146 21.932C29.5409 21.3622 28.7573 20.9088 28.0352 20.6008C27.2885 20.2823 26.5584 20.0322 25.845 19.8354Z" fill="url(#paint19_linear_304_44)"/>
<path style="mix-blend-mode:multiply" opacity="0.3" d="M10.8012 35.0445C14.9705 35.6123 18.9813 34.2889 21.7136 32.6646C21.3894 32.4386 21.0592 32.1993 20.7212 31.9417C19.6666 31.1376 18.7176 30.2317 17.877 29.2491C15.8213 30.1488 13.2349 30.6765 10.8366 30.1865C8.51865 29.7128 6.47344 28.1993 5.42668 25.8641C5.22826 25.4214 5.07353 24.9163 4.97656 24.437C5.58232 28.6898 7.72721 32.405 10.8012 35.0445Z" fill="url(#paint20_linear_304_44)"/>
<path style="mix-blend-mode:multiply" opacity="0.3" d="M21.9272 26.426C20.8292 25.257 19.9472 23.9982 19.2779 22.6959C19.2436 22.6261 19.2069 22.5598 19.1735 22.4889C19.1722 22.4864 19.171 22.4837 19.1697 22.4811C18.7765 21.6476 18.4423 20.7333 18.1836 19.7372C17.4697 19.9053 16.7501 20.1173 16.0268 20.3884C15.1403 20.7418 14.3612 21.1403 13.7026 21.5273C14.3716 23.8493 15.3612 25.8135 16.5159 27.4548C16.9317 28.0761 17.386 28.6755 17.8769 29.2492C18.7584 28.8636 19.5438 28.4105 20.1722 27.9383C20.8203 27.4513 21.4009 26.9447 21.9272 26.426Z" fill="url(#paint21_linear_304_44)"/>
<path style="mix-blend-mode:multiply" opacity="0.3" d="M16.287 5.78831C13.7109 9.11713 12.8508 13.2542 12.8906 16.4337C13.2498 16.265 13.6236 16.0978 14.0172 15.9331C15.2389 15.422 16.4962 15.053 17.7654 14.8157C18.0147 12.585 18.8511 10.0807 20.4742 8.24806C22.0431 6.47644 24.3758 5.46101 26.9204 5.72159C27.4028 5.77097 27.9175 5.88948 28.3809 6.04518C28.4023 6.05234 28.4248 6.0584 28.4458 6.06572L28.4468 6.06432C26.1026 5.1088 23.5128 4.65717 20.8217 4.84033C19.2412 4.9479 17.7268 5.27141 16.2998 5.77269C16.2958 5.77798 16.2911 5.78302 16.287 5.78831Z" fill="url(#paint22_linear_304_44)"/>
<path style="mix-blend-mode:multiply" opacity="0.3" d="M38.8717 25.1676C37.2776 21.269 34.1244 18.4545 31.3514 16.8997C31.3178 17.2951 31.2756 17.7024 31.2213 18.1256C31.0529 19.4398 30.7439 20.7137 30.3147 21.9319C32.1221 23.2634 33.8737 25.2415 34.649 27.5658C35.3979 29.8112 35.1106 32.3401 33.6128 34.4147C33.3289 34.808 32.9688 35.1947 32.6024 35.5184C32.5971 35.5231 32.5918 35.5281 32.5865 35.5329C35.8148 32.9944 38.098 29.3357 38.8809 25.1922C38.8775 25.1841 38.875 25.1755 38.8717 25.1676Z" fill="url(#paint23_linear_304_44)"/>
<path style="mix-blend-mode:multiply" opacity="0.3" d="M17.7523 17.4615C17.8498 18.266 17.9977 19.0222 18.1836 19.7373C19.7461 19.3695 21.2784 19.2343 22.7416 19.3055C22.8191 19.3107 22.8949 19.3121 22.9731 19.3186C22.9758 19.3187 22.9788 19.319 22.9817 19.3192C23.8982 19.3951 24.8551 19.5623 25.845 19.8354C26.0568 19.1323 26.2333 18.4022 26.3603 17.6394C26.4982 16.6911 26.5425 15.8141 26.5363 15.0479C24.1924 14.4668 22.0012 14.353 20.0035 14.5328C19.2565 14.5826 18.5089 14.6767 17.7654 14.8158C17.6583 15.7728 17.6576 16.6803 17.7523 17.4615Z" fill="url(#paint24_linear_304_44)"/>
<path d="M125.142 15.3845L121.836 24.5976H121.861L125.161 15.4395L125.142 15.3845Z" fill="url(#paint25_linear_304_44)"/>
<path d="M66.4396 15.3845L63.1343 24.5976H63.1444L66.452 15.4192L66.4396 15.3845Z" fill="url(#paint26_linear_304_44)"/>
<path d="M67.2653 17.6858L69.7452 24.5979H64.7745L63.5187 28.0824H71.0142L73.1393 33.9878H77.8908L69.2264 12.2437L67.2653 17.6858Z" fill="white"/>
<path d="M63.1344 24.5977L66.4397 15.3845L66.4521 15.4193L67.8481 11.5457H64.1967L55.2837 33.9877H59.7606L63.1445 24.5977H63.1344Z" fill="white"/>
<path d="M92.2932 22.4269C91.2111 21.7881 89.7748 21.1917 87.9844 20.6405C86.9614 20.3064 86.1592 19.9964 85.579 19.7102C84.9984 19.4255 84.5953 19.1004 84.3692 18.7364C84.1428 18.3723 84.0297 17.9439 84.0297 17.4519C84.0297 16.5852 84.364 15.9163 85.0333 15.4435C85.7017 14.971 86.6365 14.735 87.8369 14.735C88.8207 14.735 89.8486 14.8825 90.921 15.1776C91.993 15.4729 92.9426 15.8765 93.7692 16.3882L94.3887 12.7568C93.5428 12.2445 92.5149 11.8362 91.3046 11.5314C90.0948 11.2257 88.8892 11.0737 87.6895 11.0737C86.0559 11.0737 84.6394 11.3389 83.4394 11.8707C82.2393 12.4025 81.3095 13.1605 80.6507 14.144C79.9911 15.1289 79.6617 16.29 79.6617 17.6286C79.6617 18.7708 79.8833 19.7597 80.3257 20.5962C80.7686 21.433 81.4919 22.1565 82.495 22.7671C83.4985 23.3775 84.8165 23.9288 86.4496 24.4201C87.6303 24.7745 88.5451 25.1101 89.1946 25.4247C89.8437 25.7393 90.2963 26.0891 90.5522 26.4726C90.8076 26.8569 90.936 27.3145 90.936 27.8455C90.936 28.7713 90.5567 29.4949 89.7995 30.0162C89.0419 30.5376 87.9941 30.7982 86.6563 30.7982C85.4952 30.7982 84.2806 30.6169 83.0115 30.2522C81.7425 29.8882 80.6358 29.4207 79.6913 28.8501L79.2781 32.5997C79.8287 32.9742 80.5178 33.2986 81.344 33.5742C82.1704 33.8499 83.0606 34.0664 84.0151 34.2236C84.9692 34.381 85.9185 34.4603 86.863 34.4603C89.5192 34.4603 91.6044 33.8551 93.1197 32.6439C94.6347 31.4334 95.3923 29.7556 95.3923 27.6095C95.3923 26.468 95.146 25.4785 94.6545 24.6419C94.1625 23.8052 93.3753 23.0674 92.2932 22.4269Z" fill="white"/>
<path d="M115.845 11.5457H96.8683V15.2055H115.845V11.5457Z" fill="white"/>
<path d="M108.614 16.7395H104.099V33.9876H108.614V16.7395Z" fill="white"/>
<path d="M121.836 24.5977L125.142 15.3845L125.161 15.4395L126.565 11.5457H122.899L113.986 33.9877H118.472L120.597 28.0824H120.605L121.861 24.5977H121.836Z" fill="white"/>
<path d="M125.974 17.7053L128.447 24.5976H123.491L122.235 28.0823H129.716L131.842 33.9877H136.593L127.936 12.2615L125.974 17.7053Z" fill="white"/>
<path d="M151.202 24.8929C152.283 24.2831 153.169 23.4607 153.858 22.427C154.547 21.3941 154.891 20.1882 154.891 18.8099C154.891 17.3141 154.556 16.0242 153.887 14.9419C153.219 13.8595 152.264 13.0221 151.024 12.4318C149.786 11.8408 148.309 11.5457 146.599 11.5457H145.03V14.9419H146.007C148.998 14.9419 150.494 16.2213 150.494 18.7808C150.494 21.3395 148.949 22.6196 145.86 22.6196H145.03V26.0149H147.336L152.058 33.9877H157.105L151.202 24.8929Z" fill="white"/>
<path d="M143.496 11.5457H139.219V33.9877H143.496V11.5457Z" fill="white"/>
</g>
</g>
</g>
<defs>
<linearGradient id="paint0_linear_304_44" x1="6.98257" y1="37.0147" x2="35.0361" y2="8.97601" gradientUnits="userSpaceOnUse">
<stop offset="0.001139" stop-color="white" stop-opacity="0.3"/>
<stop offset="0.207149" stop-color="white" stop-opacity="0.4"/>
<stop offset="0.456011" stop-color="white" stop-opacity="0.6"/>
<stop offset="0.768132" stop-color="white" stop-opacity="0.8"/>
<stop offset="1" stop-color="white"/>
</linearGradient>
<radialGradient id="paint1_radial_304_44" cx="0" cy="0" r="1" gradientUnits="userSpaceOnUse" gradientTransform="translate(28.2558 17.5468) scale(8.36037 8.36483)">
<stop stop-color="white"/>
<stop offset="1" stop-color="white" stop-opacity="0"/>
</radialGradient>
<radialGradient id="paint2_radial_304_44" cx="0" cy="0" r="1" gradientUnits="userSpaceOnUse" gradientTransform="translate(15.8981 33.0645) scale(4.86413 4.86672)">
<stop stop-color="white"/>
<stop offset="1" stop-color="white" stop-opacity="0"/>
</radialGradient>
<linearGradient id="paint3_linear_304_44" x1="8.59855" y1="32.2414" x2="13.2873" y2="32.1763" gradientUnits="userSpaceOnUse">
<stop stop-color="white" stop-opacity="0"/>
<stop offset="1" stop-color="white"/>
</linearGradient>
<radialGradient id="paint4_radial_304_44" cx="0" cy="0" r="1" gradientUnits="userSpaceOnUse" gradientTransform="translate(14.9998 18.7958) rotate(-119.987) scale(8.36371 8.36148)">
<stop stop-color="white"/>
<stop offset="1" stop-color="white" stop-opacity="0"/>
</radialGradient>
<radialGradient id="paint5_radial_304_44" cx="0" cy="0" r="1" gradientUnits="userSpaceOnUse" gradientTransform="translate(34.6104 21.7447) rotate(-119.987) scale(4.86607 4.86478)">
<stop stop-color="white"/>
<stop offset="1" stop-color="white" stop-opacity="0"/>
</radialGradient>
<linearGradient id="paint6_linear_304_44" x1="37.5477" y1="28.4813" x2="35.1451" y2="24.4524" gradientUnits="userSpaceOnUse">
<stop stop-color="white" stop-opacity="0"/>
<stop offset="1" stop-color="white"/>
</linearGradient>
<radialGradient id="paint7_radial_304_44" cx="0" cy="0" r="1" gradientUnits="userSpaceOnUse" gradientTransform="translate(22.3127 29.2696) rotate(119.987) scale(8.36371 8.36148)">
<stop stop-color="white"/>
<stop offset="1" stop-color="white" stop-opacity="0"/>
</radialGradient>
<radialGradient id="paint8_radial_304_44" cx="0" cy="0" r="1" gradientUnits="userSpaceOnUse" gradientTransform="translate(15.4546 11.1898) rotate(119.987) scale(4.86607 4.86478)">
<stop stop-color="white"/>
<stop offset="1" stop-color="white" stop-opacity="0"/>
</radialGradient>
<linearGradient id="paint9_linear_304_44" x1="19.817" y1="5.27639" x2="17.5272" y2="9.37063" gradientUnits="userSpaceOnUse">
<stop stop-color="white" stop-opacity="0"/>
<stop offset="1" stop-color="white"/>
</linearGradient>
<linearGradient id="paint10_linear_304_44" x1="20.8364" y1="3.19461" x2="13.6725" y2="5.27753" gradientUnits="userSpaceOnUse">
<stop stop-color="#231F20"/>
<stop offset="1" stop-color="white"/>
</linearGradient>
<linearGradient id="paint11_linear_304_44" x1="7.29905" y1="30.5296" x2="13.2935" y2="36.7813" gradientUnits="userSpaceOnUse">
<stop stop-color="#231F20"/>
<stop offset="1" stop-color="white"/>
</linearGradient>
<linearGradient id="paint12_linear_304_44" x1="39.4538" y1="29.5868" x2="41.5395" y2="23.2456" gradientUnits="userSpaceOnUse">
<stop stop-color="#231F20"/>
<stop offset="1" stop-color="white"/>
</linearGradient>
<linearGradient id="paint13_linear_304_44" x1="24.1003" y1="6.82122" x2="33.7047" y2="9.0192" gradientUnits="userSpaceOnUse">
<stop stop-color="#231F20"/>
<stop offset="1" stop-color="white"/>
</linearGradient>
<linearGradient id="paint14_linear_304_44" x1="34.0704" y1="31.4194" x2="27.3603" y2="38.6374" gradientUnits="userSpaceOnUse">
<stop stop-color="#231F20"/>
<stop offset="1" stop-color="white"/>
</linearGradient>
<linearGradient id="paint15_linear_304_44" x1="7.7961" y1="27.7643" x2="4.89571" y2="18.3434" gradientUnits="userSpaceOnUse">
<stop stop-color="#231F20"/>
<stop offset="1" stop-color="white"/>
</linearGradient>
<linearGradient id="paint16_linear_304_44" x1="26.1999" y1="10.3653" x2="23.1594" y2="13.4043" gradientUnits="userSpaceOnUse">
<stop stop-color="#231F20"/>
<stop offset="1" stop-color="white"/>
</linearGradient>
<linearGradient id="paint17_linear_304_44" x1="9.81184" y1="24.168" x2="13.9635" y2="25.2798" gradientUnits="userSpaceOnUse">
<stop stop-color="#231F20"/>
<stop offset="1" stop-color="white"/>
</linearGradient>
<linearGradient id="paint18_linear_304_44" x1="29.952" y1="31.465" x2="28.8385" y2="27.3117" gradientUnits="userSpaceOnUse">
<stop stop-color="#231F20"/>
<stop offset="1" stop-color="white"/>
</linearGradient>
<linearGradient id="paint19_linear_304_44" x1="23.633" y1="27.7716" x2="25.4577" y2="25.2531" gradientUnits="userSpaceOnUse">
<stop stop-color="#231F20"/>
<stop offset="1" stop-color="white"/>
</linearGradient>
<linearGradient id="paint20_linear_304_44" x1="17.3545" y1="26.6809" x2="13.7071" y2="28.4168" gradientUnits="userSpaceOnUse">
<stop stop-color="#231F20"/>
<stop offset="1" stop-color="white"/>
</linearGradient>
<linearGradient id="paint21_linear_304_44" x1="16.0312" y1="20.6073" x2="17.1609" y2="22.9523" gradientUnits="userSpaceOnUse">
<stop stop-color="#231F20"/>
<stop offset="1" stop-color="white"/>
</linearGradient>
<linearGradient id="paint22_linear_304_44" x1="21.2822" y1="13.3631" x2="20.4999" y2="10.6702" gradientUnits="userSpaceOnUse">
<stop stop-color="#231F20"/>
<stop offset="1" stop-color="white"/>
</linearGradient>
<linearGradient id="paint23_linear_304_44" x1="29.7043" y1="25.6934" x2="31.962" y2="26.2141" gradientUnits="userSpaceOnUse">
<stop stop-color="#231F20"/>
<stop offset="1" stop-color="white"/>
</linearGradient>
<linearGradient id="paint24_linear_304_44" x1="26.1614" y1="18.0633" x2="23.296" y2="17.5426" gradientUnits="userSpaceOnUse">
<stop stop-color="#231F20"/>
<stop offset="1" stop-color="white"/>
</linearGradient>
<linearGradient id="paint25_linear_304_44" x1="52.9346" y1="36.1492" x2="153.341" y2="13.1827" gradientUnits="userSpaceOnUse">
<stop offset="0.001139" stop-color="#E6007A"/>
<stop offset="0.207149" stop-color="#703AC2"/>
<stop offset="0.456011" stop-color="#0070EB"/>
<stop offset="0.768132" stop-color="#0297FB"/>
<stop offset="1" stop-color="#0AE2FF"/>
</linearGradient>
<linearGradient id="paint26_linear_304_44" x1="50.013" y1="23.3752" x2="150.42" y2="0.40871" gradientUnits="userSpaceOnUse">
<stop offset="0.001139" stop-color="#E6007A"/>
<stop offset="0.207149" stop-color="#703AC2"/>
<stop offset="0.456011" stop-color="#0070EB"/>
<stop offset="0.768132" stop-color="#0297FB"/>
<stop offset="1" stop-color="#0AE2FF"/>
</linearGradient>
<clipPath id="clip0_304_44">
<rect width="158" height="44" fill="white"/>
</clipPath>
</defs>
</svg>
