<svg width="179" height="40" viewBox="0 0 179 40" fill="none" xmlns="http://www.w3.org/2000/svg">
<g clip-path="url(#clip0_304_11)">
<path d="M20.0007 3.056C20.8263 3.05339 21.6362 3.28192 22.3386 3.71573C23.0411 4.14954 23.608 4.77131 23.9754 5.51067L36.4754 30.5107C36.8146 31.1883 36.9749 31.9413 36.9411 32.6983C36.9073 33.4553 36.6805 34.1911 36.2822 34.8358C35.8839 35.4804 35.3274 36.0125 34.6656 36.3815C34.0037 36.7505 33.2585 36.9441 32.5007 36.944H7.50075C6.7431 36.9439 5.99806 36.7501 5.3364 36.381C4.67473 36.0119 4.11841 35.4798 3.72029 34.8352C3.32217 34.1906 3.09546 33.4549 3.0617 32.698C3.02794 31.9411 3.18826 31.1882 3.52741 30.5107L16.0261 5.51067C16.3934 4.77131 16.9604 4.14954 17.6629 3.71573C18.3653 3.28192 19.1752 3.05339 20.0007 3.056ZM20.0007 3.70551e-08C18.6081 -0.00013837 17.243 0.387456 16.0582 1.11937C14.8735 1.85127 13.9159 2.89859 13.2927 4.144L0.792747 29.144C0.220585 30.2875 -0.0497163 31.5583 0.00751819 32.8357C0.0647527 34.1131 0.447623 35.3546 1.11976 36.4424C1.79189 37.5302 2.73097 38.428 3.84779 39.0507C4.96461 39.6733 6.22208 40.0001 7.50075 40H32.5007C33.7793 39.9999 35.0366 39.6729 36.1532 39.0502C37.2699 38.4274 38.2088 37.5296 38.8808 36.4418C39.5527 35.3541 39.9355 34.1127 39.9927 32.8354C40.0498 31.5581 39.7795 30.2874 39.2074 29.144L26.7087 4.144C26.0856 2.89859 25.128 1.85127 23.9433 1.11937C22.7585 0.387456 21.3934 -0.00013837 20.0007 3.70551e-08Z" fill="white" fill-opacity="0.66"/>
<path d="M128.26 10.4184C130.268 10.9317 131.122 11.405 132.654 12.805C135.337 15.309 136.332 18.957 135.357 22.7437C134.244 27.121 130.308 30.0197 125.616 29.941C124.952 29.9283 124.29 29.8887 123.629 29.8224C122.655 29.665 120.964 28.9557 119.93 28.265C114.861 24.913 114.184 17.261 118.578 12.9624C119.923 11.6219 121.63 10.7034 123.489 10.3197C125.319 9.94639 126.451 9.96506 128.26 10.4184ZM86.4718 10.4184L88.1025 10.477L89.7318 10.537L89.7918 16.0584C89.8718 24.125 89.5332 25.9184 87.5452 27.8904C86.0945 29.3104 84.8012 29.8037 82.1772 29.8824C81.0838 29.9224 79.9105 29.8624 79.5532 29.7837C76.6105 29.0344 74.6025 26.7464 74.1065 23.6104C74.0065 22.921 73.9465 19.7064 73.9665 16.453L74.0265 10.537H77.2078L77.3065 17.1424C77.4065 23.709 77.4065 23.749 77.9038 24.7357C79.4145 27.733 84.2252 27.7517 85.8158 24.7757L86.3518 23.749L86.4718 10.4184ZM61.9785 10.4384L62.3772 11.4837C62.5958 12.0357 63.4905 14.3637 64.3852 16.6504C65.2785 18.937 66.2532 21.461 66.5718 22.2704C66.8692 23.0784 67.6252 25.0117 68.2412 26.5504C68.8572 28.0877 69.3545 29.409 69.3545 29.4677C69.3545 29.5277 68.5998 29.5664 67.6852 29.5664C66.0545 29.5664 66.0145 29.5464 65.8158 29.033C65.6958 28.7184 64.5038 25.6424 63.1918 22.1717C60.1305 14.1264 60.1505 14.185 59.8918 14.185C59.7718 14.185 59.5932 14.481 59.4745 14.8357C59.3545 15.1704 58.5198 17.3797 57.6252 19.7064C56.7318 22.033 55.5185 25.189 54.9412 26.7064L53.9078 29.4677L52.2972 29.5277C50.9252 29.5677 50.6665 29.5277 50.6665 29.2704C50.6665 28.9157 57.6052 11.049 57.8838 10.6944C58.0038 10.517 58.6985 10.4384 60.0305 10.4384H61.9785ZM100.707 10.4384C105.854 10.4384 107.008 10.6157 108.48 11.681C108.996 12.0544 109.613 12.765 109.971 13.377C110.488 14.3037 110.606 14.717 110.667 16.137C110.725 17.517 110.667 18.0304 110.328 18.957C109.792 20.317 108.578 21.501 107.148 22.0144C106.59 22.2104 106.134 22.4077 106.134 22.4677C106.134 22.5264 107.307 24.045 108.719 25.8597C110.149 27.673 111.302 29.2317 111.302 29.349C111.302 29.645 108.48 29.625 107.863 29.349C107.585 29.2317 106.213 27.6344 104.823 25.7997L102.257 22.4877L100.825 22.4677H99.3745V29.5664H96.1932L96.2332 24.6957L96.2932 19.805L100.865 19.7064C104.165 19.6277 105.577 19.529 105.955 19.333C107.405 18.6024 108.003 16.3144 107.088 14.993C106.173 13.633 105.696 13.5144 101.421 13.3957L97.5852 13.297L96.9692 12.6864C96.575 12.3089 96.3223 11.8077 96.2532 11.2664L96.1332 10.4384H100.707ZM145.16 10.4784C149.891 10.537 150.228 10.557 151.162 10.9904C153.269 11.957 154.402 13.6717 154.542 16.0784C154.701 19.1144 153.409 21.205 150.825 22.053C150.407 22.1917 150.069 22.389 150.069 22.4877C150.069 22.585 151.202 24.1037 152.575 25.8597C153.945 27.6144 155.118 29.1717 155.179 29.3304C155.339 29.7237 151.879 29.5864 151.361 29.1717C151.163 29.0144 149.89 27.437 148.519 25.681L146.053 22.4677H144.701C143.648 22.4677 143.329 22.5464 143.231 22.7824C143.171 22.9597 143.11 24.557 143.11 26.333V29.5664H139.93V24.953C139.93 22.4077 139.989 20.1997 140.05 20.0224C140.149 19.7464 140.745 19.7064 144.482 19.7064C149.313 19.7064 149.989 19.549 150.884 18.3064C151.52 17.4197 151.52 15.7037 150.904 14.8357C150.089 13.7117 149.373 13.5157 145.297 13.3957C142.296 13.317 141.501 13.2384 141.084 12.9624C140.447 12.549 139.87 11.345 140.031 10.813C140.169 10.4184 140.268 10.4184 145.159 10.477L145.16 10.4784ZM171.58 10.537L172.713 13.3957C173.31 14.8722 173.899 16.3513 174.482 17.833C174.82 18.6997 175.953 21.6197 176.987 24.301C178.04 26.9837 178.896 29.2704 178.896 29.369C178.896 29.4877 178.18 29.5664 177.245 29.5664H175.616L174.144 25.681C171.024 17.4584 169.771 14.2837 169.592 14.225C169.413 14.165 168.976 15.1904 166.888 20.5944C166.53 21.581 165.616 23.9064 164.9 25.781C164.184 27.6344 163.588 29.2704 163.588 29.369C163.588 29.4877 162.892 29.5664 161.898 29.5664C160.924 29.5664 160.208 29.4864 160.208 29.369C160.208 29.2317 165.357 15.901 167.146 11.4237L167.484 10.537H171.58ZM125.596 13.1984C120.885 13.1984 117.804 17.597 119.255 22.2904C119.632 23.5317 119.851 23.8877 120.924 24.9517C121.937 25.9584 122.396 26.253 123.449 26.589C124.309 26.8759 125.217 26.9905 126.12 26.9262C127.024 26.8619 127.907 26.62 128.717 26.2144C132.454 24.401 133.648 19.5877 131.282 16.0184C130.049 14.165 128.101 13.1984 125.596 13.1984Z" fill="white"/>
</g>
<defs>
<clipPath id="clip0_304_11">
<rect width="179" height="40" fill="white"/>
</clipPath>
</defs>
</svg>
