<svg width="238" height="48" viewBox="0 0 238 48" fill="none" xmlns="http://www.w3.org/2000/svg">
<g clip-path="url(#clip0_504_102)">
<mask id="mask0_504_102" style="mask-type:luminance" maskUnits="userSpaceOnUse" x="0" y="0" width="238" height="48">
<path d="M0.400002 0H237.4V48H0.400002V0Z" fill="white"/>
</mask>
<g mask="url(#mask0_504_102)">
<path d="M64.5 15.6001H67.1L74.3 32.4001H71L69.5 28.6001H62L60.5 32.4001H57.2L64.4 15.6001H64.5ZM68.3 26.0001L65.8 19.2001L63 26.0001H68.2H68.3ZM77.5 15.6001H81L85.5 28.3001L90.2 15.6001H93.4L86.7 32.4001H84L77.4 15.6001H77.5ZM104 15.6001H106.6L113.9 32.4001H110.5L108.9 28.6001H101.6L100.1 32.4001H96.8L104.1 15.6001H104ZM108 26.0001L105.4 19.2001L102.8 26.0001H108ZM120.4 15.6001H123.4V29.6001H130.5V32.4001H120.5V15.6001H120.4ZM142.8 15.6001H145.4L152.6 32.4001H149.2L147.7 28.6001H140.4L138.9 32.4001H135.6L142.8 15.6001ZM146.6 26.0001L144 19.2001L141.4 26.0001H146.6ZM159.2 15.6001H163.2L171.2 28.1001H171.3V15.6001H174.3V32.4001H170.5L162.2 19.5001V32.4001H159.2V15.6001ZM194.2 19.6001C193.716 19.001 193.1 18.5218 192.4 18.2001C191.097 17.7579 189.679 17.7933 188.4 18.3001C187.6 18.7001 187.1 19.1001 186.5 19.7001C185.985 20.2665 185.588 20.9293 185.33 21.6501C185.073 22.371 184.961 23.1356 185 23.9001C185 24.8001 185 25.6001 185.4 26.4001C185.78 27.4973 186.497 28.4461 187.449 29.1108C188.401 29.7754 189.539 30.1217 190.7 30.1001C191.4 30.1001 192 30.0001 192.7 29.6001C193.393 29.2232 194.004 28.7135 194.5 28.1001L196.9 29.8001C196.2 30.8001 195.2 31.6 194.2 32.1C191.943 32.9434 189.457 32.9434 187.2 32.1C186 31.8 185.2 31.1001 184.3 30.4001C183.53 29.6256 182.919 28.7085 182.5 27.7001C182.1 26.6001 181.8 25.4001 181.8 24.1001C181.8 22.7001 182.1 21.5001 182.5 20.4001C182.9 19.4001 183.5 18.4001 184.3 17.6001C185.106 16.8463 186.059 16.2675 187.1 15.9001C188.2 15.4001 189.4 15.2001 190.7 15.2001C191.763 15.1921 192.817 15.3961 193.8 15.8001C194.8 16.2001 195.8 16.9001 196.5 17.8001L194.2 19.6001ZM203.6 15.6001H206.6V22.3001H214.4V15.6001H217.4V32.4001H214.4V25.0001H206.6V32.4001H203.6V15.6001ZM225.9 15.6001H236.9V18.3001H228.9V22.5001H236.5V25.0001H229V29.6001H237.5V32.3001H226V15.6001H225.9Z" fill="white"/>
<path fill-rule="evenodd" clip-rule="evenodd" d="M24.5 48C30.8652 48 36.9697 45.4714 41.4706 40.9706C45.9714 36.4697 48.5 30.3652 48.5 24C48.5 17.6348 45.9714 11.5303 41.4706 7.02944C36.9697 2.52856 30.8652 0 24.5 0C18.1348 0 12.0303 2.52856 7.52944 7.02944C3.02856 11.5303 0.5 17.6348 0.5 24C0.5 30.3652 3.02856 36.4697 7.52944 40.9706C12.0303 45.4714 18.1348 48 24.5 48ZM17.2 34.9H11.6C10.2 34.9 9.6 34.9 9.2 34.6C8.7 34.3 8.5 33.9 8.4 33.4C8.4 32.9 8.7 32.3 9.4 31.1L21.7 9.5C22.4 8.4 22.7 7.8 23.2 7.5C23.6 7.3 24.2 7.3 24.6 7.5C25.1 7.8 25.4 8.4 26.1 9.5L28.9 14.5L29.8 16.2V17.7L28.9 19.5L21.5 32.4L20.5 34C20.1 34.3 19.6 34.6 19.1 34.7C18.7 34.9 18.2 34.9 17.2 34.9ZM37.2 34.9H30.8C29.4 34.9 28.8 34.9 28.3 34.6C27.9 34.3 27.6 33.9 27.6 33.3C27.6 32.9 27.9 32.3 28.6 31.1L31.9 25.5C32.5 24.4 32.9 23.8 33.3 23.5H34.7C35.2 23.8 35.5 24.4 36.2 25.5L39.4 31.1C40.1 32.3 40.4 32.9 40.4 33.3C40.4 33.9 40.1 34.3 39.7 34.6C39.3 34.9 38.7 34.9 37.3 34.9H37.2Z" fill="white"/>
</g>
</g>
<defs>
<clipPath id="clip0_504_102">
<rect width="238" height="48" fill="white"/>
</clipPath>
</defs>
</svg>
