<svg width="241" height="36" viewBox="0 0 241 36" fill="none" xmlns="http://www.w3.org/2000/svg">
<g clip-path="url(#clip0_506_290)">
<mask id="mask0_506_290" style="mask-type:luminance" maskUnits="userSpaceOnUse" x="0" y="0" width="241" height="36">
<path d="M240.279 0H0V36H240.279V0Z" fill="white"/>
</mask>
<g mask="url(#mask0_506_290)">
<path fill-rule="evenodd" clip-rule="evenodd" d="M12.9336 10.0595H17.9634C20.0461 10.0595 21.9406 10.8651 23.3524 12.1815C23.8554 12.6505 24.6555 12.7084 25.1417 12.2222L30.4111 6.95279C30.9458 6.4182 30.9739 5.55449 30.4296 5.02976C27.1992 1.91539 22.805 0 17.9634 0H2.87415C1.2868 0 0 1.2868 0 2.87415V33.0527C0 34.64 1.2868 35.9268 2.87415 35.9268H17.9634C23.0428 35.9268 27.6297 33.8187 30.8971 30.4296C31.5716 29.7301 31.5023 28.6282 30.8152 27.941L26.0591 23.1851C25.4244 22.5503 24.3575 22.6959 23.7453 23.3524C22.3025 24.8998 20.246 25.8673 17.9634 25.8673H12.9336C11.3463 25.8673 10.0595 24.5805 10.0595 22.9932V12.9336C10.0595 11.3463 11.3463 10.0595 12.9336 10.0595Z" fill="white" fill-opacity="0.8"/>
<path fill-rule="evenodd" clip-rule="evenodd" d="M16.8542 10.1059H12.9336C11.3464 10.1059 10.0595 11.3927 10.0595 12.98V23.0396C10.0595 24.6269 11.3464 25.9137 12.9336 25.9137H16.8542C14.1447 31.4346 8.68521 35.3612 2.2618 35.9078C0.968651 35.6271 0 34.4764 0 33.0991V2.92053C0 1.54328 0.968651 0.392495 2.2618 0.111816C8.68521 0.658438 14.1447 4.58495 16.8542 10.1059Z" fill="white" fill-opacity="0.6"/>
<path d="M33.7105 22.8793L36.7589 19.8308C37.8814 18.7084 37.8814 16.8886 36.7589 15.7662L33.7105 12.7177C32.588 11.5953 30.7682 11.5953 29.6458 12.7177L26.5973 15.7662C25.4749 16.8886 25.4749 18.7084 26.5973 19.8308L29.6458 22.8793C30.7682 24.0017 32.588 24.0017 33.7105 22.8793Z" fill="white"/>
<path d="M45.9762 30.0387L54.9392 9.73413H60.5955L69.5874 30.0387H63.6121L56.5925 12.5478H58.8551L51.8355 30.0387H45.9762ZM50.8783 26.0937L52.3576 21.8588H62.2778L63.7571 26.0937H50.8783Z" fill="white"/>
<path d="M73.794 30.0386L67.3257 14.3171H72.9819L78.145 27.457H75.3024L80.7266 14.3171H85.9764L79.4793 30.0386H73.794Z" fill="white"/>
<path d="M94.5235 30.2998C92.6674 30.2998 91.0432 29.9517 89.6509 29.2555C88.2779 28.54 87.2046 27.5732 86.431 26.3548C85.6767 25.1173 85.2999 23.7153 85.2999 22.149C85.2999 20.5826 85.6675 19.1903 86.4017 17.972C87.156 16.7345 88.1908 15.7772 89.5061 15.1004C90.8205 14.4043 92.2998 14.0562 93.9433 14.0562C95.4904 14.0562 96.902 14.3752 98.1787 15.0134C99.4546 15.6322 100.47 16.5507 101.224 17.769C101.979 18.9872 102.356 20.4666 102.356 22.207C102.356 22.4004 102.346 22.6227 102.326 22.8742C102.307 23.1255 102.288 23.3576 102.268 23.5703H89.825V20.6696H99.3391L97.2503 21.4818C97.2695 20.7663 97.1347 20.1475 96.8442 19.6254C96.5738 19.1033 96.187 18.6972 95.6838 18.4071C95.2008 18.117 94.6298 17.972 93.9726 17.972C93.3154 17.972 92.7352 18.117 92.232 18.4071C91.7489 18.6972 91.3714 19.113 91.101 19.6544C90.8305 20.1765 90.6949 20.7954 90.6949 21.5108V22.352C90.6949 23.1255 90.8498 23.7927 91.1587 24.3534C91.4877 24.9143 91.9516 25.3494 92.551 25.6587C93.1504 25.9488 93.8663 26.0938 94.6976 26.0938C95.4712 26.0938 96.1284 25.9875 96.6701 25.7747C97.231 25.5427 97.7819 25.1946 98.3236 24.7305L101.224 27.7472C100.47 28.5787 99.5417 29.2168 98.4399 29.6617C97.3373 30.087 96.0321 30.2998 94.5235 30.2998Z" fill="white"/>
<path d="M114.445 14.0562C115.663 14.0562 116.766 14.3076 117.752 14.8103C118.738 15.2938 119.512 16.048 120.073 17.0729C120.653 18.0977 120.942 19.4223 120.942 21.0467V30.0387H115.431V21.9459C115.431 20.8243 115.199 20.0122 114.735 19.5094C114.291 18.9872 113.662 18.7262 112.85 18.7262C112.27 18.7262 111.738 18.8616 111.254 19.1323C110.771 19.3837 110.394 19.7801 110.123 20.3216C109.853 20.863 109.717 21.5689 109.717 22.4391V30.0387H104.206V14.3172H109.456V18.7842L108.44 17.4789C109.041 16.3381 109.862 15.4872 110.906 14.9264C111.951 14.3463 113.13 14.0562 114.445 14.0562Z" fill="white"/>
<path d="M131.597 35.927C130.089 35.927 128.648 35.7529 127.275 35.4049C125.921 35.0568 124.761 34.5443 123.794 33.8675L125.796 30.0097C126.453 30.5318 127.265 30.9379 128.232 31.228C129.218 31.5373 130.176 31.6921 131.104 31.6921C132.593 31.6921 133.666 31.3633 134.324 30.7058C134.981 30.0677 135.31 29.1299 135.31 27.8922V26.0358L135.6 21.6269L135.571 17.1889V14.3172H140.821V27.1671C140.821 30.1451 140.018 32.3495 138.413 33.7806C136.808 35.2115 134.536 35.927 131.597 35.927ZM130.64 29.2266C129.248 29.2266 127.962 28.9171 126.782 28.2983C125.622 27.6601 124.684 26.7803 123.968 25.6587C123.272 24.5178 122.924 23.1739 122.924 21.6269C122.924 20.0799 123.272 18.7455 123.968 17.6239C124.684 16.4831 125.622 15.6032 126.782 14.9844C127.962 14.3656 129.248 14.0562 130.64 14.0562C131.974 14.0562 133.115 14.3269 134.062 14.8683C135.01 15.3905 135.726 16.2123 136.209 17.3339C136.712 18.4554 136.963 19.8865 136.963 21.6269C136.963 23.3673 136.712 24.7982 136.209 25.9198C135.726 27.0414 135.01 27.8729 134.062 28.4144C133.115 28.9558 131.974 29.2266 130.64 29.2266ZM131.945 24.8465C132.602 24.8465 133.182 24.7112 133.686 24.4405C134.208 24.1697 134.614 23.7927 134.904 23.3092C135.213 22.8258 135.368 22.265 135.368 21.6269C135.368 20.9887 135.213 20.4279 134.904 19.9445C134.614 19.461 134.208 19.0936 133.686 18.8422C133.182 18.5715 132.602 18.4362 131.945 18.4362C131.288 18.4362 130.698 18.5715 130.176 18.8422C129.654 19.0936 129.237 19.461 128.929 19.9445C128.638 20.4279 128.493 20.9887 128.493 21.6269C128.493 22.265 128.638 22.8258 128.929 23.3092C129.237 23.7927 129.654 24.1697 130.176 24.4405C130.698 24.7112 131.288 24.8465 131.945 24.8465Z" fill="white"/>
<path d="M151.909 30.2998C150.053 30.2998 148.429 29.9517 147.037 29.2555C145.664 28.54 144.59 27.5732 143.817 26.3548C143.062 25.1173 142.686 23.7153 142.686 22.149C142.686 20.5826 143.052 19.1903 143.787 17.972C144.542 16.7345 145.576 15.7772 146.891 15.1004C148.206 14.4043 149.685 14.0562 151.329 14.0562C152.876 14.0562 154.288 14.3752 155.564 15.0134C156.84 15.6322 157.856 16.5507 158.61 17.769C159.364 18.9872 159.741 20.4666 159.741 22.207C159.741 22.4004 159.731 22.6227 159.712 22.8742C159.693 23.1255 159.673 23.3576 159.654 23.5703H147.21V20.6696H156.725L154.636 21.4818C154.655 20.7663 154.52 20.1475 154.23 19.6254C153.959 19.1033 153.573 18.6972 153.069 18.4071C152.586 18.117 152.015 17.972 151.358 17.972C150.701 17.972 150.121 18.117 149.618 18.4071C149.135 18.6972 148.757 19.113 148.487 19.6544C148.216 20.1765 148.081 20.7954 148.081 21.5108V22.352C148.081 23.1255 148.235 23.7927 148.544 24.3534C148.873 24.9143 149.337 25.3494 149.937 25.6587C150.536 25.9488 151.252 26.0938 152.083 26.0938C152.857 26.0938 153.514 25.9875 154.056 25.7747C154.617 25.5427 155.167 25.1946 155.709 24.7305L158.61 27.7472C157.856 28.5787 156.927 29.2168 155.825 29.6617C154.723 30.087 153.418 30.2998 151.909 30.2998Z" fill="white"/>
<path d="M161.591 30.0387V14.3172H166.842V18.9003L166.058 17.595C166.523 16.4153 167.277 15.5355 168.321 14.9554C169.365 14.3559 170.632 14.0562 172.121 14.0562V19.0163C171.869 18.9776 171.647 18.9583 171.454 18.9583C171.28 18.9389 171.086 18.9292 170.874 18.9292C169.752 18.9292 168.843 19.2387 168.147 19.8574C167.451 20.457 167.103 21.4431 167.103 22.8161V30.0387H161.591Z" fill="white"/>
<path d="M173.937 30.0387V9.73413H183.538C185.781 9.73413 187.753 10.1499 189.455 10.9814C191.157 11.813 192.482 12.9829 193.43 14.4912C194.396 15.9995 194.88 17.7979 194.88 19.8864C194.88 21.9555 194.396 23.7539 193.43 25.2816C192.482 26.7899 191.157 27.9599 189.455 28.7914C187.753 29.6229 185.781 30.0387 183.538 30.0387H173.937ZM179.68 25.4556H183.306C184.466 25.4556 185.472 25.2429 186.323 24.8175C187.193 24.3727 187.87 23.7346 188.353 22.903C188.837 22.0522 189.079 21.0466 189.079 19.8864C189.079 18.7068 188.837 17.7012 188.353 16.8697C187.87 16.0382 187.193 15.4098 186.323 14.9843C185.472 14.5396 184.466 14.3171 183.306 14.3171H179.68V25.4556Z" fill="white"/>
<path d="M194.491 30.0387L203.454 9.73413H209.11L218.102 30.0387H212.127L205.107 12.5478H207.37L200.35 30.0387H194.491ZM199.393 26.0937L200.872 21.8588H210.793L212.272 26.0937H199.393Z" fill="white"/>
<path d="M228.996 30.4447C227.371 30.4447 225.872 30.1836 224.499 29.6616C223.126 29.1394 221.927 28.4046 220.903 27.457C219.897 26.4901 219.114 25.3686 218.554 24.0923C217.993 22.816 217.712 21.414 217.712 19.8864C217.712 18.3587 217.993 16.9567 218.554 15.6804C219.114 14.4042 219.897 13.2923 220.903 12.3447C221.927 11.3778 223.126 10.6333 224.499 10.1112C225.872 9.58913 227.371 9.328 228.996 9.328C230.64 9.328 232.138 9.58913 233.492 10.1112C234.865 10.6333 236.054 11.3778 237.059 12.3447C238.065 13.2923 238.848 14.4042 239.409 15.6804C239.989 16.9567 240.279 18.3587 240.279 19.8864C240.279 21.414 239.989 22.8257 239.409 24.1213C238.848 25.3976 238.065 26.5095 237.059 27.457C236.054 28.4046 234.865 29.1394 233.492 29.6616C232.138 30.1836 230.64 30.4447 228.996 30.4447ZM228.996 25.6877C229.769 25.6877 230.485 25.5523 231.142 25.2815C231.819 25.0109 232.399 24.6241 232.882 24.1213C233.386 23.5992 233.772 22.9804 234.043 22.2649C234.333 21.5494 234.478 20.7566 234.478 19.8864C234.478 18.9969 234.333 18.204 234.043 17.5079C233.772 16.7923 233.386 16.1832 232.882 15.6804C232.399 15.1583 231.819 14.7619 231.142 14.4912C230.485 14.2205 229.769 14.0851 228.996 14.0851C228.222 14.0851 227.497 14.2205 226.82 14.4912C226.163 14.7619 225.583 15.1583 225.08 15.6804C224.597 16.1832 224.21 16.7923 223.919 17.5079C223.649 18.204 223.513 18.9969 223.513 19.8864C223.513 20.7566 223.649 21.5494 223.919 22.2649C224.21 22.9804 224.597 23.5992 225.08 24.1213C225.583 24.6241 226.163 25.0109 226.82 25.2815C227.497 25.5523 228.222 25.6877 228.996 25.6877Z" fill="white"/>
</g>
</g>
<defs>
<clipPath id="clip0_506_290">
<rect width="241" height="36" fill="white"/>
</clipPath>
</defs>
</svg>
