<svg width="204" height="37" viewBox="0 0 204 37" fill="none" xmlns="http://www.w3.org/2000/svg">
<g clip-path="url(#clip0_543_15)">
<path d="M29.3433 32.2766H48.906V27.1373H35.2727V20.8321H46.5689V15.6928H35.2727V9.86262H48.9926V4.72339H29.3433V32.2766ZM72.4505 22.0845L59.6396 4.72339H50.8104L53.5803 8.22152V32.3629H59.4664V14.2677L72.7102 32.2766H78.3799V4.72339H72.4505V22.0845ZM20.4276 18.1113C23.0244 17.6362 25.1884 15.2178 25.1884 11.806C25.1884 8.13515 22.505 4.72339 17.1816 4.72339H0.0425415L2.72592 8.13515V32.3198H17.7875C23.111 32.3198 25.8809 28.9944 25.8809 24.8484C25.7511 21.4367 23.4139 18.5 20.4276 18.1113ZM8.61205 9.90581H16.013C18.0039 9.90581 19.259 11.0719 19.259 12.7993C19.259 14.5268 18.0039 15.6928 16.013 15.6928H8.61205V9.90581ZM16.2727 27.1805H8.61205V20.8321H16.2727C18.5232 20.8321 19.7784 22.2572 19.7784 23.9847C19.7784 25.9713 18.4367 27.1373 16.2727 27.1805ZM164.854 22.0845H167.927V25.3235C166.326 26.6191 164.335 27.3533 162.257 27.3965C157.323 27.3965 153.861 23.6392 153.861 18.5864C153.861 13.5335 157.367 9.77625 162.257 9.77625C164.811 9.77625 167.191 11.115 168.576 13.2744L173.25 10.6832C171.26 7.53053 167.754 4.72339 162.214 4.72339C154.38 4.72339 147.888 10.1217 147.888 18.5C147.888 26.8782 154.294 32.2766 162.214 32.2766C166.542 32.3629 170.654 30.5059 173.51 27.3101V17.118H160.872L164.854 22.0845ZM138.237 22.0845L125.382 4.72339H116.596L119.323 8.22152V32.3629H125.253V14.2677L138.496 32.2766H144.123V4.72339H138.237V22.0845ZM193.073 4.72339H181.69L184.417 8.22152L183.941 9.56031L175.111 32.3629H181.777L183.508 27.6988H195.41L197.141 32.3629H203.806L193.073 4.72339ZM185.023 22.5164L189.351 10.64L193.679 22.5164H185.023ZM107.248 4.72339H113.177V32.4061H107.248V4.72339ZM102.53 9.47394V4.72339H81.7125V9.86262H94.7832L81.7125 27.5692V32.2766H102.747V27.1373H89.3731L102.53 9.47394Z" fill="#DEE5FF"/>
</g>
<defs>
<clipPath id="clip0_543_15">
<rect width="203.894" height="37" fill="white" transform="translate(0.0425415)"/>
</clipPath>
</defs>
</svg>
