<svg width="228" height="40" viewBox="0 0 228 40" fill="none" xmlns="http://www.w3.org/2000/svg">
<g clip-path="url(#clip0_504_166)">
<mask id="mask0_504_166" style="mask-type:luminance" maskUnits="userSpaceOnUse" x="0" y="0" width="228" height="40">
<path d="M0 0H227.8V40H0V0Z" fill="white"/>
</mask>
<g mask="url(#mask0_504_166)">
<path d="M6.8 6.1L17.4 0L28 6.1L24 8.4L17.4 4.5L10.7 8.4L6.7 6.1H6.8ZM28 14L24 11.7L17.4 15.6L10.7 11.6L6.7 14V18.5L13.5 22.3V30L17.4 32.2L21.3 30V22.2L28 18.4V13.9V14ZM28 26V21.5L24 23.7V28.3L28 26ZM30.8 27.6L24 31.6V36L34.7 30V17.7L30.7 20V27.7L30.8 27.6ZM26.8 9.9L30.8 12.2V16.7L34.7 14.4V10L30.7 7.7L27 10L26.8 9.9ZM13.6 33.2V37.7L17.5 40L21.4 37.7V33.2L17.4 35.5L13.6 33.2ZM6.9 26.2L10.8 28.4V23.8L6.8 21.6V26L6.9 26.2ZM13.5 10L17.4 12.3L21.3 10L17.3 7.7L13.5 10ZM4 12.3L7.9 10L3.9 7.7L0.2 10V14.5L4 16.8V12.3ZM4 20L0 17.7V30L10.8 36V31.5L4 27.7V20ZM65.4 25.1C65.4 22.1 63.8 20.6 61.3 19.6C62.1916 19.1607 62.9386 18.4751 63.4525 17.6244C63.9665 16.7737 64.2259 15.7936 64.2 14.8V14.7C64.2 11.2 61.4 8.9 56.8 8.9H46.5V31.2H57.1C62.1 31.2 65.4 29.2 65.4 25.1ZM59.4 15.6C59.4 17.2 58 17.9 55.8 17.9H51.3V13.2H56C58 13.2 59.2 14.1 59.2 15.5L59.4 15.6ZM60.6 24.5C60.6 26.2 59.3 26.9 57.1 26.9H51.3V22H56.9C59.5 22 60.6 23 60.6 24.4V24.5ZM89.6 31.2V9H84.7V22.8L74.3 8.9H69.8V31.2H74.6V17.1L85.4 31.2H89.6ZM114.1 25.1C114.1 22.1 112.6 20.6 110 19.6C110.892 19.1607 111.639 18.4751 112.153 17.6244C112.666 16.7737 112.926 15.7936 112.9 14.8V14.7C112.9 11.2 110.1 8.9 105.6 8.9H95.2V31.2H105.8C110.8 31.2 114.1 29.2 114.1 25.1ZM108.1 15.6C108.1 17.2 106.7 17.9 104.5 17.9H100V13.2H104.8C106.8 13.2 108 14.1 108 15.5L108.1 15.6ZM109.3 24.5C109.3 26.2 108 26.9 105.8 26.9H100V22H105.6C108.2 22 109.3 23 109.3 24.4V24.5ZM143.7 27.3L141.1 24.7C140.314 25.6078 139.348 26.343 138.264 26.8593C137.18 27.3756 136 27.6618 134.8 27.7C133.78 27.6887 132.773 27.4694 131.841 27.0556C130.908 26.6418 130.07 26.0421 129.378 25.2933C128.685 24.5445 128.152 23.6622 127.812 22.7005C127.472 21.7388 127.332 20.7178 127.4 19.7C127.327 18.4012 127.592 17.1057 128.171 15.9407C128.75 14.7757 129.622 13.7812 130.701 13.055C131.78 12.3288 133.03 11.8958 134.327 11.7984C135.624 11.7011 136.924 11.9429 138.1 12.5C139.2 13 140.1 13.7 141 14.5L143.5 11.7C142.373 10.5432 141.018 9.63435 139.519 9.03166C138.021 8.42898 136.414 8.14571 134.8 8.2C133.282 8.17289 131.775 8.45183 130.367 9.02016C128.96 9.58849 127.681 10.4346 126.608 11.5079C125.535 12.5812 124.688 13.8598 124.12 15.2673C123.552 16.6748 123.273 18.1823 123.3 19.7C123.26 21.2043 123.523 22.7013 124.074 24.1017C124.625 25.502 125.452 26.7769 126.507 27.8503C127.562 28.9237 128.822 29.7735 130.213 30.349C131.603 30.9246 133.095 31.214 134.6 31.2C136.303 31.2414 137.993 30.904 139.55 30.2122C141.106 29.5205 142.49 28.4916 143.6 27.2L143.7 27.3ZM162.6 21.5V30.8H166.6V8.6H162.6V17.8H152V8.6H148V30.8H152V21.5H162.6ZM184 8.4H180.5L170.7 30.8H174.7L177 25.5H187.5L189.7 30.8H193.9L184 8.4ZM186 22H178.4L182.2 13L186 22ZM198.2 8.6V30.8H202.2V8.6H198.2ZM224 24L212 8.6H208.4V30.8H212.3V15L224.5 30.8H227.8V8.6H224V24Z" fill="white"/>
</g>
</g>
<defs>
<clipPath id="clip0_504_166">
<rect width="228" height="40" fill="white"/>
</clipPath>
</defs>
</svg>
