<svg width="149" height="44" viewBox="0 0 149 44" fill="none" xmlns="http://www.w3.org/2000/svg">
<g clip-path="url(#clip0_504_2)">
<path d="M113.37 38.85L117.37 37.59V4.63L113.37 5.89V38.85ZM67.4 18.85C68.605 18.8384 69.7972 19.0984 70.8879 19.6109C71.9785 20.1233 72.9397 20.875 73.7 21.81L75.33 18.07C73.18 16.04 70.37 15.07 67.4 15.07C65.8877 15.0433 64.3853 15.3192 62.9811 15.8814C61.5769 16.4436 60.2993 17.2808 59.2232 18.3438C58.1472 19.4068 57.2945 20.6741 56.7152 22.0713C56.1359 23.4686 55.8418 24.9675 55.85 26.48C55.89 32.96 61 38.26 67.4 38.26C70.66 38.26 73.1 37.3 74.96 35.93V31.3C73.0335 33.2116 70.4527 34.3197 67.74 34.4C64.04 34.4 59.84 31.4 59.84 26.44C59.84 21.85 63.44 18.85 67.4 18.85ZM93.92 15.04C87.07 15.04 83.07 20.44 83.07 26.44C83.07 32.93 88.22 38.22 94.63 38.22C97.89 38.22 100.33 37.26 102.18 35.89V31.29C100.257 33.2089 97.6755 34.3243 94.96 34.41C91.66 34.41 88.07 32.37 87.33 28.07H104.81V26.56C104.74 20.15 100.55 15.04 93.92 15.04ZM136.96 15.04C135.41 14.9938 133.867 15.2591 132.421 15.8202C130.975 16.3813 129.657 17.2268 128.544 18.3065C127.431 19.3863 126.546 20.6785 125.942 22.1064C125.337 23.5344 125.025 25.0692 125.025 26.6199C125.024 28.1705 125.334 29.7056 125.938 31.1341C126.541 32.5626 127.425 33.8555 128.537 34.9362C129.649 36.017 130.966 36.8636 132.412 37.4259C133.857 37.9882 135.4 38.2549 136.95 38.21C139.964 38.1215 142.824 36.8621 144.924 34.6991C147.025 32.5362 148.2 29.6399 148.2 26.625C148.2 23.6101 147.025 20.7138 144.924 18.5509C142.824 16.3879 139.964 15.1286 136.95 15.04H136.96ZM93.96 18.85C97.07 18.85 100.36 20.81 100.63 24.55H87.29C87.55 20.78 90.85 18.85 93.96 18.85ZM136.96 34.41C135.938 34.41 134.927 34.2088 133.983 33.8178C133.039 33.4268 132.181 32.8537 131.459 32.1313C130.736 31.4089 130.163 30.5512 129.772 29.6073C129.381 28.6634 129.18 27.6517 129.18 26.63C129.18 25.6083 129.381 24.5966 129.772 23.6527C130.163 22.7088 130.736 21.8512 131.459 21.1287C132.181 20.4063 133.039 19.8332 133.983 19.4422C134.927 19.0512 135.938 18.85 136.96 18.85C139.023 18.85 141.002 19.6697 142.461 21.1287C143.92 22.5877 144.74 24.5666 144.74 26.63C144.74 28.6934 143.92 30.6723 142.461 32.1313C141.002 33.5903 139.023 34.41 136.96 34.41Z" fill="white"/>
<path d="M26.89 30.11C30.2689 30.11 33.5093 28.7678 35.8985 26.3785C38.2878 23.9893 39.63 20.7489 39.63 17.37C39.63 13.9911 38.2878 10.7507 35.8985 8.36146C33.5093 5.97225 30.2689 4.63 26.89 4.63C23.5111 4.63 20.2707 5.97225 17.8815 8.36146C15.4923 10.7507 14.15 13.9911 14.15 17.37C14.15 20.7489 15.4923 23.9893 17.8815 26.3785C20.2707 28.7678 23.5111 30.11 26.89 30.11ZM26.89 34.74C24.6089 34.74 22.3502 34.2907 20.2428 33.4178C18.1354 32.5449 16.2205 31.2654 14.6076 29.6524C12.9946 28.0395 11.7151 26.1246 10.8422 24.0172C9.96929 21.9098 9.52 19.6511 9.52 17.37C9.52 15.0889 9.96929 12.8302 10.8422 10.7228C11.7151 8.61536 12.9946 6.70051 14.6076 5.08755C16.2205 3.4746 18.1354 2.19514 20.2428 1.32221C22.3502 0.449288 24.6089 -3.39905e-08 26.89 0C31.4968 6.86468e-08 35.9149 1.83005 39.1724 5.08756C42.43 8.34506 44.26 12.7632 44.26 17.37C44.26 21.9768 42.43 26.3949 39.1724 29.6524C35.9149 32.91 31.4968 34.74 26.89 34.74Z" fill="white" fill-opacity="0.6"/>
<path d="M17.63 39.37C21.0089 39.37 24.2493 38.0278 26.6385 35.6386C29.0277 33.2493 30.37 30.0089 30.37 26.63C30.37 23.2512 29.0277 20.0107 26.6385 17.6215C24.2493 15.2323 21.0089 13.89 17.63 13.89C14.2511 13.89 11.0107 15.2323 8.62145 17.6215C6.23224 20.0107 4.88999 23.2512 4.88999 26.63C4.88999 30.0089 6.23224 33.2493 8.62145 35.6386C11.0107 38.0278 14.2511 39.37 17.63 39.37ZM17.63 44C13.0232 44 8.60506 42.17 5.34755 38.9125C2.09004 35.6549 0.259995 31.2368 0.259995 26.63C0.259995 22.0232 2.09004 17.6051 5.34755 14.3476C8.60506 11.0901 13.0232 9.26001 17.63 9.26001C22.2368 9.26001 26.6549 11.0901 29.9124 14.3476C33.1699 17.6051 35 22.0232 35 26.63C35 31.2368 33.1699 35.6549 29.9124 38.9125C26.6549 42.17 22.2368 44 17.63 44Z" fill="white" fill-opacity="0.8"/>
<path d="M27.44 34.74C28.6532 33.2892 29.5156 31.5782 29.96 29.74C31.7955 29.2882 33.5049 28.4267 34.96 27.22C34.8901 29.3462 34.4397 31.4427 33.63 33.41C31.6638 34.2232 29.5667 34.6738 27.44 34.74ZM14.52 14.26C12.6845 14.7118 10.9751 15.5733 9.52 16.78C9.59 14.67 10.03 12.56 10.85 10.59C12.8073 9.75961 14.9044 9.30829 17.03 9.26001C15.848 10.7297 14.9924 12.4341 14.52 14.26Z" fill="white" fill-opacity="0.66"/>
</g>
<defs>
<clipPath id="clip0_504_2">
<rect width="149" height="44" fill="white"/>
</clipPath>
</defs>
</svg>
