<svg width="192" height="48" viewBox="0 0 192 48" fill="none" xmlns="http://www.w3.org/2000/svg">
<g clip-path="url(#clip0_504_144)">
<mask id="mask0_504_144" style="mask-type:luminance" maskUnits="userSpaceOnUse" x="0" y="0" width="192" height="48">
<path d="M191.574 0H0V48H191.574V0Z" fill="white"/>
</mask>
<g mask="url(#mask0_504_144)">
<path d="M54.3148 27.6187C54.312 27.7855 54.2433 27.9445 54.1236 28.0608C54.004 28.1772 53.8431 28.2414 53.6763 28.2395H41.9157C42.2173 31.1486 44.3991 33.8093 47.4856 33.8093C49.5964 33.8093 51.1574 33.0111 52.3281 31.326C52.3826 31.2374 52.4581 31.1636 52.5477 31.1111C52.6374 31.0585 52.7387 31.0287 52.8425 31.0244C52.92 31.0222 52.9971 31.0358 53.0691 31.0645C53.1412 31.0931 53.2066 31.1362 53.2614 31.191C53.3162 31.2458 53.3592 31.3112 53.3878 31.3832C53.4165 31.4552 53.4301 31.5323 53.4279 31.6098C53.4283 31.7168 53.3975 31.8216 53.3392 31.9113C52.1508 33.969 49.7916 34.9801 47.4856 34.9801C43.5299 34.9801 40.6918 31.4324 40.6918 27.6541C40.6918 23.8759 43.5122 20.3282 47.4856 20.3282C51.459 20.3282 54.2971 23.8404 54.3148 27.6187ZM53.0554 27.0688C52.8071 24.1597 50.572 21.4989 47.4856 21.4989C44.3991 21.4989 42.2173 24.1597 41.9157 27.0688H53.0554Z" fill="white"/>
<path d="M68.6119 20.6119C68.7658 20.6164 68.9121 20.6795 69.0209 20.7883C69.1297 20.8972 69.1928 21.0435 69.1973 21.1973C69.1995 21.2748 69.1859 21.3519 69.1572 21.4239C69.1286 21.4959 69.0856 21.5613 69.0308 21.6161C68.976 21.6709 68.9105 21.714 68.8385 21.7426C68.7665 21.7712 68.6894 21.7849 68.6119 21.7827H65.4545V34.1818C65.4531 34.3366 65.391 34.4847 65.2815 34.5942C65.172 34.7036 65.024 34.7658 64.8691 34.7672C64.7153 34.7627 64.569 34.6996 64.4602 34.5908C64.3513 34.4819 64.2882 34.3356 64.2838 34.1818V21.7827H61.2505C61.173 21.7849 61.0959 21.7712 61.0239 21.7426C60.9519 21.714 60.8865 21.6709 60.8317 21.6161C60.7769 21.5613 60.7339 21.4959 60.7052 21.4239C60.6766 21.3519 60.6629 21.2748 60.6651 21.1973C60.6665 21.0425 60.7287 20.8944 60.8381 20.7849C60.9476 20.6754 61.0957 20.6133 61.2505 20.6119H64.2838V16.0887C64.2841 15.9388 64.3378 15.7939 64.4354 15.6801C64.5329 15.5663 64.6678 15.491 64.8159 15.4678C64.8987 15.4568 64.9829 15.4638 65.0627 15.4884C65.1425 15.5129 65.2161 15.5544 65.2784 15.6099C65.3407 15.6655 65.3903 15.7339 65.4237 15.8104C65.4572 15.8869 65.4737 15.9697 65.4722 16.0532V20.6119H68.6119Z" fill="white"/>
<path d="M87.8581 26.6075V34.1108C87.8536 34.2646 87.7905 34.4109 87.6817 34.5198C87.5729 34.6286 87.4265 34.6917 87.2727 34.6962C87.1952 34.6984 87.1181 34.6847 87.0461 34.6561C86.9741 34.6274 86.9087 34.5844 86.8539 34.5296C86.7991 34.4748 86.756 34.4094 86.7274 34.3374C86.6988 34.2654 86.6851 34.1883 86.6873 34.1108V26.6075C86.6873 24.0709 85.2505 21.552 82.4301 21.552C78.8115 21.552 77.2505 24.7095 77.4634 27.9556C77.4634 28.0443 77.4989 28.4168 77.4989 28.47V34.093C77.4986 34.2429 77.4448 34.3878 77.3473 34.5016C77.2497 34.6154 77.1148 34.6907 76.9667 34.7139C76.8839 34.7249 76.7998 34.7179 76.72 34.6934C76.6401 34.6688 76.5666 34.6274 76.5043 34.5718C76.4419 34.5162 76.3924 34.4478 76.3589 34.3713C76.3255 34.2948 76.3089 34.212 76.3104 34.1285V9.45451C76.3118 9.29969 76.3739 9.1516 76.4834 9.04213C76.5929 8.93265 76.7409 8.87053 76.8958 8.86914C77.0496 8.8736 77.1959 8.93671 77.3047 9.04553C77.4136 9.15436 77.4767 9.30067 77.4811 9.45451V23.3968C78.4922 21.5875 80.3015 20.3636 82.4124 20.3636C85.8891 20.3636 87.8581 23.3968 87.8581 26.6075Z" fill="white"/>
<path d="M108.985 27.6187C108.982 27.7855 108.913 27.9445 108.793 28.0608C108.674 28.1772 108.513 28.2414 108.346 28.2395H96.5854C96.887 31.1486 99.0688 33.8093 102.155 33.8093C104.266 33.8093 105.827 33.0111 106.998 31.326C107.052 31.2374 107.128 31.1636 107.217 31.1111C107.307 31.0585 107.408 31.0287 107.512 31.0244C107.59 31.0222 107.667 31.0358 107.739 31.0645C107.811 31.0931 107.876 31.1362 107.931 31.191C107.986 31.2458 108.029 31.3112 108.058 31.3832C108.086 31.4552 108.1 31.5323 108.098 31.6098C108.098 31.7168 108.067 31.8216 108.009 31.9113C106.82 33.969 104.461 34.9801 102.155 34.9801C98.1996 34.9801 95.3615 31.4324 95.3615 27.6541C95.3615 23.8759 98.1819 20.3282 102.155 20.3282C106.093 20.3282 108.967 23.8404 108.985 27.6187ZM107.707 27.0688C107.459 24.1597 105.224 21.4989 102.138 21.4989C99.051 21.4989 96.8692 24.1597 96.5677 27.0688H107.707Z" fill="white"/>
<path d="M123.441 21.162C123.453 21.3195 123.401 21.475 123.298 21.5947C123.195 21.7143 123.049 21.7883 122.891 21.8006C119.432 22.315 117.871 25.1354 117.871 28.417V34.04C117.871 34.1899 117.817 34.3348 117.72 34.4486C117.622 34.5624 117.487 34.6377 117.339 34.6609C117.257 34.6719 117.172 34.6649 117.093 34.6403C117.013 34.6158 116.939 34.5743 116.877 34.5188C116.815 34.4632 116.765 34.3948 116.731 34.3183C116.698 34.2418 116.681 34.159 116.683 34.0755V21.2507C116.683 21.1008 116.737 20.9559 116.835 20.8421C116.932 20.7283 117.067 20.6531 117.215 20.6298C117.298 20.6188 117.382 20.6259 117.462 20.6504C117.542 20.6749 117.615 20.7164 117.678 20.7719C117.74 20.8275 117.789 20.8959 117.823 20.9724C117.856 21.0489 117.873 21.1317 117.871 21.2152V23.8227C118.847 22.1731 120.781 20.6121 122.803 20.6121C123.104 20.6121 123.441 20.825 123.441 21.162Z" fill="white"/>
<path d="M142.776 27.6187C142.773 27.7855 142.704 27.9445 142.585 28.0608C142.465 28.1772 142.304 28.2414 142.137 28.2395H130.377C130.678 31.1486 132.86 33.8093 135.947 33.8093C138.058 33.8093 139.619 33.0111 140.789 31.326C140.844 31.2374 140.919 31.1636 141.009 31.1111C141.099 31.0585 141.2 31.0287 141.304 31.0244C141.381 31.0222 141.458 31.0358 141.53 31.0645C141.602 31.0931 141.668 31.1362 141.723 31.191C141.777 31.2458 141.82 31.3112 141.849 31.3832C141.878 31.4552 141.891 31.5323 141.889 31.6098C141.89 31.7168 141.859 31.8216 141.8 31.9113C140.612 33.969 138.253 34.9801 135.947 34.9801C131.991 34.9801 129.153 31.4324 129.153 27.6541C129.153 23.8759 131.973 20.3282 135.947 20.3282C139.92 20.3282 142.758 23.8404 142.776 27.6187ZM141.517 27.0688C141.268 24.1597 139.033 21.4989 135.947 21.4989C132.86 21.4989 130.678 24.1597 130.377 27.0688H141.517Z" fill="white"/>
<path d="M161.792 21.3037V34.1818C161.787 34.3356 161.724 34.4819 161.615 34.5908C161.506 34.6996 161.36 34.7627 161.206 34.7672C161.129 34.7694 161.052 34.7557 160.98 34.7271C160.908 34.6985 160.842 34.6554 160.787 34.6006C160.733 34.5458 160.69 34.4804 160.661 34.4084C160.632 34.3364 160.619 34.2593 160.621 34.1818V31.7339C159.645 33.6674 157.925 35.0687 155.725 35.0687C152.231 35.0687 150.297 32.0355 150.297 28.8248V21.286C150.299 21.1312 150.361 20.9831 150.47 20.8736C150.58 20.7642 150.728 20.702 150.882 20.7006C151.036 20.7051 151.183 20.7682 151.291 20.877C151.4 20.9859 151.463 21.1322 151.468 21.286V28.8248C151.468 31.3614 152.905 33.8802 155.725 33.8802C159.681 33.8802 160.621 30.1729 160.621 26.0754V21.2683C160.622 21.1734 160.646 21.0802 160.691 20.9965C160.736 20.9128 160.8 20.841 160.878 20.7871C160.956 20.7333 161.046 20.6989 161.14 20.687C161.234 20.675 161.33 20.6858 161.419 20.7184C161.531 20.7702 161.625 20.8529 161.691 20.9566C161.757 21.0603 161.792 21.1808 161.792 21.3037Z" fill="white"/>
<path d="M191.574 26.5543V34.0931C191.57 34.247 191.507 34.3933 191.398 34.5021C191.289 34.6109 191.143 34.674 190.989 34.6785C190.911 34.6807 190.834 34.6671 190.762 34.6384C190.69 34.6098 190.625 34.5668 190.57 34.512C190.515 34.4572 190.472 34.3917 190.444 34.3197C190.415 34.2477 190.401 34.1706 190.404 34.0931V26.5543C190.404 24.0177 188.967 21.5344 186.146 21.5344C182.599 21.5344 181.251 25.3304 181.251 28.275V34.0931C181.246 34.247 181.183 34.3933 181.074 34.5021C180.965 34.6109 180.819 34.674 180.665 34.6785C180.588 34.6807 180.511 34.6671 180.439 34.6384C180.367 34.6098 180.301 34.5668 180.246 34.512C180.192 34.4572 180.148 34.3917 180.12 34.3197C180.091 34.2477 180.078 34.1706 180.08 34.0931V26.5543C180.08 24.0177 178.643 21.5344 175.823 21.5344C172.239 21.5344 170.767 24.3548 170.891 28.1153C170.891 28.204 170.927 28.3636 170.891 28.4169V34.0754C170.891 34.2253 170.837 34.3701 170.74 34.4839C170.642 34.5977 170.507 34.673 170.359 34.6962C170.276 34.7072 170.192 34.7002 170.112 34.6757C170.033 34.6512 169.959 34.6097 169.897 34.5541C169.834 34.4986 169.785 34.4302 169.751 34.3537C169.718 34.2772 169.701 34.1944 169.703 34.1109V21.2506C169.703 21.1007 169.757 20.9558 169.854 20.842C169.952 20.7282 170.087 20.6529 170.235 20.6297C170.318 20.6187 170.402 20.6257 170.482 20.6503C170.562 20.6748 170.635 20.7163 170.697 20.7718C170.76 20.8274 170.809 20.8958 170.843 20.9723C170.876 21.0488 170.893 21.1316 170.891 21.2151V23.3614C171.902 21.5521 173.712 20.3636 175.823 20.3636C178.217 20.3636 180.08 21.8891 180.843 24.1064C181.818 21.9069 183.716 20.3636 186.146 20.3636C189.605 20.3636 191.574 23.3614 191.574 26.5543Z" fill="white"/>
<path opacity="0.6" d="M14.7228 17.7561L0 24.4435L14.7228 33.153L29.4634 24.4435L14.7228 17.7561Z" fill="white"/>
<path opacity="0.45" d="M0 24.4435L14.7228 33.153V0L0 24.4435Z" fill="white"/>
<path opacity="0.8" d="M14.7228 0V33.153L29.4634 24.4435L14.7228 0Z" fill="white"/>
<path opacity="0.45" d="M0 27.2461L14.7228 48V35.9379L0 27.2461Z" fill="white"/>
<path opacity="0.8" d="M14.7228 35.9379V48L29.4634 27.2461L14.7228 35.9379Z" fill="white"/>
</g>
</g>
<defs>
<clipPath id="clip0_504_144">
<rect width="192" height="48" fill="white"/>
</clipPath>
</defs>
</svg>
