<svg width="171" height="44" viewBox="0 0 171 44" fill="none" xmlns="http://www.w3.org/2000/svg">
<g clip-path="url(#clip0_304_16)">
<mask id="mask0_304_16" style="mask-type:luminance" maskUnits="userSpaceOnUse" x="0" y="0" width="171" height="44">
<path d="M0.799988 0H170.3V44H0.799988V0Z" fill="white"/>
</mask>
<g mask="url(#mask0_304_16)">
<path d="M16.3 0.400024C17.3 -0.0999756 18.9 -0.0999756 20 0.400024L31 6.20002C31.6 6.50002 32 7.00002 32 7.50002V36.4C32 37 31.6 37.5 31 37.9L20 43.6C19.4288 43.898 18.7942 44.0535 18.15 44.0535C17.5058 44.0535 16.8711 43.898 16.3 43.6L5.29999 38C4.69999 37.6 4.29999 37 4.29999 36.5V7.50002C4.29999 7.00002 4.69999 6.50002 5.29999 6.20002L16.3 0.400024ZM30.3 23.6L20 29C19 29.6 17.3 29.6 16.2 29L5.99999 23.6V36.3L16.3 41.6C16.8185 41.9364 17.3949 42.1738 18 42.3H18.1C18.7 42.3 19.3 42 19.9 41.7L30.3 36.2V23.6ZM2.49999 35.7C2.49999 36.8 2.59999 37.5 2.89999 38.1C3.09999 38.5 3.39999 38.8 3.89999 39.1L3.99999 39.2C4.19999 39.2 4.29999 39.4 4.49999 39.5L4.69999 39.6L5.29999 40L4.39999 41.5L3.69999 41.1L3.09999 40.7C1.39999 39.5 0.799988 38.3 0.799988 35.7H2.49999ZM17.3 16H17L6.09999 21.8L17.1 27.6L17.3 27.7V15.9V16ZM19 16V27.7L19.2 27.6L30 21.7L19.2 16L19 15.9V16ZM30.3 9.70002L20.5 14.8L30.3 20V9.60003V9.70002ZM5.99999 9.60003V19.9L15.8 14.7L5.99999 9.60003ZM19.2 1.90002C18.6 1.60002 17.6 1.60002 17 1.90002L6.09999 7.70002L17.1 13.4C17.6 13.7 18.6 13.7 19.1 13.4L30.1 7.70002L19.2 1.90002ZM31.9 2.60002L32.6 3.00002L33.2 3.40002C34.9 4.50002 35.5 5.70003 35.5 8.30002H33.8C33.8 7.30002 33.6 6.50002 33.4 6.00002C33.2 5.60002 32.9 5.20002 32.4 4.80002H32.3C32.1 4.80002 32 4.60002 31.8 4.50002L31.6 4.40002L31 4.00002L31.9 2.60002ZM53 35.1V19.1H57.4V16.1H53V14.1C53 11.6 54 10.4 56.1 10.4C56.7 10.4 57.3 10.6 58.1 10.8V7.60002C57.2 7.40002 56.3 7.30002 55.3 7.30002C54.4803 7.24443 53.658 7.35776 52.8839 7.63298C52.1099 7.90821 51.4006 8.33946 50.8 8.90002C49.7 10 49.2 11.6 49.2 13.7V16.2H45.5V19.2H49.2V35.2H53V35.1ZM68.4 35.4C69.7552 35.4353 71.0972 35.1256 72.3 34.5C73.3 33.9 74.3 33 74.8 31.9V35.1H78.5V16.1H74.8V19.2C74.2 18.1 73.4 17.2 72.3 16.6C71.1065 15.9397 69.764 15.5954 68.4 15.6C66.8431 15.5801 65.3159 16.0266 64.0149 16.8821C62.7139 17.7375 61.6987 18.9627 61.1 20.4C60.4 21.9 60.1 23.7 60.1 25.6C60.1 27.6 60.4 29.3 61.1 30.8C61.7499 32.1843 62.7829 33.3533 64.0767 34.1685C65.3705 34.9838 66.8708 35.4112 68.4 35.4ZM69.4 32.4C67.6 32.4 66.3 31.8 65.4 30.6C64.3331 29.1589 63.8026 27.3905 63.9 25.6C63.7978 23.8241 64.2904 22.0647 65.3 20.6C66.3 19.3 67.6 18.7 69.3 18.7C71.1 18.7 72.4 19.3 73.3 20.5C74.345 21.9521 74.8731 23.7125 74.8 25.5C74.8 27.7 74.3 29.4 73.4 30.5C72.9348 31.1146 72.3284 31.6081 71.6322 31.9389C70.9359 32.2696 70.1703 32.4278 69.4 32.4ZM87.9 35V24.3C87.9 22.6 88.4 21.3 89.3 20.3C90.3 19.3 91.6 18.8 93.3 18.8C94.6 18.8 95.7 19.1 96.3 19.9C97 20.7 97.3 21.9 97.3 23.5V35.1H101.1V23.3C101.1 18.3 98.8 15.7 94.3 15.7C92.8 15.7 91.5 16 90.3 16.7C89.2 17.3 88.3 18.2 87.7 19.4L87.4 16.1H83.8C84 17.7 84.1 19.5 84.1 21.5V35H88H87.9ZM113.9 35.3C114.9 35.3 115.9 35.2 116.7 34.9V31.8L114.7 32.1C113.7 32.1 112.9 31.8 112.3 31.3C111.8 30.7 111.4 29.8 111.4 28.5V19H116.7V16H111.5V10L107.7 11.2V16H103.9V19H107.7V28.8C107.7 30.9 108.2 32.5 109.3 33.7C109.907 34.251 110.617 34.6761 111.39 34.9507C112.162 35.2254 112.981 35.3441 113.8 35.3H113.9ZM128.4 35.3C130.2 35.3 131.9 34.9 133.3 34.1C134.684 33.2818 135.823 32.1078 136.6 30.7C137.3 29.2 137.7 27.4 137.7 25.5C137.7 23.5 137.4 21.8 136.6 20.2C135.869 18.7595 134.718 17.5741 133.3 16.8C131.9 16 130.3 15.6 128.4 15.6C126.691 15.5747 125.004 15.9878 123.5 16.8C122.1 17.6 121 18.8 120.2 20.3C119.5 21.8 119.1 23.5 119.1 25.5C119.1 27.5 119.5 29.2 120.2 30.7C120.946 32.1299 122.093 33.3114 123.5 34.1C125 34.9 126.5 35.3 128.5 35.3H128.4ZM128.4 32.3C127.648 32.3359 126.898 32.2017 126.206 31.9074C125.513 31.613 124.896 31.1661 124.4 30.6C123.369 29.1079 122.875 27.3096 123 25.5C123 23.3 123.4 21.5 124.4 20.5C124.876 19.8974 125.484 19.4125 126.178 19.0831C126.872 18.7536 127.632 18.5883 128.4 18.6C130.2 18.6 131.4 19.2 132.4 20.4C133.445 21.8521 133.973 23.6125 133.9 25.4C133.9 27.7 133.4 29.4 132.4 30.6C131.5 31.7 130.2 32.3 128.4 32.3ZM146 35V24.4C145.942 22.9079 146.362 21.4362 147.2 20.2C148.1 19.2 149.2 18.7 150.7 18.7C152 18.7 152.9 19.1 153.4 19.9C154 20.6 154.4 21.9 154.4 23.4V35.1H158.1V24.4C158.1 22.7 158.5 21.3 159.4 20.2C160.3 19.2 161.4 18.7 162.9 18.7C164.1 18.7 165 19.1 165.6 19.9C166.2 20.6 166.5 21.9 166.5 23.4V35.1H170.3V23.3C170.3 18.3 168.1 15.7 163.9 15.7C162.564 15.6637 161.245 16.0107 160.1 16.7C159 17.3 158.1 18.2 157.6 19.4C156.6 16.9 154.8 15.7 151.8 15.7C150.532 15.701 149.287 16.0467 148.2 16.7C147.157 17.3057 146.32 18.2118 145.8 19.3L145.4 16.2H142C142.2 17.7 142.3 19.5 142.3 21.5V35.2H146.1L146 35Z" fill="white"/>
</g>
</g>
<defs>
<clipPath id="clip0_304_16">
<rect width="171" height="44" fill="white"/>
</clipPath>
</defs>
</svg>
