<svg width="171" height="40" viewBox="0 0 171 40" fill="none" xmlns="http://www.w3.org/2000/svg">
<mask id="mask0_504_7" style="mask-type:luminance" maskUnits="userSpaceOnUse" x="0" y="0" width="170" height="40">
<path d="M0 0H170V40H0V0Z" fill="white"/>
</mask>
<g mask="url(#mask0_504_7)">
<path fill-rule="evenodd" clip-rule="evenodd" d="M52.7 1.3L56.9 0L59.5 16.3L54.3 17.7L49.5 9L45.6 9.6L44.1 19.5L38.8 20L35.6 10.5H31.6L28.6 20L23.2 19.5L21.8 9.7L17.8 9L13.1 17.7L7.9 16.3L10.4 0C24 4.6 38.7 5 52.7 1.3ZM41.7 28.8L46.5 20L51.7 21.4L49.2 37.7C34.0802 32.6309 17.7198 32.6309 2.6 37.7L0 21.4L5.2 20L10 28.7L13.9 28.1L15.4 18.2L20.7 17.8L23.9 27.2H27.9L31 17.8L36.4 18.2L37.9 28.1L41.7 28.8ZM86.7 10.2C86.7 10.2 84.4 7.2 79.5 7.2C74.5 7.1 68 10 68 18.8C68 27.7 74.5 30.6 79.5 30.6C84.5 30.6 86 28 86.7 26.8C86.7 32.2 81.7 34.8 75.4 31.8L72.6 37.8C80.7 41.9 92.7 41 92.7 26.8V7.7H87.6L86.7 10.2ZM80.7 24.2C78.7 24.2 75.7 22.9 75.7 18.9C75.7 14.9 78.7 13.4 80.7 13.4C82.7 13.4 85.7 14.8 85.7 18.9C85.7 22.9 82.7 24.3 80.7 24.3V24.2ZM158.1 7.7L159.3 11.4C159.3 11.4 162.5 4.7 170 8L167 14.4C163.5 13 160 14.8 160 18.7V30H153V7.7H158H158.1ZM147.6 7.7H142.5L141.6 10.2C141.6 10.2 139.3 7.2 134.4 7.2C129.4 7.2 123 10.4 123 18.9C123 27.2 129.4 30.7 134.4 30.7C140.2 30.7 141.6 26.9 141.6 26.9V30H147.6V7.7ZM135.6 24.3C133.6 24.3 130.6 22.9 130.6 18.9C130.6 14.9 133.6 13.4 135.6 13.4C137.6 13.4 140.6 14.8 140.6 18.9C140.6 22.9 137.6 24.3 135.6 24.3ZM95.6 18.7C95.6 12.9 100.1 6.7 108.9 6.7C117.7 6.7 120.9 14.4 120.4 20.8H103.4C103.85 22.0299 104.667 23.092 105.74 23.8431C106.813 24.5942 108.09 24.998 109.4 25C112.4 25 114.6 23.3 115.5 21.8L120.2 24.8C119.8 25.8 116.8 31.4 108.2 31.4C99.6 31.4 95.5 24.4 95.5 18.7H95.6ZM108.6 12.9C107.596 12.883 106.608 13.1573 105.756 13.6897C104.904 14.2221 104.225 14.9898 103.8 15.9H113.1C113.1 15.9 112 12.9 108.7 12.9H108.6Z" fill="white"/>
</g>
</svg>
