<svg width="20" height="20" viewBox="0 0 20 20" fill="none" xmlns="http://www.w3.org/2000/svg">
<path d="M10 1.66663C8.90565 1.66663 7.82201 1.88217 6.81097 2.30096C5.79992 2.71975 4.88126 3.33358 4.10744 4.1074C2.54464 5.67021 1.66666 7.78982 1.66666 9.99996C1.66666 13.6833 4.05833 16.8083 7.36666 17.9166C7.78333 17.9833 7.91666 17.725 7.91666 17.5V16.0916C5.60833 16.5916 5.11666 14.975 5.11666 14.975C4.73333 14.0083 4.19166 13.75 4.19166 13.75C3.43333 13.2333 4.25 13.25 4.25 13.25C5.08333 13.3083 5.525 14.1083 5.525 14.1083C6.25 15.375 7.475 15 7.95 14.8C8.025 14.2583 8.24166 13.8916 8.475 13.6833C6.625 13.475 4.68333 12.7583 4.68333 9.58329C4.68333 8.65829 5 7.91663 5.54166 7.32496C5.45833 7.11663 5.16666 6.24996 5.625 5.12496C5.625 5.12496 6.325 4.89996 7.91666 5.97496C8.575 5.79163 9.29166 5.69996 10 5.69996C10.7083 5.69996 11.425 5.79163 12.0833 5.97496C13.675 4.89996 14.375 5.12496 14.375 5.12496C14.8333 6.24996 14.5417 7.11663 14.4583 7.32496C15 7.91663 15.3167 8.65829 15.3167 9.58329C15.3167 12.7666 13.3667 13.4666 11.5083 13.675C11.8083 13.9333 12.0833 14.4416 12.0833 15.2166V17.5C12.0833 17.725 12.2167 17.9916 12.6417 17.9166C15.95 16.8 18.3333 13.6833 18.3333 9.99996C18.3333 8.90561 18.1178 7.82198 17.699 6.81093C17.2802 5.79988 16.6664 4.88122 15.8926 4.1074C15.1187 3.33358 14.2001 2.71975 13.189 2.30096C12.178 1.88217 11.0943 1.66663 10 1.66663Z" fill="#A3A3A3"/>
</svg>
