<svg width="192" height="40" viewBox="0 0 192 40" fill="none" xmlns="http://www.w3.org/2000/svg">
<g clip-path="url(#clip0_506_281)">
<path d="M31.5648 15.1152C31.4803 17.0586 30.457 18.4199 28.8422 19.3775C27.8846 19.9502 26.8331 20.1567 25.7346 20.1567H18.3178C17.0598 20.1567 16.1209 20.9454 15.9801 22.0814C15.8111 23.4615 16.7969 24.6068 18.2145 24.6162C20.8339 24.6256 23.4439 24.6162 26.0538 24.6162C28.0442 24.6256 29.828 25.2171 31.2926 26.5784C33.6397 28.7565 34.4564 31.4416 33.5364 34.5116C32.6163 37.5816 30.4664 39.356 27.3025 39.9099C26.9798 39.9632 26.6531 39.9884 26.3261 39.985C23.4439 39.9944 20.571 40.0132 17.6888 39.985C9.08901 39.9005 1.63463 33.2442 0.56436 24.7007C-0.609187 15.303 5.48387 6.82524 14.7502 5.0039C15.858 4.79298 16.9836 4.68923 18.1113 4.69408C23.303 4.69408 28.5042 4.70347 33.696 4.68469C34.1185 4.68469 34.2499 4.77858 34.2123 5.22922C33.9964 7.81102 31.7338 9.85769 29.0112 9.87647H18.2145C17.1841 9.86978 16.1566 9.9864 15.1539 10.2238C12.325 10.908 9.82415 12.5597 8.08434 14.8929C6.34452 17.2262 5.47514 20.0943 5.62665 23.0009C5.77816 25.9075 6.94103 28.6696 8.91402 30.8094C10.887 32.9491 13.546 34.3318 16.4307 34.7181C16.8945 34.7809 17.3617 34.8154 17.8296 34.8214C20.5992 34.8308 23.3688 34.8402 26.1383 34.8214C27.218 34.8214 28.0348 34.3238 28.476 33.3193C28.9173 32.3147 28.7483 31.4791 28.0817 30.6905C27.5654 30.0803 26.88 29.8268 26.082 29.8268H19.1909C17.2569 29.8174 15.4731 29.3386 13.8959 28.2026C10.8259 26.0245 9.87763 22.1471 11.6708 18.9926C12.8444 16.9178 14.6751 15.6879 16.9659 15.1152C17.6979 14.9435 18.4486 14.8646 19.2003 14.8805L31.0766 14.8993C31.2362 14.8993 31.4522 14.7772 31.5648 15.0213C31.4656 15.0688 31.3543 15.0852 31.2456 15.0682H24.9178C24.8427 15.0682 24.7582 15.087 24.7113 15.0495C24.8427 15.1058 24.993 15.0682 25.1526 15.0682H31.0578C31.2268 15.0776 31.3958 15.0307 31.5648 15.1152Z" fill="white" fill-opacity="0.66"/>
<path d="M41.3382 0H44.5208C44.8025 0.122049 44.8025 0.384924 44.8025 0.63841C44.8025 1.53031 44.8119 2.41281 44.8025 3.30471C44.7931 3.60514 44.8682 3.7178 45.1874 3.70841C45.9854 3.68963 46.7834 3.69902 47.5814 3.69902C48.1729 3.70841 48.3419 3.86801 48.3513 4.45009V6.51554C48.3419 7.04129 48.1635 7.21028 47.6378 7.21028C46.8398 7.21967 46.0417 7.22905 45.2437 7.20089C44.9058 7.1915 44.7837 7.276 44.7931 7.64214C44.8213 8.51526 44.8119 9.38838 44.8025 10.2615C44.8025 10.8624 44.6523 11.0032 44.0514 11.0032H41.7043C41.2161 10.9938 41.0565 10.8342 41.0565 10.3554C41.0471 9.46349 41.0284 8.57159 41.0659 7.6797C41.0753 7.276 40.9439 7.1915 40.5589 7.20089C39.7985 7.22905 39.0286 7.21967 38.2682 7.21028C37.7612 7.21028 37.5922 7.0319 37.5922 6.52493C37.5828 5.85835 37.5828 5.18239 37.5922 4.51581C37.6016 3.84924 37.7236 3.70841 38.3808 3.69902C39.038 3.68963 39.8454 3.68025 40.5777 3.70841C40.9908 3.72719 41.0753 3.58636 41.0565 3.21083C41.0284 2.33771 41.0565 1.4552 41.0471 0.582079C41.0471 0.337982 41.0565 0.112661 41.3382 0Z" fill="white" fill-opacity="0.66"/>
<path d="M62.7932 7.89274C60.4073 8.41877 58.322 10.0531 57.2136 12.2699C56.4903 13.7071 56.3118 15.2476 56.3118 19.9724C56.3118 23.2037 56.4152 25.1011 56.65 26.1625C56.7345 26.5289 57.0069 27.2522 57.2512 27.7782C57.6175 28.5296 57.8617 28.8866 58.4253 29.4877C60.2852 31.4697 62.1544 32.2869 64.7658 32.2681C66.2123 32.2588 67.0765 32.0709 68.2131 31.5261C70.2232 30.5774 71.7637 28.8866 72.4964 26.8107C72.9661 25.5238 73.0318 24.8475 73.0318 21.7008V18.7982L68.88 18.817L64.7188 18.8452V20.536V22.2268L67.0953 22.255L69.4624 22.2737V23.3821C69.4624 24.6502 69.3215 25.3172 68.8706 26.1625C68.5043 26.8576 67.6119 27.7782 66.9638 28.1163C65.9117 28.6799 64.4558 28.8208 63.338 28.4733C62.1638 28.1069 60.9521 27.0925 60.4731 26.0592C59.9658 24.9602 59.9282 24.5563 59.9282 19.9724C59.9282 16.2151 59.947 15.6703 60.0973 15.0879C60.4449 13.7447 61.0742 12.796 62.0511 12.1384C63.5071 11.1615 65.5548 11.0958 67.0577 11.9788C67.828 12.4296 68.6921 13.5568 69.0773 14.5901L69.1806 14.8531H71.0592H72.9379L72.8815 14.5901C72.6937 13.8104 72.3085 12.749 71.9892 12.129C71.5101 11.1991 70.5708 10.0156 69.8193 9.41444C69.1336 8.84145 67.7998 8.17453 66.9262 7.94909C65.9681 7.70487 63.7889 7.66731 62.7932 7.89274Z" fill="white"/>
<path d="M86.9807 7.84584C85.3932 8.15582 84.2379 8.77577 82.9322 9.9875C81.852 11.002 81.0911 12.2513 80.7342 13.5945C80.4148 14.8251 80.3397 16.4125 80.3866 20.8931C80.4242 24.6598 80.443 25.1294 80.6215 25.9373C80.9878 27.5623 81.9459 29.1967 83.1107 30.1736C84.9799 31.7423 86.4547 32.2871 88.7654 32.2683C90.691 32.2589 92.1094 31.8362 93.4808 30.8499C95.0965 29.6946 96.2706 28.0601 96.7121 26.3412C96.9939 25.2328 97.1066 22.5369 97.0502 18.6575C96.9751 14.0642 96.8624 13.3879 95.8761 11.7159C94.7865 9.89356 92.936 8.46579 90.9728 7.94916C90.1462 7.73312 87.8637 7.67676 86.9807 7.84584ZM89.8926 11.4905C90.5501 11.6408 90.8695 11.7817 91.4143 12.195C92.3912 12.9276 93.0112 13.8951 93.293 15.135C93.4339 15.7456 93.4526 16.4031 93.462 19.9726C93.462 23.542 93.4339 24.1995 93.3023 24.8007C92.9266 26.4163 92.0718 27.5435 90.7192 28.2104L89.9114 28.6143H88.7184H87.5255L86.7083 28.2104C85.3651 27.5435 84.5009 26.4727 84.1627 25.0825C83.9185 24.0398 83.787 20.3577 83.9185 17.7933C83.9749 16.5628 84.0594 15.3699 84.1064 15.135C84.2754 14.299 84.5854 13.6603 85.1302 13.0216C86.3326 11.5938 87.967 11.0678 89.8926 11.4905Z" fill="white"/>
<path d="M180.406 7.86458C178.396 8.20274 176.658 9.34871 175.662 10.9832C174.93 12.1949 174.554 14.0829 174.742 15.5859C174.949 17.2766 175.493 18.3944 176.639 19.5498C177.926 20.8367 179.185 21.3251 182.435 21.7948C185.3 22.2081 186.117 22.5744 186.737 23.6922C186.972 24.1337 187.019 24.3216 187.047 25.0918C187.075 25.8339 187.047 26.0781 186.878 26.5196C186.314 28.0225 184.661 28.7458 181.993 28.6331C179.88 28.5485 177.945 27.891 176.358 26.7356C175.794 26.3129 175.766 26.3035 175.606 26.4726C175.522 26.5665 174.996 27.1771 174.451 27.8346L173.446 29.0182L173.897 29.3845C175.475 30.6996 177.616 31.6859 179.786 32.1086C181.092 32.3622 183.788 32.334 185.093 32.0522C188.259 31.3759 189.987 29.6569 190.504 26.6699C190.682 25.6554 190.635 24.2464 190.41 23.3541C190.203 22.5838 189.602 21.4003 189.095 20.7615C188.315 19.794 187.038 18.9956 185.638 18.6105C185.244 18.5071 184.088 18.2911 183.055 18.1408C180.096 17.7087 179.204 17.286 178.499 15.9522C178.321 15.6234 178.283 15.4074 178.283 14.7123C178.283 13.942 178.311 13.8011 178.593 13.2281C179.288 11.8286 180.857 11.171 182.98 11.3871C184.52 11.5468 185.929 11.9882 187.207 12.7209C187.573 12.9276 187.892 13.1154 187.93 13.1342C187.996 13.1718 189.79 10.4853 189.856 10.2505C189.903 10.072 188.616 9.24539 187.582 8.8039C185.375 7.84579 182.642 7.48885 180.406 7.86458Z" fill="white"/>
<path d="M105.157 20.0195V32.1367L106.923 32.118L108.679 32.0898L108.707 27.3744L108.726 22.6684L112.136 22.6308C116.006 22.5838 116.325 22.5369 117.753 21.7948C119.359 20.9588 120.749 19.0895 121.275 17.0606C121.52 16.1213 121.491 14.3178 121.228 13.3033C120.956 12.2701 120.28 10.9362 119.707 10.3069C119.134 9.68693 118.185 8.96365 117.396 8.56913C116.194 7.96797 116.156 7.96797 110.398 7.93039L105.157 7.89282V20.0195ZM115.395 11.5468C116.983 12.0728 117.753 13.0591 117.894 14.7311C118.044 16.5534 117.189 18.1972 115.771 18.8359C115.001 19.1835 114.099 19.268 111.196 19.268H108.726V15.2665V11.265L111.76 11.3025C114.55 11.3401 114.832 11.3589 115.395 11.5468Z" fill="white"/>
<path d="M128.64 19.9255C128.64 26.5384 128.64 31.9771 128.64 32.0146C128.64 32.0616 132.003 32.0992 136.107 32.118L143.575 32.1367V30.399V28.6613H137.845H132.115V18.2817V7.90222H130.377H128.64V19.9255Z" fill="white"/>
<path d="M150.338 16.2059C150.338 21.6634 150.376 24.7631 150.441 25.2516C150.648 26.7639 151.296 28.295 152.142 29.2719C153.363 30.6903 154.772 31.592 156.491 32.0523C157.571 32.3529 159.722 32.3529 160.859 32.0711C163.413 31.4229 165.508 29.6382 166.391 27.3463C167.02 25.7306 166.992 26.1158 167.03 16.5628L167.067 7.90222H165.273H163.489V16.0932C163.489 22.9596 163.46 24.3968 163.348 24.951C162.859 27.2523 161.093 28.6613 158.698 28.6613C156.322 28.6613 154.527 27.2336 154.048 24.951C153.936 24.3968 153.908 22.9596 153.908 16.0932V7.90222H152.123H150.338V16.2059Z" fill="white"/>
</g>
<defs>
<clipPath id="clip0_506_281">
<rect width="191" height="40" fill="white" transform="translate(0.419983)"/>
</clipPath>
</defs>
</svg>
