<svg width="147" height="30" viewBox="0 0 147 30" fill="none" xmlns="http://www.w3.org/2000/svg">
<g clip-path="url(#clip0_506_308)">
<path d="M22.572 0.609985C19.149 0.609985 16.364 3.37798 16.364 6.80198V13.666C15.724 13.714 15.068 13.731 14.396 13.731C13.724 13.731 13.068 13.762 12.428 13.796V6.80198C12.4155 5.98534 12.242 5.17919 11.9174 4.42972C11.5928 3.68025 11.1235 3.0022 10.5364 2.43442C9.9493 1.86664 9.25593 1.42029 8.49602 1.12095C7.73611 0.821607 6.92461 0.675155 6.108 0.689985C4.49368 0.711473 2.95152 1.36231 1.80993 2.50391C0.668329 3.64551 0.0174896 5.18766 -0.0039978 6.80198V23.218C0.00849754 24.0346 0.182015 24.8408 0.506611 25.5903C0.831207 26.3397 1.3005 27.0178 1.8876 27.5855C2.47471 28.1533 3.16808 28.5997 3.92798 28.899C4.68789 29.1984 5.4994 29.3448 6.316 29.33C7.93032 29.3085 9.47248 28.6577 10.6141 27.5161C11.7557 26.3745 12.4065 24.8323 12.428 23.218V16.354C13.068 16.306 13.724 16.289 14.396 16.289C15.068 16.289 15.724 16.258 16.364 16.224V23.232C16.3765 24.0486 16.55 24.8548 16.8746 25.6042C17.1992 26.3537 17.6685 27.0318 18.2556 27.5995C18.8427 28.1673 19.5361 28.6137 20.296 28.913C21.0559 29.2124 21.8674 29.3588 22.684 29.344C24.2983 29.3225 25.8405 28.6717 26.9821 27.5301C28.1237 26.3885 28.7745 24.8463 28.796 23.232V6.80198C28.765 3.37898 25.996 0.609985 22.572 0.609985ZM6.188 3.15399C8.204 3.15399 9.852 4.78598 9.852 6.80198V14.082C8.03383 14.3418 6.25828 14.8422 4.572 15.57C3.84218 15.8905 3.15438 16.2992 2.524 16.787V6.80299C2.53007 5.83458 2.91855 4.9078 3.60483 4.22452C4.2911 3.54124 5.21958 3.15681 6.188 3.15499V3.15399ZM9.868 23.218C9.868 23.6992 9.77322 24.1757 9.58906 24.6203C9.4049 25.0649 9.13497 25.4689 8.79469 25.8092C8.45441 26.1495 8.05044 26.4194 7.60585 26.6035C7.16125 26.7877 6.68473 26.8825 6.2035 26.8825C5.72227 26.8825 5.24576 26.7877 4.80116 26.6035C4.35656 26.4194 3.95259 26.1495 3.61231 25.8092C3.27203 25.4689 3.0021 25.0649 2.81795 24.6203C2.63379 24.1757 2.539 23.6992 2.539 23.218V21.57C2.539 20.114 3.691 18.738 5.626 17.874C6.98685 17.2825 8.41624 16.8632 9.881 16.626L9.864 23.218H9.868ZM22.572 26.866C22.0908 26.8661 21.6143 26.7714 21.1697 26.5873C20.7251 26.4033 20.3211 26.1334 19.9809 25.7931C19.6406 25.4529 19.3707 25.0489 19.1866 24.6043C19.0026 24.1597 18.9079 23.6832 18.908 23.202V15.922C20.7262 15.6622 22.5017 15.1618 24.188 14.434C24.9178 14.1135 25.6056 13.7048 26.236 13.217V23.201C26.219 25.233 24.588 26.866 22.572 26.866ZM23.148 12.13C21.7872 12.7215 20.3578 13.1408 18.893 13.378V6.80198C18.893 6.32076 18.9878 5.84424 19.1719 5.39964C19.3561 4.95504 19.626 4.55107 19.9663 4.21079C20.3066 3.87051 20.7106 3.60059 21.1552 3.41643C21.5998 3.23227 22.0763 3.13748 22.5575 3.13748C23.0387 3.13748 23.5152 3.23227 23.9598 3.41643C24.4044 3.60059 24.8084 3.87051 25.1487 4.21079C25.489 4.55107 25.7589 4.95504 25.9431 5.39964C26.1272 5.84424 26.222 6.32076 26.222 6.80198V8.44999C26.239 9.90599 25.087 11.282 23.15 12.13H23.148Z" fill="white"/>
<path d="M111.836 10.562C107.963 10.562 104.828 13.713 104.828 17.586C104.828 21.459 107.979 24.594 111.852 24.594C115.725 24.594 118.86 21.458 118.86 17.586C118.861 16.6632 118.681 15.7493 118.328 14.8965C117.975 14.0437 117.458 13.2689 116.806 12.6164C116.153 11.9639 115.378 11.4465 114.526 11.094C113.673 10.7415 112.759 10.5607 111.836 10.562ZM116.572 17.57C116.572 18.826 116.073 20.0304 115.185 20.9185C114.297 21.8066 113.092 22.3055 111.837 22.3055C110.581 22.3055 109.376 21.8066 108.488 20.9185C107.6 20.0304 107.101 18.826 107.101 17.57C107.101 16.9468 107.225 16.3299 107.464 15.7544C107.703 15.1789 108.053 14.6563 108.495 14.2164C108.936 13.7765 109.46 13.4279 110.036 13.1907C110.612 12.9535 111.23 12.8323 111.853 12.834C114.46 12.834 116.572 14.962 116.572 17.57Z" fill="white"/>
<path d="M69.659 10.61C69.3584 10.6113 69.0705 10.7313 68.8579 10.9439C68.6453 11.1565 68.5253 11.4444 68.524 11.745V12.417C65.676 9.79301 61.244 9.96901 58.605 12.817C55.966 15.665 56.157 20.097 59.005 22.736C61.693 25.216 65.837 25.216 68.509 22.736V23.392C68.5005 23.6919 68.6092 23.9833 68.8123 24.2043C69.0153 24.4252 69.2964 24.5582 69.596 24.575C69.8959 24.5836 70.1873 24.4748 70.4083 24.2718C70.6292 24.0688 70.7622 23.7876 70.779 23.488V11.763C70.7831 11.6134 70.7573 11.4644 70.7029 11.325C70.6486 11.1855 70.5668 11.0583 70.4625 10.9509C70.3582 10.8436 70.2335 10.7582 70.0957 10.6998C69.9578 10.6414 69.8097 10.6112 69.66 10.611L69.659 10.61ZM68.524 17.586C68.524 18.8419 68.0251 20.0464 67.137 20.9345C66.2489 21.8226 65.0444 22.3215 63.7885 22.3215C62.5326 22.3215 61.3281 21.8226 60.44 20.9345C59.5519 20.0464 59.053 18.8419 59.053 17.586C59.0527 16.964 59.1751 16.348 59.413 15.7733C59.6509 15.1986 59.9997 14.6764 60.4396 14.2366C60.8794 13.7967 61.4016 13.4479 61.9763 13.21C62.551 12.9721 63.167 12.8497 63.789 12.85C66.396 12.833 68.524 14.945 68.524 17.586Z" fill="white"/>
<path d="M81.867 11.698C81.8657 11.9986 81.7457 12.2865 81.5331 12.4991C81.3205 12.7117 81.0326 12.8317 80.732 12.833H80.588C79.966 12.8327 79.35 12.9551 78.7753 13.193C78.2006 13.4309 77.6784 13.7797 77.2386 14.2196C76.7987 14.6594 76.4499 15.1816 76.212 15.7563C75.9741 16.331 75.8517 16.947 75.852 17.569C75.787 17.809 75.821 21.409 75.835 23.537C75.7964 23.8338 75.6416 24.1032 75.4047 24.2862C75.1677 24.4691 74.868 24.5507 74.571 24.513H74.54C74.2653 24.4624 74.0178 24.3154 73.8418 24.0986C73.6658 23.8817 73.573 23.6092 73.58 23.33V11.746C73.5813 11.4454 73.7013 11.1575 73.9139 10.9449C74.1265 10.7323 74.4144 10.6123 74.715 10.611H74.78C75.0789 10.6345 75.3572 10.7724 75.5571 10.9959C75.7569 11.2194 75.8629 11.5113 75.853 11.811V12.419C77.1401 11.2236 78.8324 10.5604 80.589 10.563H80.733C81.0336 10.5643 81.3215 10.6843 81.5341 10.8969C81.7467 11.1095 81.8657 11.3974 81.867 11.698Z" fill="white"/>
<path d="M132.379 16.4499V23.4099C132.378 23.7106 132.258 23.9985 132.045 24.2111C131.833 24.4236 131.545 24.5436 131.244 24.5449C130.943 24.5434 130.656 24.4233 130.443 24.2108C130.231 23.9983 130.111 23.7105 130.109 23.4099V16.4499C130.108 15.5081 129.734 14.6051 129.068 13.9392C128.402 13.2732 127.499 12.8987 126.557 12.8979C126.476 12.8979 126.396 12.8979 126.317 12.9149C124.429 13.0429 123.005 14.6909 123.005 16.5789V23.4109C123.004 23.7116 122.884 23.9995 122.671 24.2121C122.459 24.4246 122.171 24.5446 121.87 24.5459C121.569 24.5444 121.282 24.4243 121.069 24.2118C120.857 23.9993 120.737 23.7115 120.735 23.4109V11.7469C120.735 11.1229 121.247 10.6119 121.87 10.6119C122.493 10.6119 123.005 11.1239 123.005 11.7469V11.8589C123.932 11.1083 125.077 10.676 126.269 10.6259C129.485 10.4649 132.205 12.9469 132.381 16.1459V16.4499H132.379Z" fill="white"/>
<path d="M54.571 6.51402V23.506C54.571 24.13 54.075 24.625 53.452 24.625C52.829 24.625 52.333 24.129 52.333 23.506V15.842H40.621V23.522C40.621 24.146 40.125 24.641 39.502 24.641C38.879 24.641 38.383 24.145 38.383 23.522V6.51502C38.383 5.89102 38.879 5.39602 39.502 5.39602C40.125 5.39602 40.621 5.89202 40.621 6.51502V13.892H52.317V6.51402C52.317 5.89002 52.813 5.39502 53.436 5.39502C54.059 5.39502 54.555 5.89102 54.555 6.51402H54.571Z" fill="white"/>
<path d="M103.131 16.978V23.394C103.13 23.6946 103.01 23.9826 102.797 24.1951C102.585 24.4077 102.297 24.5277 101.996 24.529C101.695 24.5274 101.408 24.4074 101.195 24.1948C100.983 23.9823 100.863 23.6945 100.861 23.394V16.002C100.909 14.242 99.517 12.802 97.757 12.755C95.997 12.707 94.557 14.099 94.51 15.859V23.395C94.5185 23.6949 94.4097 23.9863 94.2067 24.2073C94.0037 24.4282 93.7225 24.5612 93.423 24.578C93.1231 24.5866 92.8317 24.4778 92.6107 24.2748C92.3898 24.0718 92.2568 23.7906 92.24 23.491V16.018C92.288 14.258 90.896 12.818 89.136 12.771C87.376 12.723 85.936 14.115 85.889 15.875V23.41C85.8975 23.7099 85.7887 24.0013 85.5857 24.2223C85.3827 24.4432 85.1015 24.5762 84.802 24.593C84.5021 24.6016 84.2107 24.4928 83.9897 24.2898C83.7688 24.0868 83.6358 23.8056 83.619 23.506V11.779C83.6189 11.4791 83.7357 11.191 83.9447 10.9759C84.1536 10.7608 84.4382 10.6356 84.738 10.627C85.0154 10.6256 85.2838 10.7256 85.4928 10.908C85.7017 11.0905 85.8369 11.3429 85.873 11.618C87.0213 10.7887 88.4478 10.44 89.8492 10.6462C91.2505 10.8524 92.5162 11.5971 93.377 12.722C95.201 10.337 98.624 9.89002 101.009 11.714C101.674 12.2239 102.212 12.8806 102.581 13.6327C102.95 14.3849 103.14 15.2122 103.137 16.05V16.977L103.131 16.978Z" fill="white"/>
<path d="M146.268 12.259L138.604 28.835C138.445 29.0957 138.19 29.2837 137.894 29.3584C137.598 29.4332 137.284 29.3889 137.02 29.235C136.794 29.0995 136.621 28.8904 136.531 28.6429C136.441 28.3953 136.438 28.1242 136.524 27.875L138.588 23.411L133.42 12.258C133.084 11.714 133.259 10.994 133.804 10.674C134.349 10.354 135.068 10.513 135.388 11.058C135.388 11.058 135.388 11.075 135.405 11.075C135.45 11.1375 135.483 11.2081 135.501 11.283L139.837 20.658L144.173 11.283C144.27 10.9935 144.477 10.754 144.75 10.6162C145.022 10.4784 145.338 10.4536 145.629 10.547C145.918 10.6442 146.158 10.8514 146.296 11.124C146.434 11.3965 146.458 11.7123 146.365 12.003C146.35 12.0934 146.317 12.18 146.269 12.258L146.268 12.259Z" fill="white"/>
</g>
<defs>
<clipPath id="clip0_506_308">
<rect width="146.42" height="28.78" fill="white" transform="translate(0 0.609985)"/>
</clipPath>
</defs>
</svg>
