<svg width="150" height="36" viewBox="0 0 150 36" fill="none" xmlns="http://www.w3.org/2000/svg">
<g clip-path="url(#clip0_304_103)">
<path fill-rule="evenodd" clip-rule="evenodd" d="M142.535 19.4115L139.427 11.1014H138.665L135.557 19.4115H142.535ZM149.545 29.371H146.214L143.613 22.4247H134.447L131.846 29.371H128.516L137.143 6.37537H140.917L149.545 29.371Z" fill="white"/>
<path fill-rule="evenodd" clip-rule="evenodd" d="M113.893 17.8256C116.272 17.8256 119.127 17.0961 119.127 13.6388C119.127 9.95951 115.86 9.42029 113.893 9.42029H106.884V17.8573H113.893V17.8256ZM116.526 20.5851L122.077 29.3392H118.271L112.942 20.9022H106.884V29.3392H103.744V6.37537H113.893C119.698 6.37537 122.267 10.0229 122.267 13.6388C122.267 18.8088 118.017 20.2362 116.526 20.5851Z" fill="white"/>
<path fill-rule="evenodd" clip-rule="evenodd" d="M92.642 20.6168C92.642 20.8705 92.579 26.6432 86.552 26.6432C80.938 26.6432 80.463 22.0124 80.463 20.6168V6.37537H77.291V20.6168C77.291 24.7718 79.701 29.6247 86.552 29.6247C93.372 29.6247 95.814 24.7718 95.814 20.6168V6.37537H92.642V20.6168Z" fill="white"/>
<path fill-rule="evenodd" clip-rule="evenodd" d="M71.011 6.37537V9.42029H55.627V15.4467H69.298V18.4599H55.627V29.3392H52.487V6.37537H71.011Z" fill="white"/>
<path fill-rule="evenodd" clip-rule="evenodd" d="M39.546 6.37537V24.6133H38.8484L27.7154 6.37537H23.6238V29.3392H26.7639V11.6723H27.4617L38.0872 29.3392H42.686V6.37537H39.546Z" fill="white"/>
<path fill-rule="evenodd" clip-rule="evenodd" d="M-1.97272 6.37537V9.19827H5.03698V26.4846H-1.97272V29.3075H15.1868V26.4846H8.17708V9.19827H15.1868V6.37537H-1.97272Z" fill="white"/>
</g>
<defs>
<clipPath id="clip0_304_103">
<rect width="150" height="36" fill="white"/>
</clipPath>
</defs>
</svg>
