<svg width="149" height="44" viewBox="0 0 149 44" fill="none" xmlns="http://www.w3.org/2000/svg">
<g clip-path="url(#clip0_504_187)">
<path d="M23.3074 21.8766L38.4755 36.9955C42.1998 33.0493 44.4688 27.7219 44.4688 21.8766C44.4688 16.0314 42.1998 10.704 38.4755 6.75781L23.3074 21.8766Z" fill="white"/>
<path d="M22.2465 22.9125L7.27563 37.8341L22.2465 44L37.2173 37.8341L22.2465 22.9125Z" fill="white"/>
<path d="M21.7042 21.3341L37.2176 5.89462L22.9374 0L8.6571 34.3565L21.7042 21.3341Z" fill="white"/>
<path d="M0 21.8767C0 27.6973 2.26906 33 5.94395 36.9462L20.8408 1.10986L0 21.8767Z" fill="white"/>
<path d="M141.323 17.6345C137.352 17.6345 135.897 20.5695 135.897 20.5695V17.9798H132.937V35.2197H135.897V23.9484C135.897 22.4193 137.327 20.2735 140.484 20.2735C143.419 20.2735 145.047 22.0493 145.047 25.2803V35.2197H148.007V24.7623C147.982 20.4462 145.368 17.6345 141.323 17.6345Z" fill="white"/>
<path d="M125.292 12.2578H122.332V15.6861C122.332 16.9439 121.296 17.9798 120.038 17.9798H116.709L111.209 31.1995L105.709 17.9798H102.675L109.704 34.8744L107.904 39.2399H104.031V41.8049H107.04C108.767 41.8049 110.296 40.769 110.962 39.1906L118.706 20.5695H122.357V30.8542C122.357 33.5179 123.935 35.2197 126.377 35.2197H130.446V32.6547H125.292V20.5695H130.446V17.9798H125.292V12.2578Z" fill="white"/>
<path d="M100.8 23.8991C100.8 20.0516 98.0382 17.6345 93.6234 17.6345C89.5292 17.6345 86.6682 20.1749 86.1256 24.1951H89.0113C89.6278 21.2108 91.6996 20.1256 93.5494 20.1256C96.2377 20.1256 97.8655 21.63 97.8655 24.1704V25.3296H93.796C88.074 25.3296 85.6077 27.1547 85.6077 30.287C85.6077 33.4933 88.148 35.4664 92.1435 35.4664C95.3498 35.4664 97.1996 34.2825 98.0382 32.4081C98.2601 33.9865 99.148 35.1951 101.442 35.1951H103.39V32.6054H100.825V23.8991H100.8ZM97.8408 30.139C97.8408 31.8901 95.6704 33.2713 92.6368 33.2713C90.1951 33.2713 88.6906 32.3341 88.6906 30.583V29.8924C88.6906 28.2399 90.2691 27.3273 93.7713 27.3273H97.8408V30.139Z" fill="white"/>
<path d="M80.8969 11H77.9373V30.8296C77.9373 33.4933 79.5157 35.1951 81.9574 35.1951H83.4619V32.63H80.8722V11H80.8969Z" fill="white"/>
<path d="M60.6232 11H57.6636V35.1951H60.6232V11Z" fill="white"/>
<path d="M75.8902 11H72.2153L63.0898 20.1009C62.2265 20.9641 62.1526 22.3206 62.9171 23.2825L72.462 35.1951H76.1862L65.2848 21.5807L75.8902 11Z" fill="white"/>
</g>
<defs>
<clipPath id="clip0_504_187">
<rect width="149" height="44" fill="white"/>
</clipPath>
</defs>
</svg>
