<svg width="174" height="46" viewBox="0 0 174 46" fill="none" xmlns="http://www.w3.org/2000/svg">
<path d="M4.264 41.052C3.13401 41.0491 2.05113 40.5989 1.2521 39.7999C0.453078 39.0009 0.00290386 37.918 0 36.788L0 16.195C0 13.848 1.917 11.964 4.264 11.964C5.39399 11.9669 6.47687 12.4171 7.2759 13.2161C8.07492 14.0152 8.5251 15.098 8.528 16.228V36.82C8.495 39.134 6.611 41.052 4.264 41.052ZM22.279 41.052C21.023 41.052 19.8 40.49 19.007 39.532L10.412 29.252C9.77135 28.4877 9.42023 27.5223 9.42023 26.525C9.42023 25.5277 9.77135 24.5623 10.412 23.798L19.007 13.484C20.527 11.666 23.205 11.434 24.99 12.922C26.775 14.41 27.04 17.12 25.552 18.905L19.238 26.508L25.552 34.078C27.039 35.896 26.808 38.573 24.99 40.061C24.2289 40.6955 23.2709 41.0458 22.28 41.052H22.279ZM50.574 41.052H32.56C31.43 41.0491 30.3471 40.5989 29.5481 39.7999C28.7491 39.0009 28.2989 37.918 28.296 36.788V16.195C28.2989 15.065 28.7491 13.9822 29.5481 13.1831C30.3471 12.3841 31.43 11.9339 32.56 11.931C33.69 11.9339 34.7729 12.3841 35.5719 13.1831C36.3709 13.9822 36.8211 15.065 36.824 16.195V32.524H46.344V16.194C46.3472 15.0642 46.7975 13.9816 47.5965 13.1828C48.3955 12.384 49.4782 11.9339 50.608 11.931C51.738 11.9339 52.8209 12.3841 53.6199 13.1831C54.4189 13.9822 54.8691 15.065 54.872 16.195V36.788C54.839 39.135 52.921 41.052 50.574 41.052ZM78.903 41.052H60.887C60.3293 41.0369 59.78 40.912 59.2705 40.6845C58.761 40.457 58.3013 40.1314 57.9177 39.7262C57.5341 39.3211 57.2341 38.8443 57.0347 38.3232C56.8354 37.8021 56.7407 37.2468 56.756 36.689C56.7901 35.6039 57.2363 34.5726 58.004 33.805C58.7716 33.0373 59.8029 32.5911 60.888 32.557H74.638V32.326L59.698 28.062C58.8095 27.8057 58.0286 27.2669 57.4738 26.5271C56.9189 25.7873 56.6203 24.8868 56.623 23.962V16.195C56.623 13.848 58.541 11.964 60.888 11.964H78.903C80.033 11.9669 81.1159 12.4171 81.9149 13.2161C82.7139 14.0152 83.1641 15.098 83.167 16.228C83.1641 17.358 82.7139 18.4409 81.9149 19.2399C81.1159 20.0389 80.033 20.4891 78.903 20.492H65.152V20.756L80.092 25.02C80.9805 25.2763 81.7614 25.8152 82.3162 26.555C82.8711 27.2948 83.1697 28.1953 83.167 29.12V36.821C83.167 39.168 81.249 41.052 78.903 41.052ZM138.104 41.052C135.757 41.052 133.873 39.135 133.873 36.788V25.45L131.89 27.17C130.303 28.524 127.956 28.524 126.337 27.17L124.353 25.45V36.788C124.35 37.9181 123.9 39.0011 123.101 39.8002C122.302 40.5993 121.219 41.0494 120.089 41.052C118.959 41.0494 117.876 40.5993 117.077 39.8002C116.278 39.0011 115.828 37.9181 115.825 36.788V16.195C115.828 15.065 116.278 13.9819 117.077 13.1828C117.876 12.3838 118.959 11.9337 120.089 11.931C121.107 11.933 122.091 12.2958 122.866 12.955L129.113 18.31L135.328 12.955C136.189 12.2231 137.305 11.861 138.431 11.9477C139.558 12.0345 140.605 12.5629 141.344 13.418C142.008 14.1905 142.372 15.1763 142.368 16.195V36.788C142.401 39.135 140.484 41.052 138.104 41.052ZM109.776 41.052C108.646 41.0494 107.563 40.5993 106.764 39.8002C105.965 39.0011 105.515 37.9181 105.512 36.788V33.185L94.902 20.46H93.447V32.525H99.859C100.417 32.5399 100.966 32.6646 101.476 32.892C101.986 33.1194 102.445 33.445 102.829 33.8502C103.213 34.2554 103.513 34.7322 103.712 35.2535C103.912 35.7747 104.006 36.3302 103.991 36.888C103.957 37.9732 103.511 39.0046 102.743 39.7723C101.976 40.54 100.944 40.9862 99.859 41.02H89.183C86.836 41.02 84.952 39.103 84.952 36.756V16.196C84.9544 15.0748 85.4008 14.0002 86.1935 13.2072C86.9862 12.4143 88.0608 11.9677 89.182 11.965H96.918C98.174 11.965 99.397 12.527 100.19 13.485L113.049 28.922C113.677 29.682 114.04 30.641 114.04 31.632V36.789C114.041 37.3494 113.932 37.9045 113.718 38.4225C113.505 38.9405 113.191 39.4111 112.794 39.8074C112.398 40.2036 111.927 40.5176 111.409 40.7314C110.891 40.9452 110.336 41.0545 109.776 41.053V41.052ZM169.011 41.052C167.881 41.0494 166.798 40.5993 165.999 39.8002C165.2 39.0011 164.75 37.9181 164.747 36.788V33.185L154.136 20.46H152.649V32.525H159.061C159.619 32.5401 160.168 32.6648 160.678 32.8923C161.187 33.1197 161.647 33.4453 162.031 33.8505C162.415 34.2556 162.715 34.7324 162.914 35.2536C163.114 35.7748 163.208 36.3302 163.193 36.888C163.159 37.9732 162.713 39.0046 161.945 39.7723C161.178 40.54 160.146 40.9862 159.061 41.02H148.417C147.287 41.0171 146.204 40.5669 145.405 39.7679C144.606 38.9689 144.156 37.886 144.153 36.756V16.196C144.153 13.849 146.071 11.965 148.417 11.965H156.152C157.408 11.965 158.598 12.527 159.425 13.485L172.283 28.922C172.911 29.682 173.275 30.641 173.275 31.632V36.789C173.276 37.3494 173.167 37.9045 172.953 38.4225C172.74 38.9405 172.426 39.4111 172.029 39.8074C171.633 40.2036 171.162 40.5176 170.644 40.7314C170.126 40.9452 169.571 41.0545 169.011 41.053V41.052ZM93.249 1.58402C92.95 1.32002 92.62 1.12202 92.224 1.05602C91.728 0.989024 91.232 1.32002 90.902 1.55102C90.571 1.78302 89.91 2.37802 89.645 2.60902C89.381 2.84102 88.72 2.97302 87.629 3.63402C86.539 4.29502 82.307 7.00502 82.307 7.00502H83.398L78.473 9.55102H78.969L78.275 10.08C78.671 10.179 79.068 10.113 79.431 9.91402V10.08C79.431 10.08 85.282 7.76602 86.406 8.36002L85.712 8.56002C85.778 8.56002 86.869 8.62502 86.869 8.62502C86.935 9.08802 87.199 9.51802 87.596 9.74902C88.257 10.179 88.29 10.443 88.29 10.443C88.29 10.443 87.96 10.575 87.96 10.773C88.5723 10.5746 89.2317 10.5746 89.844 10.773C89.844 10.773 89.811 10.575 89.348 10.443C88.8817 10.2519 88.4801 9.93084 88.191 9.51802C87.927 9.15402 87.827 8.69102 87.993 8.26202C88.158 7.83202 88.72 7.60002 89.877 7.00502C91.232 6.31102 91.563 5.78202 91.728 5.35302C91.893 4.92302 92.224 4.13002 92.356 3.73302C92.488 3.36902 92.72 3.07202 93.017 2.80702C93.381 2.60902 93.777 2.44402 94.141 2.31202C94.207 2.34502 93.48 1.75002 93.249 1.58402Z" fill="white"/>
</svg>
