<svg width="344" height="36" viewBox="0 0 344 36" fill="none" xmlns="http://www.w3.org/2000/svg">
<g clip-path="url(#clip0_304_14)">
<path d="M99.07 34.1V4.85997H104.54L113.44 18.68L122.34 4.85997H127.81V34.1H122.67V13.13L113.44 26.92H113.27L104.12 13.22V34.1H99.07ZM141.03 34.56C136.89 34.56 133.21 32.18 133.21 27.76V27.66C133.21 22.9 136.93 20.56 142.32 20.56C144.79 20.56 146.54 20.94 148.26 21.48V20.94C148.26 17.81 146.33 16.14 142.78 16.14C140.32 16.14 138.48 16.68 136.48 17.51L135.14 13.55C137.734 12.3164 140.578 11.7003 143.45 11.75C146.75 11.75 149.22 12.63 150.76 14.21C152.39 15.81 153.14 18.14 153.14 21.02V34.1H148.21V31.34C147.337 32.3871 146.236 33.2214 144.992 33.7793C143.748 34.3373 142.393 34.6043 141.03 34.56ZM142.45 30.88C145.79 30.88 148.34 28.96 148.34 26.16V24.66C147.04 24.16 145.33 23.78 143.32 23.78C140.07 23.78 138.14 25.16 138.14 27.46V27.54C138.14 29.67 140.02 30.88 142.44 30.88H142.45ZM166.32 34.48C162.6 34.48 159.97 32.85 159.97 28V16.4H157.17V12.05H159.97V5.97997H165.02V12.04H170.95V16.39H165.02V27.2C165.02 29.16 166.02 29.96 167.74 29.96C168.829 29.961 169.903 29.7003 170.87 29.2V33.34C169.485 34.124 167.911 34.5147 166.32 34.47V34.48ZM176.02 34.1V3.59997H181.08V15.43C182.5 13.38 184.54 11.58 187.97 11.58C192.94 11.58 195.82 14.92 195.82 20.02V34.1H190.77V21.57C190.77 18.14 189.06 16.17 186.05 16.17C183.12 16.17 181.08 18.22 181.08 21.65V34.1H176.02ZM222.84 34.31L212.64 4.85997H218.2L225.18 26.54L232.36 4.76997H236.71L243.9 26.54L250.87 4.85997H256.27L246.1 34.3H241.63L234.44 13.28L227.26 34.3H222.83L222.84 34.31ZM264.3 34.56C260.16 34.56 256.48 32.18 256.48 27.76V27.66C256.48 22.9 260.2 20.56 265.59 20.56C268.06 20.56 269.81 20.94 271.52 21.48V20.94C271.52 17.81 269.6 16.14 266.05 16.14C263.58 16.14 261.75 16.68 259.75 17.51L258.4 13.55C260.83 12.45 263.2 11.75 266.72 11.75C270.02 11.75 272.48 12.63 274.03 14.21C275.66 15.81 276.41 18.14 276.41 21.02V34.1H271.48V31.34C270.606 32.3885 269.503 33.2235 268.257 33.7816C267.011 34.3396 265.654 34.6058 264.29 34.56H264.3ZM265.72 30.88C269.06 30.88 271.61 28.96 271.61 26.16V24.66C270.31 24.16 268.6 23.78 266.59 23.78C263.33 23.78 261.41 25.16 261.41 27.46V27.54C261.41 29.67 263.29 30.88 265.71 30.88H265.72ZM282.69 34.1V3.59997H287.75V34.1H282.69ZM294.57 34.1V3.59997H299.62V34.1H294.57ZM316.27 34.6C309.87 34.6 304.94 29.97 304.94 23.15V23.07C304.94 16.77 309.41 11.58 315.72 11.58C322.74 11.58 326.29 17.1 326.29 23.45C326.29 23.91 326.25 24.37 326.21 24.87H310C310.54 28.47 313.09 30.47 316.35 30.47C318.81 30.47 320.57 29.55 322.32 27.83L325.29 30.47C324.206 31.8086 322.826 32.8781 321.26 33.5946C319.693 34.3111 317.982 34.6552 316.26 34.6H316.27ZM309.95 21.53H321.28C320.94 18.27 319.02 15.72 315.68 15.72C312.58 15.72 310.41 18.1 309.95 21.52V21.53ZM338.71 34.48C334.99 34.48 332.36 32.85 332.36 28V16.4H329.56V12.05H332.36V5.97997H337.42V12.04H343.35V16.39H337.41V27.2C337.41 29.16 338.41 29.96 340.13 29.96C341.219 29.961 342.293 29.7003 343.26 29.2V33.34C341.875 34.124 340.301 34.5147 338.71 34.47V34.48ZM58.61 14.6C57.8223 13.811 57.3803 12.7413 57.3812 11.6264C57.3822 10.5115 57.826 9.44266 58.615 8.65497C59.404 7.86728 60.4736 7.42528 61.5885 7.42622C62.7034 7.42716 63.7723 7.87095 64.56 8.65997C64.95 9.05 65.2594 9.51303 65.4705 10.0226C65.6816 10.5322 65.7902 11.0784 65.7902 11.63C65.7902 12.1816 65.6816 12.7277 65.4705 13.2373C65.2594 13.7469 64.95 14.2099 64.56 14.6C64.17 14.99 63.7069 15.2994 63.1974 15.5105C62.6878 15.7215 62.1416 15.8302 61.59 15.8302C60.476 15.8302 59.4077 15.3877 58.62 14.6H58.61ZM44.51 28.7C43.9199 28.1085 43.5889 27.3069 43.5898 26.4714C43.5903 26.0577 43.6722 25.6482 43.831 25.2662C43.9897 24.8842 44.2222 24.5372 44.515 24.245C44.8078 23.9528 45.1554 23.7211 45.5378 23.5632C45.9201 23.4054 46.3298 23.3243 46.7435 23.3248C47.579 23.3257 48.3799 23.6585 48.97 24.25C49.5601 24.8414 49.8911 25.643 49.8902 26.4785C49.8892 27.314 49.5564 28.1149 48.965 28.705C48.3736 29.2951 47.5719 29.6261 46.7365 29.6251C45.901 29.6242 45.1001 29.2914 44.51 28.7ZM66.79 21.28C66.4972 20.9878 66.2647 20.6408 66.106 20.2588C65.9473 19.8767 65.8653 19.4672 65.8648 19.0535C65.8644 18.6398 65.9454 18.2301 66.1033 17.8477C66.2612 17.4653 66.4928 17.1178 66.785 16.825C67.0772 16.5321 67.4242 16.2997 67.8062 16.141C68.1882 15.9822 68.5978 15.9003 69.0115 15.8998C69.4252 15.8993 69.8349 15.9804 70.2172 16.1382C70.5996 16.2961 70.9472 16.5278 71.24 16.82C71.8314 17.4101 72.1642 18.211 72.1652 19.0464C72.1661 19.8819 71.8351 20.6835 71.245 21.275C70.6549 21.8664 69.854 22.1992 69.0185 22.2001C68.1831 22.2011 67.3814 21.8701 66.79 21.28ZM59.36 28.7C59.0678 28.4071 58.8362 28.0596 58.6783 27.6772C58.5204 27.2948 58.4394 26.8851 58.4398 26.4714C58.4403 26.0577 58.5222 25.6482 58.681 25.2662C58.8397 24.8842 59.0722 24.5372 59.365 24.245C59.6578 23.9528 60.0054 23.7211 60.3878 23.5632C60.7701 23.4054 61.1799 23.3243 61.5935 23.3248C62.0072 23.3253 62.4168 23.4072 62.7988 23.566C63.1808 23.7247 63.5278 23.9571 63.82 24.25C64.4101 24.8414 64.7411 25.643 64.7402 26.4785C64.7392 27.314 64.4064 28.1149 63.815 28.705C63.2236 29.2951 62.4219 29.6261 61.5865 29.6251C60.751 29.6242 59.9501 29.2914 59.36 28.7ZM74.96 27.96C74.7463 27.7701 74.5737 27.5385 74.4526 27.2795C74.3316 27.0206 74.2647 26.7396 74.256 26.4538C74.2474 26.1681 74.2972 25.8836 74.4023 25.6178C74.5075 25.352 74.6658 25.1104 74.8677 24.9079C75.0695 24.7054 75.3105 24.5463 75.5759 24.4402C75.8414 24.3342 76.1257 24.2834 76.4115 24.2911C76.6973 24.2988 76.9785 24.3647 77.2379 24.4849C77.4972 24.6051 77.7294 24.7769 77.92 24.99C78.3138 25.3838 78.5351 25.918 78.5351 26.475C78.5351 27.032 78.3138 27.5661 77.92 27.96C77.5262 28.3538 76.992 28.5751 76.435 28.5751C75.878 28.5751 75.3438 28.3538 74.95 27.96H74.96ZM67.53 35.38C67.1362 34.9861 66.9149 34.452 66.9149 33.895C66.9149 33.338 67.1362 32.8038 67.53 32.41C67.9238 32.0161 68.458 31.7949 69.015 31.7949C69.572 31.7949 70.1062 32.0161 70.5 32.41C70.695 32.605 70.8497 32.8365 70.9552 33.0913C71.0608 33.3461 71.1151 33.6192 71.1151 33.895C71.1151 34.1708 71.0608 34.4439 70.9552 34.6986C70.8497 34.9534 70.695 35.185 70.5 35.38C70.305 35.575 70.0735 35.7297 69.8187 35.8352C69.5639 35.9408 69.2908 35.9951 69.015 35.9951C68.7392 35.9951 68.4661 35.9408 68.2113 35.8352C67.9565 35.7297 67.725 35.575 67.53 35.38ZM51.19 22.02C50.8 21.6299 50.4906 21.1669 50.2795 20.6573C50.0684 20.1477 49.9598 19.6015 49.9598 19.05C49.9598 18.4984 50.0684 17.9522 50.2795 17.4426C50.4906 16.933 50.8 16.47 51.19 16.08C51.58 15.6899 52.0431 15.3806 52.5526 15.1695C53.0622 14.9584 53.6084 14.8498 54.16 14.8498C54.7116 14.8498 55.2578 14.9584 55.7674 15.1695C56.2769 15.3806 56.74 15.6899 57.13 16.08C57.9177 16.8677 58.3602 17.936 58.3602 19.05C58.3602 20.1639 57.9177 21.2323 57.13 22.02C56.3423 22.8077 55.274 23.2502 54.16 23.2502C53.046 23.2502 51.9777 22.8077 51.19 22.02ZM51.19 7.16997C50.8 6.77994 50.4906 6.31692 50.2795 5.80732C50.0684 5.29773 49.9598 4.75155 49.9598 4.19997C49.9598 3.64839 50.0684 3.10221 50.2795 2.59262C50.4906 2.08302 50.8 1.62 51.19 1.22997C51.58 0.839944 52.0431 0.530559 52.5526 0.319478C53.0622 0.108398 53.6084 -0.000244148 54.16 -0.000244141C54.7116 -0.000244134 55.2578 0.108398 55.7674 0.319478C56.2769 0.530559 56.74 0.839944 57.13 1.22997C57.9177 2.01766 58.3602 3.086 58.3602 4.19997C58.3602 5.31394 57.9177 6.38228 57.13 7.16997C56.3423 7.95766 55.274 8.40018 54.16 8.40018C53.046 8.40018 51.9777 7.95766 51.19 7.16997ZM43.77 14.6C43.38 14.2099 43.0706 13.7469 42.8595 13.2373C42.6484 12.7277 42.5398 12.1816 42.5398 11.63C42.5398 11.0784 42.6484 10.5322 42.8595 10.0226C43.0706 9.51303 43.38 9.05 43.77 8.65997C44.16 8.26994 44.6231 7.96056 45.1326 7.74948C45.6422 7.5384 46.1884 7.42976 46.74 7.42976C47.2916 7.42976 47.8378 7.5384 48.3474 7.74948C48.8569 7.96056 49.32 8.26994 49.71 8.65997C50.1 9.05 50.4094 9.51303 50.6205 10.0226C50.8316 10.5322 50.9402 11.0784 50.9402 11.63C50.9402 12.1816 50.8316 12.7277 50.6205 13.2373C50.4094 13.7469 50.1 14.2099 49.71 14.6C49.32 14.99 48.8569 15.2994 48.3474 15.5105C47.8378 15.7215 47.2916 15.8302 46.74 15.8302C45.626 15.8302 44.5577 15.3877 43.77 14.6ZM28.85 14.6C28.46 14.2099 28.1506 13.7469 27.9395 13.2373C27.7284 12.7277 27.6198 12.1816 27.6198 11.63C27.6198 10.516 28.0623 9.44766 28.85 8.65997C29.6377 7.87228 30.706 7.42976 31.82 7.42976C32.3716 7.42976 32.9178 7.5384 33.4274 7.74948C33.9369 7.96056 34.4 8.26994 34.79 8.65997C35.5777 9.44766 36.0202 10.516 36.0202 11.63C36.0202 12.7439 35.5777 13.8123 34.79 14.6C34.0023 15.3877 32.934 15.8302 31.82 15.8302C30.706 15.8302 29.6377 15.3877 28.85 14.6ZM14.75 28.7C14.4352 28.413 14.1819 28.0653 14.0053 27.6776C13.8287 27.29 13.7326 26.8706 13.7228 26.4448C13.7129 26.019 13.7895 25.5956 13.9479 25.2002C14.1064 24.8048 14.3434 24.4457 14.6445 24.1445C14.9457 23.8433 15.3049 23.6063 15.7002 23.4479C16.0956 23.2895 16.519 23.2129 16.9448 23.2227C17.3707 23.2326 17.7901 23.3287 18.1777 23.5053C18.5653 23.6818 18.9131 23.9352 19.2 24.25C19.7901 24.8414 20.1211 25.643 20.1202 26.4785C20.1192 27.314 19.7864 28.1149 19.195 28.705C18.6036 29.2951 17.8019 29.6261 16.9665 29.6251C16.131 29.6242 15.3301 29.2914 14.74 28.7H14.75ZM37.02 21.28C36.7272 20.9878 36.4947 20.6408 36.336 20.2588C36.1772 19.8767 36.0953 19.4672 36.0948 19.0535C36.0939 18.218 36.4249 17.4164 37.015 16.825C37.6051 16.2335 38.406 15.9007 39.2415 15.8998C40.0769 15.8989 40.8786 16.2299 41.47 16.82C42.0614 17.4101 42.3942 18.211 42.3952 19.0464C42.3961 19.8819 42.0651 20.6835 41.475 21.275C40.8849 21.8664 40.084 22.1992 39.2485 22.2001C38.4131 22.2011 37.6114 21.8701 37.02 21.28ZM29.59 28.7C29.2978 28.4071 29.0662 28.0596 28.9083 27.6772C28.7504 27.2948 28.6694 26.8851 28.6698 26.4714C28.6703 26.0577 28.7522 25.6482 28.911 25.2662C29.0697 24.8842 29.3022 24.5372 29.595 24.245C29.8878 23.9528 30.2354 23.7211 30.6178 23.5632C31.0001 23.4054 31.4099 23.3243 31.8235 23.3248C32.2372 23.3253 32.6468 23.4072 33.0288 23.566C33.4108 23.7247 33.7578 23.9571 34.05 24.25C34.6401 24.8414 34.9711 25.643 34.9702 26.4785C34.9692 27.314 34.6364 28.1149 34.045 28.705C33.4536 29.2951 32.6519 29.6261 31.8165 29.6251C30.981 29.6242 30.1801 29.2914 29.59 28.7ZM0.63 27.96C0.236153 27.5661 0.0148926 27.032 0.0148926 26.475C0.0148926 25.918 0.236153 25.3838 0.63 24.99C1.02385 24.5961 1.55802 24.3749 2.115 24.3749C2.67198 24.3749 3.20615 24.5961 3.6 24.99C3.99385 25.3838 4.21511 25.918 4.21511 26.475C4.21511 27.032 3.99385 27.5661 3.6 27.96C3.20615 28.3538 2.67198 28.5751 2.115 28.5751C1.55802 28.5751 1.02385 28.3538 0.63 27.96ZM8.06 35.38C7.86499 35.185 7.71029 34.9534 7.60475 34.6986C7.49921 34.4439 7.44489 34.1708 7.44489 33.895C7.44489 33.6192 7.49921 33.3461 7.60475 33.0913C7.71029 32.8365 7.86499 32.605 8.06 32.41C8.25501 32.215 8.48653 32.0603 8.74132 31.9547C8.99612 31.8492 9.26921 31.7949 9.545 31.7949C9.82079 31.7949 10.0939 31.8492 10.3487 31.9547C10.6035 32.0603 10.835 32.215 11.03 32.41C11.4238 32.8038 11.6451 33.338 11.6451 33.895C11.6451 34.452 11.4238 34.9861 11.03 35.38C10.6362 35.7738 10.102 35.9951 9.545 35.9951C8.98802 35.9951 8.45385 35.7738 8.06 35.38ZM37.76 35.38C37.565 35.185 37.4103 34.9534 37.3048 34.6986C37.1992 34.4439 37.1449 34.1708 37.1449 33.895C37.1449 33.6192 37.1992 33.3461 37.3048 33.0913C37.4103 32.8365 37.565 32.605 37.76 32.41C37.955 32.215 38.1865 32.0603 38.4413 31.9547C38.6961 31.8492 38.9692 31.7949 39.245 31.7949C39.5208 31.7949 39.7939 31.8492 40.0487 31.9547C40.3035 32.0603 40.535 32.215 40.73 32.41C41.1238 32.8038 41.3451 33.338 41.3451 33.895C41.3451 34.452 41.1238 34.9861 40.73 35.38C40.3362 35.7738 39.802 35.9951 39.245 35.9951C38.688 35.9951 38.1538 35.7738 37.76 35.38ZM7.32 21.28C7.02715 20.9878 6.79472 20.6408 6.63598 20.2588C6.47724 19.8767 6.3953 19.4672 6.39484 19.0535C6.39437 18.6398 6.4754 18.2301 6.63328 17.8477C6.79116 17.4653 7.02281 17.1178 7.315 16.825C7.60719 16.5321 7.9542 16.2997 8.33622 16.141C8.71824 15.9822 9.12778 15.9003 9.54146 15.8998C9.95515 15.8993 10.3649 15.9804 10.7472 16.1382C11.1296 16.2961 11.4772 16.5278 11.77 16.82C12.3614 17.4101 12.6942 18.211 12.6952 19.0464C12.6961 19.8819 12.3651 20.6835 11.775 21.275C11.1849 21.8664 10.384 22.1992 9.54854 22.2001C8.71306 22.2011 7.91143 21.8701 7.32 21.28ZM21.42 22.02C21.03 21.6299 20.7206 21.1669 20.5095 20.6573C20.2984 20.1477 20.1898 19.6015 20.1898 19.05C20.1898 18.4984 20.2984 17.9522 20.5095 17.4426C20.7206 16.933 21.03 16.47 21.42 16.08C21.81 15.6899 22.2731 15.3806 22.7826 15.1695C23.2922 14.9584 23.8384 14.8498 24.39 14.8498C24.9416 14.8498 25.4878 14.9584 25.9974 15.1695C26.5069 15.3806 26.97 15.6899 27.36 16.08C28.1477 16.8677 28.5902 17.936 28.5902 19.05C28.5902 20.1639 28.1477 21.2323 27.36 22.02C26.5723 22.8077 25.504 23.2502 24.39 23.2502C23.276 23.2502 22.2077 22.8077 21.42 22.02ZM21.42 7.16997C21.03 6.77994 20.7206 6.31692 20.5095 5.80732C20.2984 5.29773 20.1898 4.75155 20.1898 4.19997C20.1898 3.64839 20.2984 3.10221 20.5095 2.59262C20.7206 2.08302 21.03 1.62 21.42 1.22997C21.81 0.839944 22.2731 0.530559 22.7826 0.319478C23.2922 0.108398 23.8384 -0.000244112 24.39 -0.000244108C24.9416 -0.000244104 25.4878 0.108398 25.9974 0.319478C26.5069 0.530559 26.97 0.839944 27.36 1.22997C28.1477 2.01766 28.5902 3.086 28.5902 4.19997C28.5902 5.31394 28.1477 6.38228 27.36 7.16997C26.5723 7.95766 25.504 8.40018 24.39 8.40018C23.276 8.40018 22.2077 7.95766 21.42 7.16997ZM14 14.6C13.61 14.2099 13.3006 13.7469 13.0895 13.2373C12.8784 12.7277 12.7698 12.1816 12.7698 11.63C12.7698 11.0784 12.8784 10.5322 13.0895 10.0226C13.3006 9.51303 13.61 9.05 14 8.65997C14.39 8.26994 14.8531 7.96056 15.3626 7.74948C15.8722 7.5384 16.4184 7.42976 16.97 7.42976C17.5216 7.42976 18.0678 7.5384 18.5774 7.74948C19.0869 7.96056 19.55 8.26994 19.94 8.65997C20.7277 9.44766 21.1702 10.516 21.1702 11.63C21.1702 12.7439 20.7277 13.8123 19.94 14.6C19.1523 15.3877 18.084 15.8302 16.97 15.8302C15.856 15.8302 14.7877 15.3877 14 14.6Z" fill="white"/>
</g>
<defs>
<clipPath id="clip0_304_14">
<rect width="344" height="36" fill="white"/>
</clipPath>
</defs>
</svg>
