<svg width="209" height="40" viewBox="0 0 209 40" fill="none" xmlns="http://www.w3.org/2000/svg">
<g clip-path="url(#clip0_504_172)">
<path d="M119.184 4.63755C119.233 5.70473 118.893 6.77191 118.699 7.79058C117.826 11.8168 117.584 15.9885 116.517 19.9661C118.117 18.5594 119.912 17.1041 122.143 16.9101C124.908 16.522 127.77 18.3168 128.692 20.8878C129.274 23.0221 129.032 25.2535 128.595 27.3879C129.711 27.4849 130.778 27.4364 131.894 27.2909C131.603 24.7199 132.282 22.052 133.979 20.0631C136.114 17.4437 139.849 16.3765 143.099 17.1527C145.912 17.9773 147.513 21.6639 145.767 24.0893C143.875 26.8058 140.674 28.164 137.715 29.4252C138.491 30.2984 139.606 30.929 140.819 30.8319C144.215 30.6379 147.222 28.7946 149.939 26.9513C149.793 23.7983 150.618 20.2572 153.334 18.3168C156.099 16.328 160.028 16.7161 162.745 18.5594C164.2 17.4922 166.577 17.5892 167.353 19.4325C167.547 22.6341 166.674 25.8841 167.596 29.0371C167.838 29.8618 168.711 30.8319 169.633 30.2984C171.719 29.1827 173.029 27.1938 174.338 25.302C175.114 23.2647 174.872 20.9848 175.502 18.8989C175.939 17.9288 177.249 17.4437 178.17 18.1228C179.189 18.6079 179.286 19.7721 179.48 20.7423C180.838 18.9475 182.585 17.0071 185.059 17.0556C187.193 16.7646 189.182 18.0258 190.006 19.9176C191.316 18.1228 193.402 16.7646 195.73 17.1041C198.35 17.0071 200.63 19.2385 200.63 21.7609C200.872 24.5744 198.301 26.6117 198.204 29.3282C198.156 30.6864 199.805 30.8319 200.775 30.4924C203.54 29.5222 204.947 26.8543 206.79 24.8169C207.809 25.399 209.07 26.5632 208.342 27.8244C206.79 30.0558 204.947 32.2872 202.57 33.7424C200.775 34.8581 198.35 35.1977 196.361 34.3245C194.421 33.5484 193.402 31.3655 193.499 29.3767C193.644 27.1453 195.1 25.3505 195.682 23.2162C195.973 22.44 195.585 21.3729 194.712 21.2273C193.208 21.0818 191.801 22.052 190.928 23.2162C189.618 25.011 188.988 27.1453 188.357 29.2312C187.921 30.7834 188.066 32.5297 187.387 34.0335C186.417 35.7798 183.506 34.373 183.506 32.6753C183.312 30.6864 183.894 28.8431 184.622 27.0483L185.107 25.7871C185.495 24.8169 185.835 23.7983 186.077 22.7796C186.223 21.955 185.447 21.1788 184.622 21.2273C182.73 21.3729 181.323 22.8766 180.499 24.4774C179.189 27.0483 178.364 29.8618 178.122 32.7238C178.025 33.7909 177.297 35.1977 175.939 34.8096C174.241 34.5186 173.562 32.7238 173.853 31.22C173.708 31.3655 173.562 31.4625 173.417 31.6081L172.98 31.9961C171.476 33.4029 169.875 34.8581 167.693 34.8096C164.928 34.4701 163.424 31.6566 163.084 29.2312C161.823 31.5111 160.368 34.082 157.603 34.7126C154.644 35.1977 151.782 33.2574 150.472 30.7349C147.465 33.1118 143.73 34.9066 139.8 34.8096C137.035 34.7126 134.756 32.8693 133.203 30.8319C131.117 31.4626 128.838 31.7536 126.849 30.6379C124.957 34.5671 119.767 36.2649 115.789 34.5186C114.043 33.7909 112.975 32.1902 112.199 30.5409C109.774 32.6753 106.863 34.373 103.613 34.8581C101.819 35.1492 100.266 33.6454 99.9268 31.9961C99.1021 28.8431 100.945 25.8356 101.285 22.7796C101.479 21.9064 100.606 21.0818 99.7327 21.3244C97.5984 21.4699 96.1916 23.3617 95.27 25.0595C94.2028 27.1938 93.3297 29.4737 92.9416 31.8021C92.7476 32.7723 92.6505 33.8395 91.9229 34.6156C90.5162 35.4887 88.6244 34.276 88.4788 32.7723C88.3818 31.22 88.7214 29.6677 89.0124 28.1155C87.6057 29.8618 85.1318 30.2013 83.24 28.9886C81.9787 33.0148 77.4675 35.4887 73.2958 34.7126C70.4823 34.179 67.9599 31.9476 67.4263 29.1342C66.7957 26.0781 67.2323 22.6826 69.0756 20.0631C72.1316 16.037 79.1653 16.1825 82.2698 20.1116C83.4825 21.6639 83.628 23.6527 83.531 25.5446C84.4041 25.9326 85.4228 26.1752 86.1989 25.4961C88.3333 23.8953 89.8856 21.5184 90.6132 18.996C91.0013 17.9773 92.408 17.5407 93.2811 18.2198C94.2028 18.7534 94.3968 19.8206 94.3968 20.7423C96.3372 18.3654 99.4902 16.7646 102.643 17.1527C104.341 17.3467 105.505 18.8504 105.699 20.4512C106.087 22.6826 105.457 24.7684 104.778 26.8543L104.535 27.6789C104.292 28.358 104.098 29.0857 103.953 29.7648C103.807 30.8805 105.214 30.5894 105.796 30.2013C107.882 29.2312 109.774 27.8729 111.472 26.2722C111.908 19.0445 113.266 11.9138 114.188 4.73457C114.722 2.21215 118.845 2.30916 119.184 4.63755ZM16.5898 0.853919C18.9667 7.45103 20.2764 14.3877 21.3436 21.2758C22.0227 20.4997 22.1682 19.4325 22.5563 18.4624C24.1085 14.2907 25.5638 10.0705 27.3101 5.94727C27.9892 4.3465 28.6683 2.69723 29.7355 1.24199C30.1235 0.61138 30.8997 0.320328 31.6273 0.465853C32.7915 1.19347 33.034 2.64872 33.1796 3.86142C33.8587 11.2832 34.2467 18.7534 34.8773 26.1752C35.0229 28.4065 35.993 30.5894 35.896 32.8208C35.508 34.9551 31.5788 35.1977 31.3363 32.8208C30.5601 25.496 29.978 18.0743 29.687 10.7011C27.5526 16.0855 26.0974 21.7609 23.9145 27.1453C23.0899 28.6006 22.0227 30.7349 20.0339 30.4924C18.8212 30.4439 18.7726 29.0856 18.5786 28.2125C17.3659 22.9736 16.2502 17.7347 15.2801 12.4474C13.7278 18.2198 12.03 23.9923 9.11953 29.2797C7.85832 31.414 6.35457 33.7424 3.73513 34.4215C2.47392 34.8581 0.388065 34.9551 0 33.3544C0 31.7051 1.98883 31.3655 2.91049 30.2984C4.60827 28.3095 5.67545 25.8841 6.69412 23.5072C9.5076 16.3765 11.3994 8.90627 13.1942 1.48453C13.3397 -0.067734 15.9107 -0.601325 16.5898 0.853919ZM74.2174 21.4214C71.1614 23.1192 71.307 27.7274 73.7324 29.9103C75.0906 31.026 77.2249 30.3954 78.2436 29.0857C79.8444 27.0968 79.6018 24.1863 78.2436 22.149C77.322 20.8878 75.4787 20.6937 74.2174 21.4214ZM119.864 21.2273C116.856 22.4885 115.352 26.5147 117.147 29.2797C118.069 30.7349 120.155 30.6379 121.561 30.0558C124.617 28.6976 125.733 24.4774 123.841 21.7609C122.968 20.4512 121.125 20.6452 119.864 21.2273ZM156.924 21.3244C153.528 22.5856 153.286 27.4364 155.663 29.7648C156.39 30.4439 157.7 30.6864 158.476 29.9103C160.319 28.2125 161.387 25.7871 161.823 23.3617C161.241 21.5184 158.67 20.7908 156.924 21.3244ZM138.442 21.0333C136.987 22.5371 136.841 24.7199 136.502 26.6602C138.345 25.5446 140.043 24.1863 141.644 22.7796C142.226 22.2945 142.711 21.4699 142.323 20.6937C141.304 19.5295 139.412 20.1117 138.442 21.0333ZM57.5306 17.2982C60.7322 18.6564 62.8665 22.0035 62.624 25.399C56.9 25.399 51.1761 25.4475 45.4521 25.3505C45.4521 23.0706 46.2283 20.7423 47.8775 19.1415C50.3029 16.6676 54.3291 15.8914 57.5306 17.2982Z" fill="white"/>
<path d="M57.2881 39.1268C57.6276 39.1268 57.9187 39.3209 57.9187 39.5634C57.9187 39.8059 57.6276 40 57.2881 40H48.0715C47.732 40 47.4409 39.8059 47.4409 39.5634C47.4409 39.3209 47.732 39.1268 48.0715 39.1268H57.2881Z" fill="white" fill-opacity="0.66"/>
<path d="M46.0825 40C46.4308 40 46.7131 39.7176 46.7131 39.3694C46.7131 39.0211 46.4308 38.7388 46.0825 38.7388C45.7342 38.7388 45.4519 39.0211 45.4519 39.3694C45.4519 39.7176 45.7342 40 46.0825 40Z" fill="white" fill-opacity="0.66"/>
<path d="M51.6129 37.6715C51.9612 37.6715 52.2435 37.3892 52.2435 37.0409C52.2435 36.6927 51.9612 36.4103 51.6129 36.4103C51.2646 36.4103 50.9823 36.6927 50.9823 37.0409C50.9823 37.3892 51.2646 37.6715 51.6129 37.6715Z" fill="white" fill-opacity="0.66"/>
<path d="M62.4296 36.4103C62.7692 36.4103 63.0602 36.7014 63.0602 37.0409C63.0602 37.3805 62.7692 37.6715 62.4296 37.6715H53.4071C53.0675 37.6715 52.7765 37.3805 52.7765 37.0409C52.7765 36.7014 53.0675 36.4103 53.4071 36.4103H62.4296Z" fill="white" fill-opacity="0.66"/>
<path d="M39.7766 35.3432C40.1249 35.3432 40.4072 35.0609 40.4072 34.7126C40.4072 34.3644 40.1249 34.082 39.7766 34.082C39.4283 34.082 39.146 34.3644 39.146 34.7126C39.146 35.0609 39.4283 35.3432 39.7766 35.3432Z" fill="white" fill-opacity="0.66"/>
<path d="M48.7506 34.082C49.0902 34.082 49.3812 34.3731 49.3812 34.7126C49.3812 35.0522 49.0902 35.3432 48.7506 35.3432H41.3288C40.9893 35.3432 40.6982 35.0522 40.6982 34.7126C40.6982 34.3731 40.9893 34.082 41.3288 34.082H48.7506Z" fill="white" fill-opacity="0.66"/>
<path d="M65.389 34.082C65.7286 34.082 66.0196 34.3731 66.0196 34.7126C66.0196 35.0522 65.7286 35.3432 65.389 35.3432H50.6426C50.303 35.3432 50.012 35.0522 50.012 34.7126C50.012 34.3731 50.303 34.082 50.6426 34.082H65.389Z" fill="white" fill-opacity="0.66"/>
<path d="M62.6237 31.7537C62.9632 31.7537 63.2543 32.0447 63.2543 32.3843C63.2543 32.7238 62.9632 33.0149 62.6237 33.0149H44.5301C44.1906 33.0149 43.8995 32.7238 43.8995 32.3843C43.8995 32.0447 44.1906 31.7537 44.5301 31.7537H62.6237Z" fill="white" fill-opacity="0.66"/>
<path d="M42.5416 33.0149C42.8899 33.0149 43.1722 32.7325 43.1722 32.3843C43.1722 32.036 42.8899 31.7537 42.5416 31.7537C42.1933 31.7537 41.911 32.036 41.911 32.3843C41.911 32.7325 42.1933 33.0149 42.5416 33.0149Z" fill="white" fill-opacity="0.66"/>
<path d="M58.84 29.4738C59.1795 29.4738 59.4706 29.7648 59.4706 30.1044C59.4706 30.444 59.1795 30.735 58.84 30.735H40.7465C40.4069 30.735 40.1158 30.444 40.1158 30.1044C40.1158 29.7648 40.4069 29.4738 40.7465 29.4738H58.84Z" fill="white" fill-opacity="0.66"/>
<path d="M38.5638 30.735C38.9121 30.735 39.1944 30.4527 39.1944 30.1044C39.1944 29.7561 38.9121 29.4738 38.5638 29.4738C38.2156 29.4738 37.9332 29.7561 37.9332 30.1044C37.9332 30.4527 38.2156 30.735 38.5638 30.735Z" fill="white" fill-opacity="0.66"/>
<path d="M42.5416 28.4066C42.8899 28.4066 43.1722 28.1243 43.1722 27.776C43.1722 27.4277 42.8899 27.1454 42.5416 27.1454C42.1933 27.1454 41.911 27.4277 41.911 27.776C41.911 28.1243 42.1933 28.4066 42.5416 28.4066Z" fill="white" fill-opacity="0.66"/>
<path d="M64.3706 27.1454C64.7101 27.1454 65.0012 27.4364 65.0012 27.776C65.0012 28.1155 64.7101 28.4066 64.3706 28.4066H44.6763C44.3367 28.4066 44.0457 28.1155 44.0457 27.776C44.0457 27.4364 44.3367 27.1454 44.6763 27.1454H64.3706Z" fill="white" fill-opacity="0.66"/>
</g>
<defs>
<clipPath id="clip0_504_172">
<rect width="209" height="40" fill="white"/>
</clipPath>
</defs>
</svg>
