<svg width="169" height="44" viewBox="0 0 169 44" fill="none" xmlns="http://www.w3.org/2000/svg">
<g clip-path="url(#clip0_506_259)">
<path d="M84.1222 9.16671V34.8333C84.121 34.9302 84.0819 35.0227 84.0134 35.0912C83.9449 35.1597 83.8524 35.1987 83.7556 35.2H81.0862C80.4735 35.2005 79.8705 35.0472 79.3324 34.7542C78.7943 34.4613 78.3383 34.038 78.0062 33.5231L65.8916 14.7987L66.3071 24.1511V34.8333C66.3059 34.9302 66.2668 35.0227 66.1984 35.0912C66.1299 35.1597 66.0373 35.1987 65.9405 35.2H62.4107C62.3139 35.1987 62.2213 35.1597 62.1528 35.0912C62.0843 35.0227 62.0453 34.9302 62.044 34.8333V9.16671C62.0453 9.06986 62.0843 8.97733 62.1528 8.90884C62.2213 8.84035 62.3139 8.80132 62.4107 8.80005H65.0654C65.6774 8.80037 66.2796 8.95347 66.8174 9.24544C67.3553 9.53741 67.8117 9.95902 68.1454 10.472L80.26 29.1671L79.8836 19.8489V9.16671C79.8836 9.06947 79.9222 8.97621 79.991 8.90744C80.0597 8.83868 80.153 8.80005 80.2502 8.80005H83.78C83.8725 8.80737 83.959 8.84907 84.0223 8.91693C84.0856 8.98479 84.1213 9.0739 84.1222 9.16671Z" fill="white"/>
<path d="M120.198 35.2001H116.463C116.404 35.1996 116.347 35.1851 116.295 35.1579C116.244 35.1307 116.199 35.0916 116.166 35.0437C116.132 34.9959 116.111 34.9408 116.103 34.883C116.095 34.8251 116.101 34.7663 116.12 34.7112L126.016 9.15215C126.058 9.04513 126.132 8.95384 126.229 8.89082C126.325 8.82779 126.438 8.79612 126.553 8.80015H131.232C131.343 8.8011 131.451 8.83511 131.542 8.89781C131.634 8.96051 131.704 9.04907 131.745 9.15215L141.611 34.7112C141.63 34.7663 141.637 34.8251 141.629 34.883C141.621 34.9408 141.599 34.9959 141.566 35.0437C141.532 35.0916 141.488 35.1307 141.436 35.1579C141.385 35.1851 141.327 35.1996 141.269 35.2001H137.534C137.459 35.2005 137.386 35.1783 137.324 35.1364C137.262 35.0945 137.214 35.035 137.187 34.9655L129.213 13.9433C129.187 13.8725 129.14 13.8113 129.079 13.7681C129.017 13.7249 128.943 13.7017 128.868 13.7017C128.793 13.7017 128.719 13.7249 128.658 13.7681C128.596 13.8113 128.549 13.8725 128.524 13.9433L120.55 34.9655C120.522 35.0357 120.473 35.0959 120.41 35.1378C120.348 35.1797 120.273 35.2015 120.198 35.2001Z" fill="white"/>
<path d="M167.541 34.6084L160.12 25.1289C164.31 24.3369 166.759 21.5111 166.759 17.1747C166.759 12.1929 163.518 8.80005 157.783 8.80005H147.433C147.288 8.80005 147.149 8.85774 147.046 8.96042C146.944 9.06311 146.886 9.20238 146.886 9.3476C146.886 9.80985 146.977 10.2676 147.154 10.6946C147.331 11.1217 147.59 11.5098 147.917 11.8366C148.244 12.1635 148.632 12.4228 149.059 12.5997C149.486 12.7765 149.944 12.8676 150.406 12.8676H157.353C160.819 12.8676 162.481 14.6423 162.481 17.204C162.481 19.7658 160.858 21.604 157.353 21.604H147.433C147.288 21.6053 147.149 21.6641 147.046 21.7675C146.943 21.871 146.886 22.0108 146.886 22.1565V34.8675C146.886 34.9648 146.925 35.0581 146.993 35.1268C147.062 35.1956 147.155 35.2342 147.253 35.2342H150.782C150.879 35.2329 150.972 35.1939 151.04 35.1254C151.109 35.0569 151.148 34.9644 151.149 34.8675V25.3587H155.221L161.66 33.7627C162.005 34.2124 162.449 34.5762 162.958 34.8255C163.467 35.0749 164.027 35.203 164.593 35.2H167.273C167.339 35.1963 167.404 35.1744 167.459 35.1366C167.515 35.0988 167.558 35.0466 167.586 34.9856C167.614 34.9247 167.624 34.8573 167.616 34.7908C167.609 34.7243 167.583 34.6612 167.541 34.6084Z" fill="white"/>
<path d="M109.036 8.80005H92.6583C92.5286 8.80005 92.4043 8.85156 92.3126 8.94324C92.2209 9.03492 92.1694 9.15928 92.1694 9.28894C92.1694 10.2394 92.547 11.1508 93.219 11.8229C93.8911 12.4949 94.8025 12.8725 95.753 12.8725H109.036C109.084 12.8731 109.132 12.8641 109.177 12.8459C109.222 12.8277 109.263 12.8007 109.297 12.7666C109.331 12.7324 109.358 12.6917 109.376 12.6469C109.394 12.6021 109.403 12.5542 109.403 12.5058V9.16671C109.403 9.06947 109.364 8.97621 109.295 8.90744C109.227 8.83868 109.133 8.80005 109.036 8.80005ZM109.036 31.1276H96.8138C96.717 31.1263 96.6245 31.0873 96.556 31.0188C96.4875 30.9503 96.4484 30.8577 96.4472 30.7609V24.1413C96.4472 24.0441 96.4858 23.9508 96.5546 23.8821C96.6233 23.8133 96.7166 23.7747 96.8138 23.7747H108.112C108.209 23.7747 108.303 23.7361 108.371 23.6673C108.44 23.5985 108.479 23.5053 108.479 23.408V20.0445C108.479 19.9472 108.44 19.854 108.371 19.7852C108.303 19.7164 108.209 19.6778 108.112 19.6778H92.717C92.5713 19.6791 92.432 19.7379 92.3295 19.8413C92.2269 19.9448 92.1694 20.0846 92.1694 20.2302V34.6329C92.1694 34.7781 92.2271 34.9174 92.3298 35.0201C92.4325 35.1227 92.5717 35.1804 92.717 35.1804H109.036C109.133 35.1804 109.227 35.1418 109.295 35.073C109.364 35.0043 109.403 34.911 109.403 34.8138V31.4747C109.399 31.3804 109.359 31.2914 109.29 31.2266C109.222 31.1617 109.13 31.1262 109.036 31.1276Z" fill="white"/>
<path d="M35.7372 2.23431L26.5363 15.8889C26.3872 16.086 26.3183 16.3323 26.3433 16.5781C26.3684 16.824 26.4857 17.0512 26.6715 17.2141C26.8573 17.377 27.098 17.4635 27.345 17.4562C27.592 17.4489 27.8271 17.3483 28.003 17.1747L37.0572 9.35252C37.1094 9.30465 37.1745 9.27315 37.2444 9.26194C37.3143 9.25072 37.386 9.26029 37.4506 9.28944C37.5151 9.31859 37.5697 9.36605 37.6075 9.42593C37.6454 9.48581 37.6648 9.55548 37.6634 9.62629V34.2125C37.6626 34.2871 37.6391 34.3598 37.596 34.4207C37.5529 34.4816 37.4922 34.5279 37.422 34.5534C37.3519 34.5789 37.2756 34.5824 37.2034 34.5634C37.1312 34.5444 37.0666 34.5039 37.018 34.4471L9.64035 1.69164C9.20328 1.16578 8.65648 0.741891 8.03828 0.449683C7.42008 0.157475 6.74545 0.00402552 6.06169 9.17703e-05H5.10835C3.8649 9.17703e-05 2.67238 0.49405 1.79313 1.3733C0.91388 2.25255 0.419922 3.44508 0.419922 4.68853V39.3116C0.419922 40.555 0.91388 41.7475 1.79313 42.6268C2.67238 43.506 3.8649 44 5.10835 44C5.90955 43.9999 6.69736 43.7945 7.39659 43.4034C8.09583 43.0122 8.68317 42.4484 9.10257 41.7658L18.3034 28.1111C18.4525 27.9141 18.5214 27.6678 18.4964 27.422C18.4713 27.1761 18.354 26.9489 18.1682 26.786C17.9824 26.6231 17.7418 26.5366 17.4947 26.5439C17.2477 26.5512 17.0126 26.6518 16.8368 26.8254L7.78257 34.6476C7.73037 34.6954 7.66526 34.7269 7.59533 34.7382C7.52539 34.7494 7.45371 34.7398 7.38916 34.7106C7.3246 34.6815 7.27003 34.634 7.2322 34.5742C7.19437 34.5143 7.17495 34.4446 7.17635 34.3738V9.81207C7.17709 9.73743 7.20059 9.66478 7.24372 9.60385C7.28684 9.54292 7.34754 9.49661 7.41769 9.4711C7.48785 9.44559 7.56412 9.4421 7.63631 9.46109C7.7085 9.48009 7.77317 9.52067 7.82168 9.5774L35.1994 42.3329C35.6398 42.854 36.1886 43.2727 36.8075 43.5598C37.4265 43.8469 38.1006 43.9955 38.7829 43.9951H39.7607C40.3764 43.9951 40.9861 43.8738 41.5549 43.6382C42.1237 43.4026 42.6406 43.0573 43.0759 42.6219C43.5113 42.1865 43.8566 41.6697 44.0923 41.1009C44.3279 40.532 44.4491 39.9224 44.4491 39.3067V4.68853C44.4492 4.07036 44.3269 3.45829 44.0895 2.88754C43.852 2.31679 43.504 1.79864 43.0656 1.36289C42.6271 0.927141 42.1068 0.582408 41.5346 0.348524C40.9624 0.11464 40.3495 -0.00377582 39.7314 9.17703e-05C38.9302 0.00018789 38.1424 0.205601 37.4431 0.59673C36.7439 0.987858 36.1566 1.55165 35.7372 2.23431Z" fill="white"/>
</g>
<defs>
<clipPath id="clip0_506_259">
<rect width="168" height="44" fill="white" transform="translate(0.419922)"/>
</clipPath>
</defs>
</svg>
