<svg width="167" height="48" viewBox="0 0 167 48" fill="none" xmlns="http://www.w3.org/2000/svg">
<g clip-path="url(#clip0_504_162)">
<path d="M67.6 35.17C65.7011 35.1926 63.8304 34.7094 62.18 33.77C60.5531 32.8641 59.1993 31.5379 58.26 29.93C57.2852 28.2232 56.7878 26.2854 56.82 24.32C56.82 22.26 57.3 20.42 58.26 18.77C59.1913 17.1456 60.5461 15.8046 62.18 14.89C63.8332 13.9586 65.7026 13.4792 67.6 13.5C69.58 13.5 71.39 13.96 73.01 14.9C74.655 15.8578 76.0156 17.236 76.9523 18.8931C77.8889 20.5502 78.3679 22.4267 78.34 24.33C78.34 26.4 77.86 28.27 76.9 29.93C75.976 31.5454 74.6272 32.8769 73 33.78C71.3507 34.7133 69.4849 35.1961 67.59 35.18L67.6 35.17ZM67.6 31.38C68.86 31.38 69.97 31.1 70.94 30.53C71.9102 29.9337 72.6906 29.0735 73.19 28.05C73.74 26.98 74.01 25.73 74.01 24.32C74.01 22.91 73.74 21.67 73.19 20.62C72.6953 19.6012 71.9131 18.7495 70.94 18.17C69.924 17.5899 68.7697 17.2962 67.6 17.32C66.4175 17.2954 65.2502 17.589 64.22 18.17C63.2469 18.7495 62.4647 19.6012 61.97 20.62C61.4028 21.7694 61.1215 23.0387 61.15 24.32C61.15 25.73 61.42 26.98 61.97 28.05C62.4694 29.0735 63.2498 29.9337 64.22 30.53C65.21 31.1 66.33 31.38 67.6 31.38ZM89.21 17.93C91.2 17.93 92.81 18.56 94.03 19.83C95.25 21.09 95.86 22.85 95.86 25.11V34.96H91.66V25.68C91.66 24.35 91.32 23.33 90.66 22.62C90.3143 22.2528 89.8928 21.9652 89.4249 21.7769C88.957 21.5887 88.4537 21.5045 87.95 21.53C87.4365 21.505 86.9236 21.5902 86.4458 21.7799C85.968 21.9697 85.5364 22.2595 85.18 22.63C84.52 23.33 84.18 24.35 84.18 25.68V34.96H79.98V18.16H84.18V20.26C84.7455 19.5288 85.4798 18.9455 86.32 18.56C87.2261 18.1319 88.218 17.9165 89.22 17.93H89.21ZM114.17 26.2C114.175 26.7491 114.135 27.2976 114.05 27.84H101.85C101.96 29.04 102.38 30 103.12 30.69C103.864 31.3779 104.847 31.7476 105.86 31.72C107.43 31.72 108.54 31.04 109.2 29.68H113.75C113.282 31.2771 112.31 32.6801 110.98 33.68C109.523 34.7422 107.752 35.2877 105.95 35.23C104.35 35.23 102.9 34.88 101.62 34.17C100.361 33.4476 99.3288 32.3878 98.64 31.11C97.9134 29.7053 97.5491 28.1413 97.58 26.56C97.58 24.83 97.94 23.3 98.64 21.99C99.3067 20.7139 100.332 19.6607 101.59 18.96C102.926 18.232 104.429 17.8633 105.95 17.89C107.54 17.89 108.95 18.24 110.2 18.93C111.445 19.5969 112.462 20.6208 113.12 21.87C113.84 23.1978 114.202 24.69 114.17 26.2ZM109.81 24.99C109.818 24.4963 109.717 24.0068 109.513 23.5572C109.309 23.1075 109.007 22.7088 108.63 22.39C107.856 21.7145 106.857 21.3541 105.83 21.38C104.79 21.38 103.91 21.7 103.18 22.35C102.48 22.98 102.05 23.85 101.88 24.99H109.81ZM128.2 34.96L120.56 25.53V34.96H116.34V13.8H120.56V23.29L128.2 13.8H133.3L124.62 24.29L133.53 34.96H128.2Z" fill="white"/>
<path d="M148.5 26.2C148.5 26.8 148.45 27.35 148.37 27.84H136.18C136.28 29.04 136.71 30 137.45 30.69C138.194 31.3779 139.177 31.7475 140.19 31.72C141.75 31.72 142.87 31.04 143.53 29.68H148.07C147.601 31.2767 146.63 32.6795 145.3 33.68C143.845 34.74 142.079 35.2854 140.28 35.23C138.68 35.23 137.23 34.88 135.94 34.17C134.681 33.4475 133.649 32.3877 132.96 31.11C132.237 29.7043 131.876 28.1404 131.91 26.56C131.91 24.83 132.26 23.3 132.96 21.99C133.627 20.7138 134.652 19.6606 135.91 18.96C137.249 18.2302 138.755 17.8615 140.28 17.89C141.86 17.89 143.28 18.24 144.52 18.93C145.765 19.5968 146.782 20.6207 147.44 21.87C148.159 23.198 148.521 24.6901 148.49 26.2H148.5ZM144.13 24.99C144.14 24.497 144.04 24.008 143.837 23.5584C143.635 23.1088 143.335 22.7097 142.96 22.39C142.186 21.7144 141.187 21.354 140.16 21.38C139.162 21.3469 138.191 21.7047 137.453 22.3771C136.716 23.0496 136.269 23.9835 136.21 24.98H144.13V24.99ZM166.02 18.17L155.69 42.9H151.21L154.82 34.53L148.14 18.17H152.86L157.16 29.9L161.53 18.17H166.02Z" fill="white"/>
<path fill-rule="evenodd" clip-rule="evenodd" d="M24.82 48C41.39 48 48.82 40.57 48.82 24C48.82 7.43 41.39 0 24.82 0C8.25 0 0.82 7.43 0.82 24C0.82 40.57 8.25 48 24.82 48ZM20.32 10.18H26.99V21.18H22.85V13.72H19.14L20.31 10.18H20.32ZM24.82 37.82C26.8396 37.82 28.7765 37.0177 30.2046 35.5896C31.6327 34.1615 32.435 32.2246 32.435 30.205C32.435 28.1854 31.6327 26.2485 30.2046 24.8204C28.7765 23.3923 26.8396 22.59 24.82 22.59C22.8004 22.59 20.8635 23.3923 19.4354 24.8204C18.0073 26.2485 17.205 28.1854 17.205 30.205C17.205 32.2246 18.0073 34.1615 19.4354 35.5896C20.8635 37.0177 22.8004 37.82 24.82 37.82ZM24.82 34.37C25.9233 34.37 26.9814 33.9317 27.7616 33.1516C28.5417 32.3714 28.98 31.3133 28.98 30.21C28.98 29.1067 28.5417 28.0486 27.7616 27.2684C26.9814 26.4883 25.9233 26.05 24.82 26.05C23.7167 26.05 22.6586 26.4883 21.8784 27.2684C21.0983 28.0486 20.66 29.1067 20.66 30.21C20.66 31.3133 21.0983 32.3714 21.8784 33.1516C22.6586 33.9317 23.7167 34.37 24.82 34.37Z" fill="white"/>
</g>
<defs>
<clipPath id="clip0_504_162">
<rect width="167" height="48" fill="white"/>
</clipPath>
</defs>
</svg>
