<svg width="200" height="28" viewBox="0 0 200 28" fill="none" xmlns="http://www.w3.org/2000/svg">
<path d="M10.0988 26.93C7.13148 26.93 4.70029 26.2319 2.80521 24.8355C0.935071 23.4141 0 21.3944 0 18.7763C0 18.2276 0.062338 17.5544 0.187015 16.7565C0.511172 14.9612 0.972473 12.8042 1.57092 10.2858C3.26652 3.4286 7.64265 0 14.6993 0C16.6193 0 18.3399 0.324159 19.8609 0.972475C21.382 1.59585 22.5788 2.5434 23.4516 3.81509C24.3243 5.06185 24.7607 6.55797 24.7607 8.30344C24.7607 8.82708 24.6984 9.48785 24.5737 10.2858C24.1996 12.505 23.7508 14.6619 23.2272 16.7565C22.3544 20.1727 20.8459 22.7285 18.7015 24.424C16.5569 26.0947 13.6895 26.93 10.0988 26.93ZM10.6224 21.544C12.0188 21.544 13.2032 21.1327 14.1757 20.3097C15.1731 19.4869 15.8837 18.2276 16.3076 16.532C16.8812 14.1881 17.3175 12.1435 17.6168 10.398C17.7165 9.87436 17.7664 9.33824 17.7664 8.78967C17.7664 6.52056 16.5819 5.38601 14.2131 5.38601C12.8167 5.38601 11.6198 5.79744 10.6224 6.62031C9.64993 7.44317 8.95175 8.7024 8.52785 10.398C8.07901 12.0687 7.63019 14.1133 7.18135 16.532C7.0816 17.0308 7.03173 17.5544 7.03173 18.1029C7.03173 20.3971 8.22863 21.544 10.6224 21.544Z" fill="#F8F8F8"/>
<path d="M28.556 26.556C28.2816 26.556 28.0697 26.4688 27.9201 26.2943C27.7955 26.0947 27.758 25.8703 27.8079 25.6209L32.9695 1.3091C33.0193 1.03481 33.1565 0.810391 33.3809 0.635845C33.6053 0.461298 33.8423 0.374023 34.0916 0.374023H44.0407C46.8085 0.374023 49.0277 0.947534 50.6984 2.09456C52.394 3.24158 53.2419 4.89977 53.2419 7.06913C53.2419 7.69252 53.1671 8.34084 53.0175 9.01409C52.394 11.8816 51.1348 14.0012 49.2397 15.3725C47.3696 16.744 44.8012 17.4297 41.5347 17.4297H36.4853L34.7648 25.6209C34.7149 25.8952 34.5779 26.1196 34.3533 26.2943C34.1289 26.4688 33.8921 26.556 33.6427 26.556H28.556ZM41.7965 12.2681C42.8439 12.2681 43.754 11.9814 44.5269 11.4079C45.3249 10.8344 45.8485 10.0115 46.0979 8.93928C46.1727 8.51538 46.2101 8.14136 46.2101 7.8172C46.2101 7.09408 45.9981 6.54549 45.5743 6.17146C45.1504 5.7725 44.4272 5.57302 43.4049 5.57302H38.9165L37.4952 12.2681H41.7965Z" fill="#F8F8F8"/>
<path d="M61.6692 26.556C61.395 26.556 61.183 26.4688 61.0334 26.2943C60.8838 26.0947 60.8339 25.8703 60.8838 25.6209L65.0355 6.24628H58.3778C58.1035 6.24628 57.8915 6.159 57.7419 5.98445C57.6172 5.78497 57.5799 5.56056 57.6298 5.3112L58.49 1.3091C58.5399 1.03481 58.677 0.810391 58.9014 0.635845C59.1258 0.461298 59.3627 0.374023 59.612 0.374023H79.7349C80.0091 0.374023 80.221 0.461298 80.3707 0.635845C80.4704 0.785455 80.5203 0.935066 80.5203 1.08468C80.5203 1.15948 80.5078 1.23429 80.4828 1.3091L79.6226 5.3112C79.5727 5.58549 79.4356 5.8099 79.2111 5.98445C79.0116 6.159 78.7748 6.24628 78.5006 6.24628H71.8802L67.7284 25.6209C67.6786 25.8952 67.5415 26.1196 67.3171 26.2943C67.0926 26.4688 66.8558 26.556 66.6064 26.556H61.6692Z" fill="#F8F8F8"/>
<path d="M81.4743 26.556C81.2001 26.556 80.9882 26.4688 80.8386 26.2943C80.6889 26.0947 80.639 25.8703 80.6889 25.6209L85.8879 1.3091C85.9378 1.03481 86.075 0.810391 86.2994 0.635845C86.5238 0.461298 86.7606 0.374023 87.0101 0.374023H92.0594C92.3337 0.374023 92.5457 0.461298 92.6953 0.635845C92.795 0.785455 92.8449 0.935066 92.8449 1.08468C92.8449 1.15948 92.8323 1.23429 92.8074 1.3091L87.6458 25.6209C87.5959 25.8952 87.4589 26.1196 87.2345 26.2943C87.0101 26.4688 86.7731 26.556 86.5238 26.556H81.4743Z" fill="#F8F8F8"/>
<path d="M95.7164 26.556C95.4421 26.556 95.2301 26.4688 95.0805 26.2943C94.9309 26.1196 94.8811 25.8952 94.9309 25.6209L100.093 1.3091C100.142 1.03481 100.279 0.810391 100.504 0.635845C100.728 0.461298 100.978 0.374023 101.252 0.374023H105.291C105.89 0.374023 106.276 0.648311 106.451 1.19689L110.528 12.9788L119.617 1.19689C119.741 0.997405 119.916 0.810391 120.14 0.635845C120.39 0.461298 120.689 0.374023 121.038 0.374023H125.115C125.389 0.374023 125.601 0.461298 125.751 0.635845C125.851 0.785455 125.901 0.935066 125.901 1.08468C125.901 1.15948 125.888 1.23429 125.863 1.3091L120.701 25.6209C120.652 25.8952 120.514 26.1196 120.29 26.2943C120.066 26.4688 119.829 26.556 119.579 26.556H115.054C114.779 26.556 114.567 26.4688 114.418 26.2943C114.293 26.0947 114.256 25.8703 114.306 25.6209L117.223 11.8193L111.5 19.4121C111.251 19.6864 111.014 19.8983 110.79 20.0479C110.565 20.1976 110.303 20.2724 110.004 20.2724H108.059C107.536 20.2724 107.174 19.9856 106.975 19.4121L104.319 11.4827L101.327 25.6209C101.277 25.8952 101.14 26.1196 100.915 26.2943C100.691 26.4688 100.454 26.556 100.205 26.556H95.7164Z" fill="#F8F8F8"/>
<path d="M128.731 26.556C128.457 26.556 128.245 26.4688 128.095 26.2943C127.946 26.0947 127.896 25.8703 127.946 25.6209L133.145 1.3091C133.195 1.03481 133.332 0.810391 133.556 0.635845C133.78 0.461298 134.017 0.374023 134.267 0.374023H139.316C139.591 0.374023 139.803 0.461298 139.952 0.635845C140.052 0.785455 140.101 0.935066 140.101 1.08468C140.101 1.15948 140.089 1.23429 140.064 1.3091L134.903 25.6209C134.853 25.8952 134.716 26.1196 134.491 26.2943C134.267 26.4688 134.029 26.556 133.78 26.556H128.731Z" fill="#F8F8F8"/>
<path d="M152.212 26.93C150.017 26.93 148.135 26.6308 146.564 26.0324C145.017 25.434 143.845 24.636 143.048 23.6387C142.275 22.6412 141.888 21.5316 141.888 20.3097C141.888 20.1103 141.913 19.8111 141.963 19.4121C142.013 19.1876 142.113 19.0007 142.263 18.8511C142.437 18.7015 142.636 18.6267 142.861 18.6267H147.648C147.948 18.6267 148.172 18.6765 148.321 18.7763C148.496 18.876 148.671 19.0505 148.845 19.2999C149.02 19.9481 149.419 20.4843 150.043 20.9081C150.691 21.3321 151.576 21.544 152.697 21.544C154.119 21.544 155.267 21.3196 156.139 20.8708C157.012 20.422 157.536 19.8111 157.709 19.038C157.735 18.9383 157.747 18.7887 157.747 18.5892C157.747 17.9659 157.361 17.4796 156.588 17.1305C155.815 16.7565 154.393 16.3201 152.324 15.8215C149.905 15.2977 148.072 14.5123 146.825 13.4651C145.579 12.3928 144.956 10.9964 144.956 9.27591C144.956 8.67747 145.031 8.06655 145.18 7.44317C145.679 5.12419 146.913 3.30392 148.883 1.98235C150.877 0.660784 153.445 0 156.588 0C158.483 0 160.167 0.336625 161.637 1.00988C163.108 1.68313 164.243 2.5434 165.041 3.59068C165.864 4.61301 166.275 5.63536 166.275 6.65771C166.275 6.95693 166.263 7.16888 166.237 7.29356C166.188 7.51797 166.076 7.70499 165.901 7.8546C165.752 8.00421 165.564 8.07901 165.34 8.07901H160.328C159.78 8.07901 159.405 7.86707 159.207 7.44317C159.181 6.86965 158.881 6.38343 158.308 5.98445C157.735 5.58549 156.987 5.38601 156.064 5.38601C154.967 5.38601 154.057 5.58549 153.333 5.98445C152.636 6.38343 152.199 6.9694 152.025 7.74239C152 7.86707 151.987 8.02915 151.987 8.22863C151.987 8.82707 152.336 9.32577 153.035 9.72475C153.757 10.0988 155.017 10.4853 156.812 10.8842C159.605 11.4328 161.637 12.2183 162.909 13.2406C164.205 14.2629 164.853 15.6219 164.853 17.3175C164.853 17.8911 164.779 18.5144 164.629 19.1876C164.081 21.7311 162.747 23.6636 160.627 24.9851C158.533 26.2817 155.728 26.93 152.212 26.93Z" fill="#F8F8F8"/>
<path d="M169.816 26.556C169.541 26.556 169.329 26.4688 169.18 26.2943C169.031 26.1196 168.98 25.8952 169.031 25.6209L174.192 1.3091C174.241 1.03481 174.379 0.810391 174.604 0.635845C174.828 0.461298 175.077 0.374023 175.352 0.374023H179.391C179.989 0.374023 180.376 0.648311 180.551 1.19689L184.628 12.9788L193.716 1.19689C193.841 0.997405 194.016 0.810391 194.24 0.635845C194.489 0.461298 194.788 0.374023 195.137 0.374023H199.215C199.489 0.374023 199.701 0.461298 199.851 0.635845C199.951 0.785455 200 0.935066 200 1.08468C200 1.15948 199.988 1.23429 199.963 1.3091L194.801 25.6209C194.751 25.8952 194.613 26.1196 194.389 26.2943C194.165 26.4688 193.928 26.556 193.679 26.556H189.153C188.879 26.556 188.667 26.4688 188.517 26.2943C188.392 26.0947 188.355 25.8703 188.405 25.6209L191.323 11.8193L185.6 19.4121C185.351 19.6864 185.113 19.8983 184.889 20.0479C184.665 20.1976 184.403 20.2724 184.104 20.2724H182.159C181.635 20.2724 181.273 19.9856 181.075 19.4121L178.419 11.4827L175.427 25.6209C175.376 25.8952 175.239 26.1196 175.015 26.2943C174.791 26.4688 174.553 26.556 174.304 26.556H169.816Z" fill="#F8F8F8"/>
</svg>
