<svg width="206" height="44" viewBox="0 0 206 44" fill="none" xmlns="http://www.w3.org/2000/svg">
<g clip-path="url(#clip0_504_207)">
<path d="M64.2 6.6C62.2879 6.57158 60.3779 6.73913 58.5 7.1C57.1 7.5 56.8 8.1 56.5 9.4L51.1 34.5L51 36C51 37.2 51.9 38 53.2 38C54.7 38 55.2 37.1 55.6 35.7L57.1 28.5C58.1 28.6 59.6 28.8 61.6 28.8C70.6 28.8 76.1 24 76.1 16.8C76.1 10.3 71.6 6.7 64.3 6.7L64.2 6.6ZM61.2 24.6L57.9 24.4L60.7 11C61.7 10.9 63 10.7 64.3 10.7C69.1 10.7 71.5 12.9 71.5 16.7C71.5 21.3 68 24.5 61.3 24.5L61.2 24.6ZM204.2 29.6C203.5 29.6 203 30.1 202.1 31.1C200.5 32.7 199.5 33.6 198.3 33.6C197.1 33.6 196.5 32.7 196.5 31.3C196.5 30.4 196.7 29.4 196.9 28.3L198.5 20.9H203.3C204.8 20.9 205.7 20 205.7 18.5C205.7 17.6 205.1 17 203.8 17H199.3L200.1 13.5L200.3 12.1C200.3 10.9 199.5 10.1 198.1 10.1C196.7 10.1 196.1 11 195.8 12.4L194.8 17H192.8C191.2 17 190.3 17.9 190.3 19.4C190.3 20.3 190.9 20.9 192.2 20.9H193.9L192.4 28.3C192.138 29.4484 192.004 30.6222 192 31.8C192 35.3 193.8 37.8 197.7 37.8C199.9 37.8 201.9 36.8 203.4 35.4C204.9 34.1 205.9 32.5 205.9 31.4C205.9 30.5 205.2 29.7 204.2 29.7V29.6ZM105.4 9.2C105.4 8 104.5 7.2 103.2 7.2C101.8 7.2 101.2 8.2 100.8 9.6L95.4 34.6L95.2 35.9C95.2 37.1 96.1 37.9 97.4 37.9C98.9 37.9 99.4 36.9 99.8 35.5L105.2 10.5L105.4 9.2ZM182.1 16.7C175.1 16.7 170.5 23.5 170.5 30V30.4C169.5 32 168 33.7 167.1 33.7C166.4 33.7 166.1 33.1 166.1 32.1C166.1 30.9 166.5 28.9 166.9 27.1L170.4 10.6L170.6 9.2C170.6 8 169.8 7.2 168.4 7.2C167 7.2 166.4 8.2 166.1 9.6L164.1 18.5C163.1 17.5 161.6 16.7 159.4 16.7C154.8 16.7 150.2 20.2 148.4 25.6C146.4 30.7 144.7 33.7 143.3 33.7C142.8 33.7 142.5 33.3 142.5 32.6C142.5 30.4 143.7 25.1 144.2 22.6L144.5 20.7C144.5 18.8 141.3 16.7 137.2 16.7C132.5 16.7 128.2 19.6 126.1 24.1C122.9 29.7 120 33.7 118.6 33.7C117.9 33.7 117.7 32.9 117.6 32.1L116.5 26.2L123 20.8C123.7 20.3 124.4 19.6 124.4 18.6C124.4 17.5 123.6 16.7 122.5 16.7C121.6 16.7 120.9 17.2 120.2 17.9L110.3 26L113.6 10.6L113.8 9.2C113.8 8 113 7.2 111.6 7.2C110.2 7.2 109.6 8.2 109.3 9.6L103.9 34.6L103.7 35.9C103.7 37.1 104.5 37.9 105.8 37.9C107.3 37.9 107.9 37 108.2 35.6L108.9 32.3L112.9 29.1L113.9 34.1C114.3 36.1 115.4 38 118 38C120.7 38 122.8 35.5 124.9 32.3C125.5 35.7 127.9 38 131.3 38C134.7 38 137 36 138.5 33.2V33.3C138.5 36.1 139.9 38 142.5 38C144.7 38 146.5 36.6 148.2 33.7C149.2 36.2 151.3 38 154.2 38C157.8 38 160.2 35.9 161.8 33V33.2C161.8 36.2 163.4 38 165.9 38C168.1 38 170.1 36.7 171.7 34.5C172.334 35.5998 173.255 36.5065 174.365 37.1231C175.475 37.7396 176.731 38.0427 178 38C184.9 38 189.6 31.1 189.6 24.6C189.6 20 186.8 16.6 182 16.6L182.1 16.7ZM139.2 25.4C138 30.8 135.3 33.9 132.3 33.9C130.3 33.9 129.1 32.3 129.1 29.9C129.1 25.4 132.5 20.5 136.9 20.5C138.2 20.5 139.3 20.9 140.1 21.5L139.2 25.5V25.4ZM163.2 23.1C161.8 29.4 158.6 33.8 155.2 33.8C153.3 33.8 152.2 32.3 152.2 29.9C152.2 25.4 155.4 20.6 159.6 20.6C161.3 20.6 162.6 21.1 163.4 21.9L163.2 23.1ZM178.6 33.8C176.1 33.8 175.1 32 175.1 29.8C175.1 25.6 177.9 20.8 181.5 20.8C184 20.8 185.1 22.6 185.1 24.8C185.1 29.1 182.1 33.8 178.6 33.8ZM86.6 16.7C79.8 16.7 75.1 23.5 75.1 30C75.1 34.6 77.9 38 82.7 38C89.6 38 94.2 31.1 94.2 24.6C94.2 20 91.4 16.6 86.7 16.6L86.6 16.7ZM83.2 33.8C80.7 33.8 79.6 32 79.6 29.8C79.6 25.6 82.6 20.8 86.1 20.8C88.6 20.8 89.6 22.6 89.6 24.8C89.6 29.1 86.8 33.8 83.2 33.8ZM21 0C25.4 0 29 2 29 4.6C29 7.2 25.4 9.3 21 9.3C16.7 9.3 13.1 7.2 13.1 4.6C13.1 2.1 16.6 0 21.1 0L21 0ZM21 34.7C25.4 34.7 29 36.8 29 39.4C29 41.9 25.4 44 21 44C16.7 44 13.1 42 13.1 39.4C13.1 36.8 16.6 34.7 21.1 34.7H21ZM2 11C4.2 7.2 7.7 5.2 10 6.4C12.1 7.7 12.2 11.8 10 15.6C7.8 19.4 4.2 21.5 2 20.2C-0.200001 18.9 -0.200001 14.8 2 11ZM32 28.4C34.3 24.6 37.8 22.5 40 23.8C42.2 25.1 42.2 29.2 40 33C37.9 36.8 34.3 38.8 32.1 37.6C29.9 36.3 29.9 32.2 32.1 28.4H32ZM2 23.8C4.2 22.5 7.8 24.6 10 28.4C12.2 32.2 12.1 36.3 10 37.6C7.7 38.8 4.2 36.8 2 33C-0.200001 29.2 -0.200001 25 2 23.8ZM32.1 6.4C34.3 5.2 37.9 7.2 40.1 11C42.2 14.8 42.2 19 40.1 20.2C37.8 21.5 34.3 19.4 32.1 15.6C29.9 11.8 29.9 7.7 32.1 6.4Z" fill="white"/>
</g>
<defs>
<clipPath id="clip0_504_207">
<rect width="206" height="44" fill="white"/>
</clipPath>
</defs>
</svg>
