<svg width="192" height="44" viewBox="0 0 192 44" fill="none" xmlns="http://www.w3.org/2000/svg">
<g clip-path="url(#clip0_504_109)">
<path d="M50.9 22.9V34.3C50.8963 35.0062 50.7103 35.6996 50.3599 36.3128C50.0095 36.926 49.5066 37.4383 48.9 37.8L38.9 43.4C38.2919 43.7511 37.6022 43.9359 36.9 43.9359C36.1979 43.9359 35.5081 43.7511 34.9 43.4L25.1 37.8C24.4934 37.4383 23.9906 36.926 23.6402 36.3128C23.2898 35.6996 23.1037 35.0062 23.1 34.3V31L28.1 28V33.6L37 38.7L45.8 33.6V23.5L37 18.3L16.3 30.3C15.6888 30.6415 15.0002 30.8209 14.3 30.8209C13.5998 30.8209 12.9113 30.6415 12.3 30.3L2.30001 24.6C1.71199 24.2261 1.22895 23.7086 0.896512 23.0962C0.56407 22.4838 0.393191 21.7968 0.400007 21.1V9.69999C0.403693 8.99374 0.589752 8.30042 0.940154 7.68721C1.29056 7.07401 1.79342 6.56172 2.40001 6.19999L12.3 0.599985C12.9081 0.248912 13.5979 0.0640869 14.3 0.0640869C15.0022 0.0640869 15.6919 0.248912 16.3 0.599985L26.2 6.19999C26.8066 6.56172 27.3095 7.07401 27.6599 7.68721C28.0103 8.30042 28.1963 8.99374 28.2 9.69999V13L23.2 16V10.4L14.2 5.29999L5.40001 10.4V20.6L14.3 25.8L35 13.8C35.6113 13.4584 36.2998 13.2791 37 13.2791C37.7002 13.2791 38.3888 13.4584 39 13.8L48.9 19.5C49.5066 19.8617 50.0095 20.374 50.3599 20.9872C50.7103 21.6004 50.8963 22.2937 50.9 23V22.9ZM68.4 38.4V29.5C69.4 30.7 71.1 31.5 73.2 31.5C78.3 31.5 81.8 27.7 81.8 22.2C81.8 16.6 78.6 12.9 73.6 12.9C71.3 12.9 69.5 13.8 68.4 15.1V13.1H63.4V38.4H68.4ZM72.5 27C69.9 27 68.1 25 68.1 22C68.1 19 69.9 17 72.5 17C75.1 17 76.9 19 76.9 22C76.9 25.1 75.2 27 72.5 27ZM93 31.4C94.2403 31.4693 95.4816 31.2812 96.6456 30.8474C97.8096 30.4135 98.8712 29.7434 99.7636 28.8793C100.656 28.0151 101.36 26.9755 101.831 25.826C102.302 24.6764 102.53 23.4419 102.5 22.2C102.544 20.9498 102.326 19.7043 101.862 18.5428C101.397 17.3814 100.695 16.3296 99.8014 15.4545C98.9075 14.5794 97.841 13.9003 96.6699 13.4604C95.4989 13.0206 94.249 12.8297 93 12.9C91.7592 12.844 90.5203 13.0455 89.3611 13.4918C88.202 13.9381 87.1478 14.6194 86.2649 15.493C85.3819 16.3665 84.6893 17.4134 84.2307 18.5677C83.7721 19.7219 83.5573 20.9587 83.6 22.2C83.5714 23.433 83.7965 24.6588 84.2613 25.8012C84.7262 26.9436 85.421 27.9783 86.3024 28.841C87.1839 29.7037 88.2332 30.376 89.3854 30.8162C90.5375 31.2564 91.7679 31.4551 93 31.4ZM93 27.1C90.4 27.1 88.6 25.1 88.6 22.1C88.6 19.2 90.4 17.1 93 17.1C95.7 17.1 97.5 19.1 97.5 22.1C97.5 25.1 95.7 27.1 93 27.1ZM110.5 31.1V5.39999H105.5V31H110.5V31.1ZM125.3 13.1L121.6 24.8L117.8 13.2H112.8L119.3 31L116.6 38.4H121.4L123.9 31.1L130.4 13.1H125.4H125.3ZM144.3 15C143.3 13.7 141.6 12.9 139.3 12.9C134.1 12.9 131 16.6 131 22.2C131 27.7 134.1 31.4 139.5 31.4C141.5 31.4 143.5 30.6 144.4 29.4V31.7C144.4 33.4 143.3 34.5 141.8 34.5H133.5V38.5H142.5C146.6 38.5 149.3 36 149.3 32.2V13.2H144.3V15ZM140.3 27.1C137.6 27.1 135.9 25.1 135.9 22.1C135.9 19.1 137.6 17.1 140.2 17.1C142.9 17.1 144.6 19.1 144.6 22.1C144.6 25.2 142.9 27.1 140.2 27.1H140.3ZM161.8 31.4C163.032 31.4551 164.262 31.2564 165.415 30.8162C166.567 30.376 167.616 29.7037 168.498 28.841C169.379 27.9783 170.074 26.9436 170.539 25.8012C171.004 24.6588 171.229 23.433 171.2 22.2C171.243 20.9587 171.028 19.7219 170.569 18.5677C170.111 17.4134 169.418 16.3665 168.535 15.493C167.652 14.6194 166.598 13.9381 165.439 13.4918C164.28 13.0455 163.041 12.844 161.8 12.9C160.551 12.8297 159.301 13.0206 158.13 13.4604C156.959 13.9003 155.893 14.5794 154.999 15.4545C154.105 16.3296 153.403 17.3814 152.938 18.5428C152.474 19.7043 152.256 20.9498 152.3 22.2C152.27 23.4419 152.498 24.6764 152.969 25.826C153.44 26.9755 154.144 28.0151 155.036 28.8793C155.929 29.7434 156.99 30.4135 158.154 30.8474C159.318 31.2812 160.56 31.4693 161.8 31.4ZM161.8 27.1C159.1 27.1 157.3 25.1 157.3 22.1C157.3 19.2 159.1 17.1 161.8 17.1C164.5 17.1 166.3 19.1 166.3 22.1C166.3 25.1 164.5 27.1 161.8 27.1ZM178.9 31.1V21.3C178.9 19 180.5 17.3 182.7 17.3C184.7 17.3 186.1 18.9 186.1 21.1V31.1H191.1V20C191.1 15.8 188.5 12.9 184.4 12.9C181.9 12.9 179.9 13.9 178.9 15.7V13.2H173.9V31.2H178.9V31.1Z" fill="white"/>
</g>
<defs>
<clipPath id="clip0_504_109">
<rect width="192" height="44" fill="white"/>
</clipPath>
</defs>
</svg>
