<svg width="20" height="20" viewBox="0 0 20 20" fill="none" xmlns="http://www.w3.org/2000/svg">
<path d="M19.3752 8.12494C19.3747 7.64638 19.2369 7.17801 18.9781 6.77547C18.7193 6.37292 18.3504 6.05311 17.9152 5.85403C17.48 5.65495 16.9969 5.58496 16.5231 5.65237C16.0493 5.71977 15.6048 5.92175 15.2424 6.23431C13.9299 5.539 12.3674 5.11713 10.7346 5.02338L11.1408 2.58588L12.844 2.8515C12.9239 3.29077 13.1566 3.68759 13.5011 3.97169C13.8455 4.25578 14.2794 4.40882 14.7258 4.40368C15.1723 4.39855 15.6025 4.23559 15.9403 3.94365C16.2781 3.65172 16.5017 3.24965 16.5715 2.80866C16.6413 2.36767 16.5527 1.91621 16.3215 1.53424C16.0904 1.15228 15.7315 0.864453 15.3084 0.721741C14.8853 0.57903 14.4254 0.590644 14.0101 0.754525C13.5948 0.918407 13.2509 1.22398 13.0393 1.61713L10.719 1.25775C10.5565 1.23294 10.3907 1.27314 10.2577 1.36965C10.1246 1.46616 10.0349 1.61121 10.008 1.77338L9.46897 5.01556C7.76585 5.08588 6.12522 5.50775 4.75804 6.23431C4.25974 5.82234 3.62122 5.61943 2.97652 5.66818C2.33182 5.71694 1.73107 6.01357 1.3004 6.49579C0.869736 6.97802 0.642638 7.60834 0.666785 8.25444C0.690932 8.90053 0.964448 9.51214 1.42991 9.96088C1.31173 10.3804 1.25128 10.8141 1.25022 11.2499C1.25022 12.9609 2.18772 14.5624 3.89866 15.7421C5.6096 16.9218 7.70335 17.4999 10.0002 17.4999C12.2971 17.4999 14.4612 16.8749 16.1018 15.7421C17.7424 14.6093 18.7502 12.9609 18.7502 11.2499C18.7497 10.8166 18.6893 10.3854 18.5705 9.96869C18.8236 9.73268 19.0255 9.44731 19.1639 9.13019C19.3023 8.81307 19.3742 8.47094 19.3752 8.12494ZM5.62522 10.3124C5.62522 10.0652 5.69853 9.82354 5.83589 9.61798C5.97324 9.41242 6.16846 9.2522 6.39687 9.15759C6.62528 9.06298 6.87661 9.03823 7.11909 9.08646C7.36156 9.13469 7.58429 9.25374 7.75911 9.42856C7.93392 9.60337 8.05297 9.8261 8.1012 10.0686C8.14944 10.3111 8.12468 10.5624 8.03007 10.7908C7.93546 11.0192 7.77525 11.2144 7.56969 11.3518C7.36412 11.4891 7.12245 11.5624 6.87522 11.5624C6.5437 11.5624 6.22576 11.4307 5.99134 11.1963C5.75692 10.9619 5.62522 10.644 5.62522 10.3124ZM12.8674 14.3046C11.9808 14.7617 10.9977 15.0001 10.0002 15.0001C9.00272 15.0001 8.01967 14.7617 7.13304 14.3046C6.99682 14.2231 6.89676 14.0927 6.85316 13.9401C6.80956 13.7874 6.82569 13.6239 6.89828 13.4827C6.97087 13.3415 7.09447 13.2332 7.24399 13.1798C7.39352 13.1264 7.55775 13.1319 7.70335 13.1953C8.41369 13.5612 9.20117 13.7521 10.0002 13.7521C10.7993 13.7521 11.5868 13.5612 12.2971 13.1953C12.4427 13.1319 12.6069 13.1264 12.7565 13.1798C12.906 13.2332 13.0296 13.3415 13.1022 13.4827C13.1748 13.6239 13.1909 13.7874 13.1473 13.9401C13.1037 14.0927 13.0036 14.2231 12.8674 14.3046ZM13.1252 11.5624C12.878 11.5624 12.6363 11.4891 12.4308 11.3518C12.2252 11.2144 12.065 11.0192 11.9704 10.7908C11.8758 10.5624 11.851 10.3111 11.8992 10.0686C11.9475 9.8261 12.0665 9.60337 12.2413 9.42856C12.4162 9.25374 12.6389 9.13469 12.8814 9.08646C13.1238 9.03823 13.3752 9.06298 13.6036 9.15759C13.832 9.2522 14.0272 9.41242 14.1646 9.61798C14.3019 9.82354 14.3752 10.0652 14.3752 10.3124C14.3752 10.644 14.2435 10.9619 14.0091 11.1963C13.7747 11.4307 13.4567 11.5624 13.1252 11.5624Z" fill="#A3A3A3"/>
</svg>
