<?xml version="1.0" standalone="no"?>
<!DOCTYPE svg PUBLIC "-//W3C//DTD SVG 20010904//EN"
 "http://www.w3.org/TR/2001/REC-SVG-20010904/DTD/svg10.dtd">
<svg version="1.0" xmlns="http://www.w3.org/2000/svg"
 width="1080.000000pt" height="1080.000000pt" viewBox="0 0 1080.000000 1080.000000"
 preserveAspectRatio="xMidYMid meet">
<metadata>
Created by potrace 1.14, written by Peter Selinger 2001-2017
</metadata>
<g transform="translate(0.000000,1080.000000) scale(0.100000,-0.100000)"
fill="#000000" stroke="none">
<path d="M5133 10643 c-147 -85 -287 -166 -310 -179 -51 -28 -472 -271 -493
-284 -8 -5 -37 -22 -65 -38 -89 -50 -649 -375 -680 -394 -16 -10 -37 -21 -45
-25 -8 -4 -62 -35 -120 -68 -58 -34 -213 -124 -345 -200 -132 -75 -267 -154
-300 -174 -33 -20 -67 -40 -75 -43 -8 -3 -57 -31 -109 -62 -51 -31 -96 -56
-98 -56 -3 0 -17 -8 -31 -19 -23 -16 -73 -44 -172 -98 -14 -8 -38 -22 -55 -32
-16 -10 -160 -93 -320 -186 -159 -92 -362 -209 -450 -260 -88 -51 -176 -102
-195 -113 -67 -38 -226 -129 -380 -218 l-155 -90 0 -2704 0 -2704 325 -188
c179 -104 336 -194 350 -202 14 -7 167 -95 340 -196 173 -100 335 -194 360
-208 25 -14 86 -48 135 -77 50 -29 106 -62 125 -73 19 -10 91 -52 160 -92 69
-40 143 -83 165 -96 22 -12 81 -45 130 -74 50 -29 106 -61 125 -72 19 -11 60
-35 90 -53 30 -18 75 -44 100 -58 25 -13 113 -64 195 -112 83 -48 253 -146
378 -219 125 -72 240 -138 255 -147 15 -9 47 -27 72 -41 25 -14 160 -92 300
-173 140 -81 269 -156 285 -165 39 -22 395 -228 608 -351 117 -68 174 -96 186
-91 10 4 42 22 72 40 45 28 259 152 424 247 144 82 595 342 720 415 224 130
615 356 725 418 25 13 57 33 72 43 14 11 29 19 32 19 4 0 78 42 151 87 11 7
27 15 35 19 8 4 51 29 95 55 76 44 146 85 500 289 228 131 538 310 750 433
105 60 206 118 225 129 19 11 109 63 200 116 91 52 179 103 195 112 249 143
450 261 458 269 10 10 13 5383 3 5399 -3 5 -47 33 -98 62 -51 30 -264 152
-473 273 -209 121 -393 228 -410 237 -52 29 -284 164 -420 242 -71 42 -146 85
-165 95 -20 11 -92 53 -160 93 -69 40 -141 82 -160 93 -45 25 -189 108 -215
124 -11 7 -27 16 -35 20 -8 4 -49 27 -90 51 -41 25 -91 54 -110 65 -19 11 -57
33 -85 49 -27 16 -58 32 -67 35 -10 3 -18 9 -18 14 0 5 -4 9 -10 9 -5 0 -89
47 -187 104 -98 56 -329 190 -513 296 -184 106 -445 257 -580 335 -135 78
-274 158 -310 179 -36 20 -72 41 -80 46 -60 39 -434 250 -441 250 -5 0 -9 4
-9 9 0 34 -56 9 -307 -136z m-106 -490 c-3 -5 -91 -156 -197 -338 -106 -181
-202 -346 -213 -365 -10 -19 -42 -73 -70 -120 -27 -47 -58 -98 -67 -115 -14
-25 -157 -270 -353 -605 -27 -47 -57 -98 -67 -115 -9 -16 -54 -93 -99 -169
-44 -76 -81 -140 -81 -142 0 -2 -16 -28 -35 -58 -19 -30 -35 -57 -35 -60 0 -2
-22 -41 -50 -86 -27 -45 -50 -83 -50 -85 0 -2 -24 -44 -53 -93 -30 -49 -57
-95 -61 -103 -4 -8 -12 -23 -19 -34 -7 -11 -25 -42 -41 -70 -16 -27 -46 -78
-68 -112 -21 -34 -38 -65 -38 -67 0 -3 -13 -26 -29 -53 -16 -26 -91 -154 -166
-283 -76 -129 -139 -237 -140 -238 -2 -2 -30 11 -62 30 -32 19 -65 37 -73 41
-8 4 -28 16 -45 27 -16 11 -37 23 -45 27 -8 4 -46 25 -85 48 -38 22 -77 44
-85 48 -8 4 -28 15 -45 25 -101 62 -277 162 -285 162 -6 0 -10 5 -10 10 0 6
-4 10 -9 10 -5 0 -119 64 -253 141 -133 78 -259 150 -278 161 -19 11 -125 72
-235 136 -110 63 -227 131 -260 150 -33 19 -77 44 -97 55 -21 11 -38 24 -38
28 0 6 166 106 313 188 21 12 107 61 190 110 84 48 260 150 392 225 132 76
252 147 267 157 15 10 30 19 33 19 3 0 101 55 218 123 289 168 617 358 647
374 14 8 41 23 60 35 19 11 123 71 230 133 283 163 691 399 820 474 51 29 316
181 388 223 26 14 97 56 157 91 107 63 131 75 122 60z m803 -16 c19 -13 49
-31 65 -39 17 -9 113 -64 215 -123 102 -59 203 -118 225 -130 22 -13 165 -95
318 -184 153 -89 282 -161 287 -161 6 0 10 -4 10 -10 0 -5 4 -10 8 -10 5 0
119 -64 253 -141 134 -78 264 -153 289 -167 25 -14 97 -55 160 -92 63 -37 131
-77 150 -87 19 -11 107 -62 195 -113 88 -51 176 -102 195 -112 44 -25 308
-179 335 -195 11 -7 27 -15 35 -19 8 -4 59 -34 113 -66 55 -32 101 -58 103
-58 2 0 21 -11 42 -23 20 -13 57 -35 82 -49 61 -34 560 -322 638 -368 l62 -37
-97 -58 c-54 -32 -118 -69 -143 -83 -25 -14 -99 -56 -165 -95 -66 -38 -133
-77 -150 -87 -131 -75 -353 -203 -650 -375 -192 -112 -370 -214 -395 -228 -25
-14 -103 -59 -174 -100 l-130 -75 -12 24 c-8 14 -44 78 -82 142 -38 64 -174
297 -302 517 -128 220 -247 425 -265 455 -18 30 -95 161 -170 290 -74 129
-140 242 -145 250 -21 34 -75 126 -85 145 -6 11 -52 90 -102 175 -98 166 -535
915 -563 965 -10 17 -48 82 -84 145 -37 63 -79 134 -92 158 -28 48 -23 52 26
19z m-537 -3640 c0 -1860 -2 -3394 -2 -3408 l-1 -26 -1990 0 -1990 0 19 31
c10 17 82 139 158 271 77 132 249 427 383 655 133 228 250 429 260 445 36 64
135 234 335 575 114 195 219 375 233 399 14 25 38 68 55 95 16 28 38 65 47 81
9 17 49 84 88 150 77 132 894 1532 922 1580 9 17 72 125 140 240 67 116 134
230 148 254 13 25 38 68 55 95 16 28 38 65 47 81 9 17 94 162 189 324 94 161
171 298 171 302 0 5 4 9 9 9 5 0 11 8 14 18 4 9 18 35 32 57 13 22 28 47 32
55 4 8 23 42 43 75 20 33 48 80 62 105 14 25 56 97 93 160 37 63 79 135 93
159 14 25 38 68 55 95 16 28 38 65 47 81 10 17 48 82 85 145 37 63 79 135 93
160 31 55 71 120 75 120 1 0 1 -1522 0 -3383z m970 2113 c11 -19 58 -100 105
-180 46 -80 93 -158 102 -175 10 -16 41 -70 70 -120 29 -49 60 -103 70 -120
33 -58 391 -670 401 -685 8 -14 400 -687 439 -755 10 -16 41 -70 70 -120 29
-49 60 -103 70 -120 10 -16 64 -109 120 -205 56 -96 113 -194 126 -217 13 -23
54 -93 91 -155 36 -62 71 -122 77 -133 6 -11 99 -170 206 -352 107 -183 204
-350 216 -370 11 -21 76 -132 144 -248 67 -115 131 -223 140 -240 10 -16 41
-70 70 -120 29 -49 60 -103 70 -120 9 -16 157 -270 329 -564 171 -293 311
-537 311 -541 0 -4 -863 -7 -1917 -6 l-1917 1 -1 3280 c-1 1804 1 3284 3 3288
3 6 452 -754 605 -1023z m3455 -3111 l1 -2090 -36 58 c-19 32 -45 76 -58 98
-12 22 -53 92 -90 155 -37 63 -81 140 -98 170 -16 30 -36 62 -43 71 -8 8 -14
18 -14 21 0 5 -60 111 -129 228 -11 19 -284 485 -445 760 -66 113 -180 309
-253 435 -74 127 -138 237 -143 245 -5 8 -37 62 -70 120 -34 58 -65 112 -70
120 -17 27 -124 210 -240 410 -62 107 -119 205 -127 216 -13 20 -11 23 34 50
26 16 57 34 68 41 11 7 27 15 35 19 8 4 51 29 95 55 44 26 96 56 115 66 19 11
86 50 149 87 62 36 115 66 116 66 1 0 44 25 94 55 51 30 93 55 95 55 2 0 75
42 162 93 87 51 166 96 174 100 8 4 24 13 35 19 29 19 84 51 135 80 61 34 310
177 337 194 13 8 24 14 25 13 2 -1 32 17 68 40 36 22 68 41 72 41 3 0 6 -941
6 -2091z m-8415 1953 c113 -66 211 -122 218 -126 8 -3 30 -16 49 -27 42 -25
349 -203 810 -469 288 -166 518 -299 528 -306 2 -1 -22 -43 -53 -94 -30 -51
-55 -94 -55 -95 0 -2 -40 -70 -88 -152 -48 -81 -91 -155 -95 -163 -4 -8 -16
-30 -28 -49 -29 -49 -188 -320 -212 -361 -10 -19 -42 -73 -70 -120 -27 -47
-59 -101 -70 -120 -11 -19 -58 -100 -105 -180 -46 -80 -94 -161 -105 -180 -10
-19 -56 -98 -101 -175 -45 -77 -93 -158 -106 -180 -12 -22 -86 -148 -163 -280
-77 -132 -148 -253 -157 -270 -10 -16 -95 -163 -190 -325 -95 -162 -182 -311
-193 -330 -10 -19 -21 -37 -23 -39 -2 -2 -4 932 -4 2077 0 1145 2 2082 4 2082
3 0 97 -53 209 -118z m3991 -5850 c1 -602 -2 -1098 -5 -1104 -4 -5 -20 -1 -40
11 -19 11 -56 32 -84 46 -27 15 -57 32 -65 39 -8 6 -24 16 -35 22 -64 35 -116
65 -161 92 -28 18 -56 32 -63 32 -6 0 -11 5 -11 10 0 6 -4 10 -9 10 -4 0 -150
82 -322 182 -173 100 -330 191 -350 202 -20 12 -77 44 -125 72 -49 28 -111 63
-139 79 -27 15 -54 31 -60 35 -5 4 -30 19 -55 32 -43 24 -682 393 -803 464
-32 19 -63 34 -68 34 -5 0 -9 5 -9 10 0 6 -4 10 -9 10 -5 0 -89 47 -187 103
-99 57 -330 191 -514 297 -607 350 -715 413 -719 417 -2 1 859 2 1914 1 l1919
-3 0 -1093z m3961 1040 c-115 -67 -426 -247 -470 -272 -28 -17 -266 -154 -545
-315 -69 -40 -152 -88 -185 -107 -33 -20 -80 -47 -105 -60 -41 -23 -223 -128
-450 -261 -47 -27 -105 -61 -130 -75 -25 -14 -128 -73 -230 -132 -102 -59
-259 -150 -350 -202 -91 -52 -284 -164 -429 -248 -146 -84 -279 -160 -295
-170 -17 -9 -65 -37 -106 -62 -41 -24 -82 -47 -90 -51 -8 -4 -22 -11 -30 -17
-70 -45 -172 -100 -178 -96 -5 3 -8 2020 -3 2109 1 16 96 17 1849 17 l1847 0
-100 -58z"/>
</g>
</svg>
