<svg width="222" height="44" viewBox="0 0 222 44" fill="none" xmlns="http://www.w3.org/2000/svg">
<mask id="mask0_304_95" style="mask-type:luminance" maskUnits="userSpaceOnUse" x="0" y="0" width="222" height="44">
<path d="M0.550003 0H221.01V44H0.550003V0Z" fill="white"/>
</mask>
<g mask="url(#mask0_304_95)">
<path fill-rule="evenodd" clip-rule="evenodd" d="M77.28 22.7501C75.9 21.9582 74.4465 21.3018 72.94 20.7901C70.86 20.0101 69.37 19.29 68.6 18.64C68.1942 18.3386 67.8688 17.942 67.6525 17.485C67.4363 17.0281 67.3358 16.525 67.36 16.0201C67.3379 15.5082 67.439 14.9986 67.6547 14.534C67.8705 14.0694 68.1947 13.6633 68.6 13.3501C69.5398 12.6698 70.6807 12.3247 71.84 12.3701C73.2 12.3701 74.3 12.7601 75.14 13.4701C75.5796 13.8614 75.9249 14.3472 76.15 14.891C76.3752 15.4348 76.4743 16.0225 76.44 16.6101H79.74C79.74 14.2601 78.97 12.4301 77.41 11.1301C75.8559 9.81686 73.874 9.11947 71.84 9.17005C69.64 9.17005 67.82 9.75005 66.33 11.0001C65.5944 11.5955 65.0067 12.3531 64.6129 13.2136C64.2191 14.0742 64.0298 15.0142 64.06 15.9601C64.06 17.5901 64.45 18.83 65.22 19.8101C65.62 20.33 66.07 20.7301 66.39 21.05C66.78 21.38 67.56 21.8401 68.79 22.4901C70.02 23.0801 71.06 23.47 71.9 23.7301C73.52 24.4501 74.88 25.0301 75.8 25.6301C76.63 26.2801 77.09 27.1301 77.09 28.2301C77.09 29.3501 76.63 30.2001 75.73 30.9201C74.6377 31.6493 73.3423 32.0134 72.03 31.9601C70.6396 32.011 69.2716 31.5995 68.14 30.7901C67.6471 30.3759 67.2563 29.8537 66.9979 29.2641C66.7395 28.6744 66.6205 28.0332 66.65 27.3901H63.35C63.35 29.8701 64.19 31.8301 65.87 33.2001C67.612 34.6035 69.7935 35.3472 72.03 35.3001C74.43 35.3001 76.44 34.6401 78 33.4001C79.55 32.1601 80.4 30.4001 80.33 28.1701C80.39 25.8201 79.36 24.0601 77.28 22.7501ZM99.26 9.80005H82.86V12.9401H89.4V34.7001H92.65V12.9401H99.25V9.81005L99.26 9.80005ZM107.75 9.80005L98.68 34.6301H102.18C102.18 34.6301 103.08 31.8801 103.8 30.7101C106.9 25.8101 112.1 25.2201 113.78 25.2201L117.08 34.5601H120.58L111.45 9.74005H107.75V9.81005V9.80005ZM105.81 24.5001L109.63 13.7301L112.61 22.1501C110.93 22.2801 108.4 22.8001 105.81 24.5001ZM163.18 9.80005H159.16L148.86 21.1001V9.80005H145.61V34.7001H148.85V22.7301L159.49 34.6801H163.5L152.3 21.96L163.2 9.81005L163.18 9.80005ZM179.39 25.1601L169.73 9.80005H166.03V34.6801H170.9V19.2801L180.49 34.6901H184.19V9.81005H179.39V25.1601ZM192.1 24.4401H200.78V19.8701H192.09V14.5001H201.62V9.80005H187.23V34.6801H201.82V30.0001H192.1V24.4501V24.4401ZM204.28 9.80005V14.5101H210.25V34.6901H215.05V14.5101H221V9.81005H204.27L204.28 9.80005ZM135.37 25.7401C134.886 25.3074 134.386 24.8938 133.87 24.5001C135.61 24.239 137.188 23.3322 138.29 21.96C139.268 20.6877 139.77 19.1136 139.71 17.5101C139.71 15.3601 138.94 13.5301 137.44 12.0301C136.736 11.304 135.889 10.7311 134.953 10.3474C134.017 9.96371 133.011 9.77736 132 9.80005H123.05V34.6201H126.29V25.2801C128.11 25.3401 130.77 25.8001 133.17 28.0201C135.142 29.9238 136.766 32.1574 137.97 34.6201H141.47C140.07 31.2686 137.993 28.2422 135.37 25.7301V25.7401ZM132.07 12.9401C133.29 12.9401 134.33 13.4001 135.17 14.3101C136.02 15.1847 136.487 16.3608 136.47 17.5801C136.47 18.8801 136.08 19.9301 135.17 20.8501C133.62 22.4801 130.05 22.1501 126.42 22.1501H126.36V12.9501H132.06L132.07 12.9401Z" fill="white"/>
<path d="M2.57 21.61C3.16211 20.5641 4.10396 19.7603 5.23 19.34C6.32519 18.8699 7.49124 18.5859 8.68 18.5C11.02 18.3 13.36 18.7 15.44 19.34C16.54 19.66 17.52 20.12 18.49 20.57C18.95 20.83 19.47 21.09 19.92 21.35L21.22 22.13C22.65 22.97 24.02 23.75 25.32 24.4C26.62 24.99 27.78 25.37 28.89 25.63C29.99 25.83 31.1 25.83 32.53 25.5C33.89 25.18 35.46 24.53 37.08 23.69C38.7 22.84 40.39 21.74 42.28 20.77C42.084 22.8963 41.4868 24.9662 40.52 26.87C39.5154 28.9479 38.0478 30.7679 36.23 32.19C34.1123 33.8241 31.5584 34.7949 28.89 34.98C26.16 35.18 23.56 34.59 21.35 33.68C19.14 32.78 17.25 31.54 15.57 30.24C15.11 29.85 14.85 29.66 14.53 29.4L13.55 28.55C12.9 28.03 12.25 27.45 11.6 26.93C10.3 25.89 9.07 24.79 7.64 23.88C6.92 23.43 6.21 22.98 5.36 22.58C4.94336 22.3676 4.50822 22.1935 4.06 22.06C3.61073 21.7753 3.0918 21.6197 2.56 21.61" fill="white" fill-opacity="0.33"/>
<path fill-rule="evenodd" clip-rule="evenodd" d="M22.52 44C28.3575 44 33.9564 41.6831 38.087 37.5582C42.2175 33.4332 44.5421 27.8375 44.55 22C44.55 9.86 34.74 0 22.58 0C16.7433 0.00263863 11.1459 2.32038 7.01596 6.44475C2.88596 10.5691 0.560595 16.1633 0.550003 22C0.550003 34.13 10.37 44 22.52 44ZM32.2 14.34L32.79 16.09C32.85 16.35 33.24 16.35 33.31 16.09L33.83 14.34C33.89 14.02 34.22 13.76 34.54 13.63L36.3 13.04C36.56 12.91 36.56 12.59 36.3 12.53L34.54 12C34.22 11.93 33.96 11.6 33.83 11.28L33.24 9.53C33.11 9.27 32.79 9.27 32.72 9.53L32.2 11.28C32.14 11.61 31.81 11.87 31.49 12L29.73 12.58C29.47 12.71 29.47 13.03 29.73 13.1L31.49 13.62C31.81 13.68 32.07 14.01 32.2 14.33V14.34ZM2.57 21.61C4.27569 20.7097 6.09078 20.0341 7.97 19.6C9.33416 19.2883 10.7609 19.3999 12.06 19.92C13.16 20.38 14.13 21.09 15.17 22C15.43 22.2 15.69 22.45 15.94 22.7L15.96 22.71L16.93 23.49C17.65 24.21 18.43 24.92 19.27 25.63C21.0079 27.1065 22.9308 28.3503 24.99 29.33C26.09 29.85 27.33 30.31 28.63 30.57C29.93 30.83 31.43 30.96 32.85 30.77C35.5894 30.426 38.0864 29.0268 39.81 26.87C41.1776 25.0263 42.0301 22.8519 42.28 20.57L40.91 21.18L39.35 21.88C38.45 22.26 37.6 22.58 36.75 22.78C35.4579 23.1902 34.0668 23.1657 32.79 22.71C31.602 22.2696 30.4838 21.66 29.47 20.9C28.1115 19.9554 26.7905 18.958 25.51 17.91L23.36 16.22L22 15.2L21.5 14.87C21.17 14.66 20.83 14.44 20.44 14.22C19.2778 13.6067 18.0587 13.1077 16.8 12.73C15.5 12.34 14.07 12.21 12.64 12.28C9.78 12.48 7.18 13.83 5.56 15.58C3.9212 17.2073 2.86646 19.3309 2.56 21.62L2.57 21.61ZM11.34 33.03C11.34 33.3403 11.2167 33.6379 10.9973 33.8573C10.7779 34.0767 10.4803 34.2 10.17 34.2C9.8597 34.2 9.56211 34.0767 9.34269 33.8573C9.12327 33.6379 9 33.3403 9 33.03C9 32.7197 9.12327 32.4221 9.34269 32.2027C9.56211 31.9833 9.8597 31.86 10.17 31.86C10.4803 31.86 10.7779 31.9833 10.9973 32.2027C11.2167 32.4221 11.34 32.7197 11.34 33.03Z" fill="white"/>
</g>
</svg>
