<svg width="95" height="48" viewBox="0 0 95 48" fill="none" xmlns="http://www.w3.org/2000/svg">
<g clip-path="url(#clip0_506_324)">
<mask id="mask0_506_324" style="mask-type:luminance" maskUnits="userSpaceOnUse" x="0" y="0" width="95" height="48">
<path d="M94.6653 0H0.665344V48H94.6653V0Z" fill="white"/>
</mask>
<g mask="url(#mask0_506_324)">
<path d="M62.4308 18.9578C62.2585 17.5259 61.5608 16.4142 60.3374 15.6229C59.1139 14.8316 57.6131 14.4359 55.8351 14.4359C54.5351 14.4359 53.3976 14.6432 52.4226 15.0576C51.4571 15.4722 50.702 16.0421 50.1571 16.7675C49.6218 17.4929 49.3542 18.3172 49.3542 19.2404C49.3542 20.0129 49.5406 20.6771 49.9134 21.2329C50.2958 21.7793 50.7832 22.2362 51.3759 22.6036C51.9685 22.9616 52.5899 23.2583 53.2399 23.4938C53.8899 23.72 54.4873 23.9036 55.0322 24.0449L58.0146 24.8363C58.7793 25.0341 59.63 25.3073 60.5668 25.6559C61.5131 26.0045 62.4162 26.4802 63.277 27.0831C64.1464 27.6766 64.8636 28.4397 65.4273 29.3723C65.9917 30.305 66.2736 31.4496 66.2736 32.8061C66.2736 34.37 65.8578 35.7831 65.0261 37.0454C64.2042 38.3078 62.9994 39.3112 61.4128 40.0554C59.8355 40.7997 57.9189 41.1717 55.6631 41.1717C53.5601 41.1717 51.7391 40.8372 50.2001 40.1684C48.6707 39.4995 47.4663 38.5668 46.5868 37.3704C45.717 36.174 45.2247 34.7845 45.11 33.2019H48.7806C48.8762 34.2947 49.249 35.1991 49.8991 35.9151C50.5586 36.6216 51.3902 37.1491 52.3939 37.4977C53.4071 37.8369 54.4969 38.0064 55.6631 38.0064C57.0204 38.0064 58.2392 37.7897 59.3193 37.3563C60.3995 36.9135 61.255 36.3012 61.8859 35.5193C62.5166 34.7279 62.832 33.8047 62.832 32.7496C62.832 31.7887 62.5598 31.0068 62.015 30.4039C61.4701 29.801 60.7532 29.3111 59.8642 28.9343C58.9752 28.5574 58.0146 28.2277 56.9822 27.9451L53.3689 26.9277C51.0748 26.2776 49.2586 25.3497 47.9203 24.1439C46.5821 22.938 45.9129 21.36 45.9129 19.41C45.9129 17.7896 46.3574 16.3766 47.2464 15.1707C48.145 13.9554 49.3494 13.0134 50.8597 12.3445C52.3796 11.6663 54.0763 11.3271 55.9498 11.3271C57.8425 11.3271 59.5249 11.6615 60.997 12.3304C62.4691 12.9899 63.635 13.8942 64.4952 15.0435C65.3652 16.1928 65.8243 17.4976 65.8718 18.9578H62.4308Z" fill="white"/>
<path d="M83.1181 31.7887V18.9578H86.5018V40.6629H83.1181V36.9889H82.8886C82.3723 38.0911 81.5693 39.0285 80.4801 39.8009C79.3903 40.564 78.0138 40.9455 76.3506 40.9455C74.9741 40.9455 73.7503 40.6488 72.6795 40.0553C71.6092 39.4524 70.7678 38.548 70.1559 37.3422C69.5447 36.1269 69.2385 34.596 69.2385 32.7496V18.9578H72.6222V32.5235C72.6222 34.1062 73.0715 35.3685 73.9701 36.3106C74.8785 37.2527 76.0352 37.7237 77.4403 37.7237C78.2811 37.7237 79.1371 37.5117 80.0065 37.0878C80.8862 36.6639 81.6222 36.0138 82.2146 35.1377C82.8167 34.2616 83.1181 33.1453 83.1181 31.7887Z" fill="white"/>
<path d="M90.2771 40.663V18.9578H93.6608V40.663H90.2771ZM91.9976 15.3403C91.3382 15.3403 90.7696 15.1189 90.2917 14.6761C89.8229 14.2334 89.5891 13.7011 89.5891 13.0793C89.5891 12.4576 89.8229 11.9253 90.2917 11.4826C90.7696 11.0398 91.3382 10.8184 91.9976 10.8184C92.6575 10.8184 93.2213 11.0398 93.6894 11.4826C94.1673 11.9253 94.4066 12.4576 94.4066 13.0793C94.4066 13.7011 94.1673 14.2334 93.6894 14.6761C93.2213 15.1189 92.6575 15.3403 91.9976 15.3403Z" fill="white"/>
<path fill-rule="evenodd" clip-rule="evenodd" d="M62.2067 19.2069L62.1799 18.9875C62.0168 17.6285 61.3601 16.5822 60.1988 15.8312C59.0246 15.0717 57.5745 14.685 55.8351 14.685C54.5621 14.685 53.46 14.8879 52.5229 15.2862C51.5924 15.6858 50.8752 16.2301 50.3605 16.915C49.858 17.5964 49.6065 18.3689 49.6065 19.2408C49.6065 19.9715 49.782 20.5855 50.1224 21.0941C50.4841 21.6104 50.9454 22.0431 51.5089 22.3927C52.0866 22.7415 52.692 23.0307 53.3254 23.2602C53.9696 23.4843 54.5599 23.6657 55.0963 23.8048L55.0977 23.8052L58.0786 24.5961C58.0784 24.596 58.0788 24.5961 58.0786 24.5961C58.8534 24.7966 59.7129 25.0728 60.6555 25.4234C61.6229 25.7797 62.5446 26.2655 63.4213 26.8799C64.3217 27.4944 65.0627 28.2839 65.6441 29.2454C66.2364 30.225 66.5256 31.4162 66.5256 32.8065C66.5256 34.4162 66.097 35.8764 65.238 37.1806C64.3869 38.4874 63.1437 39.5191 61.5216 40.28C59.902 41.0442 57.9461 41.4207 55.663 41.4207C53.5335 41.4207 51.6763 41.0822 50.0982 40.3963C48.5329 39.7117 47.2909 38.7527 46.3824 37.5167L46.3817 37.5157C45.4825 36.2791 44.976 34.8447 44.8582 33.2199L44.8389 32.9535H49.0121L49.032 33.1808C49.1235 34.2273 49.4781 35.0782 50.0859 35.7483C50.7146 36.4212 51.5092 36.9269 52.4764 37.263C53.4609 37.5923 54.5225 37.758 55.663 37.758C56.9925 37.758 58.1778 37.5459 59.223 37.1268C60.2694 36.6978 61.0877 36.1091 61.688 35.3652C62.2816 34.6201 62.5799 33.7519 62.5799 32.75C62.5799 31.8378 62.3224 31.1187 61.8262 30.5697C61.3102 29.9984 60.6256 29.5281 59.7644 29.1631C58.887 28.7912 57.9371 28.4651 56.9146 28.1851L56.9128 28.1846L53.2995 27.1672C50.9793 26.5098 49.1245 25.5664 47.75 24.3278C46.3543 23.0702 45.6605 21.4232 45.6605 19.4104C45.6605 17.7423 46.1192 16.277 47.0422 15.0249C47.9687 13.7718 49.2092 12.8032 50.7558 12.1182C52.3121 11.4237 54.0449 11.0788 55.9498 11.0788C57.8726 11.0788 59.5918 11.4186 61.1019 12.1046C62.6079 12.7794 63.8097 13.709 64.698 14.8958C65.599 16.0865 66.0745 17.4404 66.1244 18.9502L66.1323 19.2069H62.2067ZM64.4952 15.0439C63.635 13.8946 62.4691 12.9902 60.9969 12.3308C59.5248 11.6619 57.8424 11.3275 55.9498 11.3275C54.0762 11.3275 52.3795 11.6666 50.8596 12.3449C49.3493 13.0137 48.1449 13.9559 47.2464 15.1711C46.3574 16.3769 45.9129 17.79 45.9129 19.4104C45.9129 21.3605 46.582 22.9384 47.9203 24.1442C49.2585 25.3501 51.0747 26.278 53.3689 26.928L56.9821 27.9455C58.0145 28.2281 58.9752 28.5578 59.8642 28.9346C60.7531 29.3115 61.47 29.8013 62.015 30.4043C62.5598 31.0072 62.832 31.7891 62.832 32.75C62.832 33.8051 62.5166 34.7283 61.8859 35.5197C61.255 36.3016 60.3994 36.9139 59.3193 37.3567C58.2391 37.79 57.0204 38.0067 55.663 38.0067C54.4968 38.0067 53.4071 37.8371 52.3938 37.498C51.3902 37.1495 50.5585 36.6219 49.8989 35.9153C49.2489 35.1993 48.8762 34.295 48.7806 33.2022H45.1099C45.116 33.2856 45.1231 33.3685 45.1312 33.4509C45.2776 34.9309 45.7628 36.2375 46.5868 37.3708C47.4662 38.5673 48.6706 39.4999 50.2001 40.1687C51.7391 40.8376 53.56 41.172 55.663 41.172C57.9189 41.172 59.8355 40.7999 61.4127 40.0557C62.9994 39.3114 64.2036 38.3082 65.0261 37.0458C65.8578 35.7834 66.2736 34.3703 66.2736 32.8065C66.2736 31.4499 65.9917 30.3053 65.4273 29.3727C64.8636 28.44 64.1464 27.677 63.2764 27.0835C62.4162 26.4806 61.5131 26.0048 60.5667 25.6563C59.63 25.3077 58.7792 25.0345 58.0145 24.8367L55.0321 24.0453C54.4872 23.904 53.8898 23.7203 53.2398 23.4942C52.5898 23.2587 51.9685 22.962 51.3758 22.604C50.7832 22.2366 50.2956 21.7797 49.9133 21.2333C49.5405 20.6775 49.3541 20.0133 49.3541 19.2408C49.3541 18.3176 49.6218 17.4933 50.157 16.7679C50.7019 16.0425 51.4571 15.4725 52.4225 15.0581C53.3975 14.6435 54.535 14.4363 55.8351 14.4363C57.613 14.4363 59.1137 14.832 60.3373 15.6233C61.5608 16.4146 62.2585 17.5263 62.4308 18.9582H65.8718C65.8693 18.8748 65.8651 18.7919 65.8596 18.7095C65.7701 17.3495 65.3159 16.1276 64.4952 15.0439ZM82.8654 18.7095H86.7545V40.912H82.8654V37.5807C82.3339 38.5159 81.5863 39.3234 80.6268 40.0033L80.6256 40.0041C79.4841 40.8036 78.0528 41.1947 76.3506 41.1947C74.9357 41.1947 73.6688 40.8893 72.5559 40.2725L72.5546 40.2716C71.4357 39.6417 70.562 38.6985 69.9307 37.4538C69.2963 36.1941 68.9858 34.6217 68.9858 32.75V18.7095H72.8749V32.5239C72.8749 34.0579 73.3084 35.2541 74.1534 36.1401C75.0106 37.029 76.0991 37.4754 77.4397 37.4754C78.2367 37.4754 79.0543 37.2749 79.8944 36.8653L79.8957 36.8648C80.7316 36.4619 81.4347 35.8431 82.0046 35.0001L82.0058 34.9986C82.5726 34.1739 82.8654 33.1099 82.8654 31.7891V18.7095ZM73.9701 36.311C73.0715 35.369 72.6222 34.1066 72.6222 32.5239V18.9582H69.2385V32.75C69.2385 34.5965 69.5441 36.1273 70.156 37.3425C70.7678 38.5484 71.6092 39.4528 72.6795 40.0557C73.7504 40.6492 74.9741 40.946 76.3506 40.946C78.0138 40.946 79.3897 40.5644 80.4795 39.8014C81.5534 39.0402 82.3486 38.119 82.8654 37.0378C82.8733 37.0217 82.8813 37.0055 82.8886 36.9893H83.1181V40.6633H86.5018V18.9582H83.1181V31.7891C83.1181 33.1457 82.8167 34.262 82.2146 35.1381C81.6222 36.0143 80.8862 36.6643 80.0065 37.0882C79.1365 37.5121 78.2811 37.7241 77.4397 37.7241C76.0346 37.7241 74.8785 37.2531 73.9701 36.311ZM90.0244 40.912V18.7095H93.9135V40.912H90.0244ZM90.1188 14.8577L90.1169 14.856C89.6001 14.3678 89.3365 13.7714 89.3365 13.0797C89.3365 12.3881 89.6001 11.7916 90.1169 11.3034L90.1188 11.3017C90.6436 10.8153 91.2743 10.5701 91.9976 10.5701C92.7208 10.5701 93.3473 10.8152 93.8635 11.3027C94.389 11.7902 94.6587 12.3867 94.6587 13.0797C94.6587 13.7727 94.389 14.3693 93.8635 14.8568C93.3473 15.3443 92.7208 15.5894 91.9976 15.5894C91.2743 15.5894 90.6436 15.3441 90.1188 14.8577ZM93.6894 14.6765C94.1673 14.2337 94.4066 13.7015 94.4066 13.0797C94.4066 12.458 94.1673 11.9257 93.6894 11.4829C93.2213 11.0402 92.6575 10.8188 91.9976 10.8188C91.3382 10.8188 90.7696 11.0402 90.2911 11.4829C89.8229 11.9257 89.5885 12.458 89.5885 13.0797C89.5885 13.7015 89.8229 14.2337 90.2911 14.6765C90.7696 15.1193 91.3382 15.3407 91.9976 15.3407C92.6575 15.3407 93.2213 15.1193 93.6894 14.6765ZM90.2771 40.6633H93.6608V18.9582H90.2771V40.6633Z" fill="white"/>
<path fill-rule="evenodd" clip-rule="evenodd" d="M31.155 20.019L31.1541 20.0211C33.1411 22.4765 34.3285 25.5865 34.3285 28.969C34.3285 32.4019 33.1055 35.554 31.0649 38.0261L30.8892 38.239L30.8426 37.9684C30.803 37.7384 30.7564 37.5061 30.7024 37.272C29.6811 32.8499 26.3538 29.0579 20.8774 25.9876C17.1793 23.9199 15.0626 21.4302 14.5068 18.6014C14.1478 16.7723 14.4147 14.935 14.9304 13.3612C15.4459 11.788 16.2128 10.4699 16.8644 9.67638L18.9951 7.10868C19.3687 6.65844 20.0679 6.65844 20.4414 7.10868L31.155 20.019ZM34.5245 17.4541L20.246 0.246403C19.9734 -0.0821344 19.463 -0.0821344 19.1904 0.246403L4.91144 17.4533L4.86537 17.5111C2.23777 20.7245 0.665344 24.8082 0.665344 29.2535C0.665344 39.6067 9.19542 48 19.7182 48C30.241 48 38.7711 39.6067 38.7711 29.2535C38.7711 24.8082 37.1987 20.7245 34.571 17.5111L34.5245 17.4541ZM8.32799 19.9636L9.60569 18.4238L9.64429 18.7079C9.67485 18.933 9.71193 19.1592 9.75589 19.3864C10.5823 23.6595 13.5343 27.2225 18.4698 29.9819C22.76 32.3883 25.2578 35.1554 25.9775 38.1902C26.2778 39.4568 26.3313 40.7029 26.2013 41.7924L26.1932 41.8598L26.1314 41.8896C24.1951 42.8219 22.0183 43.3451 19.7178 43.3451C11.6487 43.3451 5.10705 36.9089 5.10705 28.969C5.10705 25.5601 6.31297 22.4278 8.32799 19.9636Z" fill="white"/>
</g>
</g>
<defs>
<clipPath id="clip0_506_324">
<rect width="95" height="48" fill="white"/>
</clipPath>
</defs>
</svg>
