<svg width="215" height="44" viewBox="0 0 215 44" fill="none" xmlns="http://www.w3.org/2000/svg">
<mask id="mask0_505_209" style="mask-type:luminance" maskUnits="userSpaceOnUse" x="0" y="0" width="215" height="44">
<path d="M0 0H214.5V44H0V0Z" fill="white"/>
</mask>
<g mask="url(#mask0_505_209)">
<path d="M58.7 35.7H63.9V12H73.9V7.5H48.9V12H58.7V35.7Z" fill="white"/>
<path d="M70.8 30.5999C70.8 34.0999 73.4 36.2999 77.3 36.2999C80.5 36.2999 82.6 34.2999 83.4 31.4999H85.2C85.2 34.6999 86 35.6999 89.3 35.6999H91.4V31.7999H89.5C88.5 31.7999 88.3 31.5999 88.3 30.5999V22.5999C88.3 17.5999 85.3 14.9999 79.8 14.9999C74.3 14.9999 70.9 17.9999 70.5 20.9999L75 21.9999C75.5 19.9999 77 18.6999 79.8 18.6999C82.3 18.6999 83.4 19.6999 83.4 21.7999V22.4999C80.2147 22.6726 77.0918 23.4533 74.2 24.7999C73.1269 25.2993 72.2289 26.11 71.6225 27.1265C71.0162 28.143 70.7296 29.3184 70.8 30.4999V30.5999ZM83.4 27.3999C83.4 30.8999 81.4 32.5999 78.8 32.5999C76.8 32.5999 75.8 31.5999 75.8 30.0999C75.8 27.4999 78.6 26.3999 83.4 25.7999V27.3999ZM94.6 35.6999H99.6V7.4999H94.6V35.6999ZM105.4 12.3999H110.6V7.3999H105.4V12.3999ZM105.6 35.6999H110.5V15.6999H105.6V35.6999ZM114.7 30.5999C115.5 34.0999 119.3 36.2999 123.9 36.2999C129.4 36.2999 132.7 33.6999 132.7 29.7999C132.732 28.9902 132.567 28.1848 132.218 27.4531C131.87 26.7215 131.349 26.0855 130.7 25.5999C129.265 24.5904 127.627 23.9077 125.9 23.5999L123.3 23.0999C120.8 22.5999 120.2 21.9999 120.2 20.7999C120.2 19.4999 121.4 18.5999 123.5 18.5999C125.8 18.5999 127.3 19.8999 127.9 21.5999L132.1 19.8999C131.1 17.3999 128.5 14.9999 123.7 14.9999C118.9 14.9999 115.5 17.5999 115.5 21.2999C115.5 25.0999 117.9 26.4999 122 27.2999L124.7 27.7999C126.9 28.2999 127.7 29.0999 127.7 30.2999C127.7 31.6999 126.4 32.5999 124.1 32.5999C120.9 32.5999 119.6 30.7999 119.2 29.0999L114.7 30.5999ZM137.1 35.6999H142.1V25.6999C142.1 23.4999 142.2 21.6999 143.5 20.1999C144.1 19.4999 145 19.1999 146.3 19.1999C148.7 19.1999 149.9 20.5999 149.9 23.4999V35.6999H154.7V25.6999C154.7 23.4999 154.9 21.6999 156.1 20.1999C156.7 19.4999 157.7 19.1999 158.9 19.1999C161.2 19.1999 162.6 20.4999 162.6 23.4999V35.6999H167.4V22.6999C167.4 17.6999 164.6 14.9999 160.7 14.9999C158 14.9999 155.7 16.9999 154.9 19.6999H153.2C152.5 16.6999 150.4 14.9999 147.7 14.9999C144.7 14.9999 143 16.9999 142.2 19.6999H140C140.9 18.5999 141.6 16.6999 141.6 15.6999H137V35.6999H137.1ZM172 30.5999C172 34.0999 174.6 36.2999 178.5 36.2999C181.7 36.2999 183.8 34.2999 184.6 31.4999H186.4C186.4 34.6999 187.2 35.6999 190.5 35.6999H192.6V31.7999H190.7C189.7 31.7999 189.5 31.5999 189.5 30.5999V22.5999C189.5 17.5999 186.5 14.9999 181 14.9999C175.5 14.9999 172.1 17.9999 171.7 20.9999L176.2 22.0999C176.7 20.0999 178.2 18.7999 181 18.7999C183.5 18.7999 184.6 19.7999 184.6 21.8999V22.5999C181.415 22.7726 178.292 23.5533 175.4 24.8999C174.327 25.3993 173.429 26.21 172.823 27.2265C172.216 28.243 171.93 29.4184 172 30.5999ZM184.6 27.3999C184.6 30.8999 182.6 32.5999 180 32.5999C178 32.5999 177 31.5999 177 30.0999C177 27.4999 179.8 26.3999 184.6 25.7999V27.3999ZM195.8 35.6999H200.8V26.4999C200.8 24.0999 200.9 21.9999 202.2 20.3999C202.9 19.4999 204 19.0999 205.4 19.0999C207.7 19.0999 209 20.4999 209 23.4999V35.6999H214V22.4999C214 17.7999 211.5 14.9999 207 14.9999C203.7 14.9999 201.6 17.5999 200.7 20.2999H198.4C199.5 18.5999 200.4 16.7999 200.4 15.5999H195.8V35.6999Z" fill="white"/>
<path fill-rule="evenodd" clip-rule="evenodd" d="M36.8 25C36.1 25.8 34.8 25.4 34.5 24.5L34.3 23.9V8.29995C34.3 7.39822 33.9418 6.53341 33.3042 5.89579C32.6665 5.25816 31.8017 4.89995 30.9 4.89995C29.9983 4.89995 29.1335 5.25816 28.4958 5.89579C27.8582 6.53341 27.5 7.39822 27.5 8.29995V16.2C27.5 16.9 26.8 17.3 26.1 17.2C25.8893 17.1339 25.7063 17 25.5797 16.8191C25.4531 16.6382 25.3899 16.4205 25.4 16.2V3.39995C25.4 2.48495 25.0365 1.60743 24.3895 0.960433C23.7425 0.313432 22.865 -0.0500488 21.95 -0.0500488C21.035 -0.0500488 20.1575 0.313432 19.5105 0.960433C18.8635 1.60743 18.5 2.48495 18.5 3.39995V16.2C18.5 16.6 18.2 17 17.8 17.2C17.2 17.3 16.5 16.9 16.5 16.2V8.19995C16.5 7.27169 16.1312 6.38145 15.4749 5.72508C14.8185 5.0687 13.9282 4.69995 13 4.69995C12.0717 4.69995 11.1815 5.0687 10.5251 5.72508C9.86874 6.38145 9.49999 7.27169 9.49999 8.19995V24.5C9.09999 25.4 7.79999 25.7 7.19999 25L5.89999 23.7C5.25021 23.0502 4.36892 22.6851 3.44999 22.6851C2.53106 22.6851 1.64977 23.0502 0.999992 23.7C0.350211 24.3497 -0.0148315 25.231 -0.0148315 26.15C-0.0148315 27.0689 0.350211 27.9502 0.999992 28.6L11.1 38.7C12.3532 40.3295 13.957 41.6561 15.7926 42.5814C17.6282 43.5068 19.6485 44.0073 21.7038 44.0457C23.7591 44.0841 25.7967 43.6595 27.6656 42.8034C29.5345 41.9472 31.1868 40.6815 32.5 39.0999L43 28.6C43.3217 28.2782 43.5769 27.8963 43.7511 27.4759C43.9252 27.0555 44.0148 26.605 44.0148 26.15C44.0148 25.6949 43.9252 25.2444 43.7511 24.824C43.5769 24.4036 43.3217 24.0217 43 23.7C42.6783 23.3782 42.2963 23.123 41.8759 22.9489C41.4556 22.7747 41.005 22.6851 40.55 22.6851C40.095 22.6851 39.6444 22.7747 39.2241 22.9489C38.8037 23.123 38.4217 23.3782 38.1 23.7L36.8 25ZM22 38.5C28 38.5 33 31.6 33 31.6C33 31.6 28 24.7 22 24.7C15.9 24.7 11 31.7 11 31.7C11 31.7 15.9 38.5 22 38.5Z" fill="white"/>
<path d="M26 31.6C26 32.6873 25.568 33.7302 24.7991 34.4991C24.0302 35.268 22.9874 35.7 21.9 35.7C20.8126 35.7 19.7697 35.268 19.0009 34.4991C18.232 33.7302 17.8 32.6873 17.8 31.6C17.8 30.4993 18.2372 29.4437 19.0155 28.6655C19.7938 27.8872 20.8493 27.45 21.95 27.45C23.0506 27.45 24.1062 27.8872 24.8845 28.6655C25.6628 29.4437 26.1 30.4993 26.1 31.6H26Z" fill="white"/>
</g>
</svg>
