<svg width="137" height="37" viewBox="0 0 137 37" fill="none" xmlns="http://www.w3.org/2000/svg">
<g clip-path="url(#clip0_543_3)">
<path d="M0.638306 9.00708H8.69397L13.3847 20.8318L18.1363 9.00708H25.9798L14.1692 36.9999H6.27599L9.50894 29.5823L0.638306 9.00708Z" fill="#DEE5FF"/>
<path d="M34.1507 8.53638C28.0981 8.53638 24.2718 13.885 24.2718 19.2113C24.2718 25.2051 28.4668 29.957 34.0358 29.957C38.1901 29.957 39.7565 27.4631 39.7565 27.4631V29.4058H46.7826V9.00723H39.7565V10.8616C39.7565 10.8616 38.0089 8.53638 34.1507 8.53638ZM35.6451 15.0917C38.4379 15.0917 39.879 17.2691 39.879 19.2337C39.879 21.3494 38.335 23.4255 35.6451 23.4255C33.4158 23.4255 31.4011 21.6304 31.4011 19.3238C31.4011 16.9846 33.0216 15.0917 35.6451 15.0917Z" fill="#DEE5FF"/>
<path d="M49.2023 29.4057V0H56.5512V10.9323C56.5512 10.9323 58.2967 8.53895 61.9525 8.53895C66.4242 8.53895 69.0442 11.8219 69.0442 16.5131V29.4057H61.7491V18.2792C61.7491 16.6916 60.9816 15.1579 59.2431 15.1579C57.4735 15.1579 56.5512 16.7149 56.5512 18.2792V29.4057H49.2023Z" fill="#DEE5FF"/>
<path d="M81.5738 8.53882C74.6424 8.53882 70.5151 13.7321 70.5151 19.2962C70.5151 25.6283 75.5123 29.957 81.6 29.957C87.5005 29.957 92.6636 25.8247 92.6636 19.4025C92.6636 12.3753 87.2576 8.53882 81.5738 8.53882ZM81.6399 15.1517C84.0883 15.1517 85.7824 17.1611 85.7824 19.3038C85.7824 21.1314 84.2039 23.3855 81.6399 23.3855C79.2906 23.3855 77.5276 21.5287 77.5276 19.2838C77.5276 17.1213 78.9934 15.1517 81.6399 15.1517Z" fill="#DEE5FF"/>
<path d="M104.906 8.53882C97.9751 8.53882 93.8478 13.7321 93.8478 19.2962C93.8478 25.6283 98.845 29.957 104.933 29.957C110.833 29.957 115.996 25.8247 115.996 19.4025C115.996 12.3753 110.59 8.53882 104.906 8.53882ZM104.973 15.1517C107.421 15.1517 109.115 17.1611 109.115 19.3038C109.115 21.1314 107.537 23.3855 104.973 23.3855C102.623 23.3855 100.86 21.5287 100.86 19.2838C100.86 17.1213 102.326 15.1517 104.973 15.1517Z" fill="#DEE5FF"/>
<path d="M121.795 29.8388C124.49 29.8388 126.675 27.6861 126.675 25.0305C126.675 22.3749 124.49 20.2222 121.795 20.2222C119.1 20.2222 116.915 22.3749 116.915 25.0305C116.915 27.6861 119.1 29.8388 121.795 29.8388Z" fill="#DEE5FF"/>
<path d="M128.278 18.4559H119.493L127.29 0H136.043L128.278 18.4559Z" fill="#DEE5FF"/>
</g>
<defs>
<clipPath id="clip0_543_3">
<rect width="135.404" height="37" fill="white" transform="translate(0.638306)"/>
</clipPath>
</defs>
</svg>
