<svg width="225" height="44" viewBox="0 0 225 44" fill="none" xmlns="http://www.w3.org/2000/svg">
<g clip-path="url(#clip0_505_218)">
<mask id="mask0_505_218" style="mask-type:luminance" maskUnits="userSpaceOnUse" x="0" y="0" width="225" height="44">
<path d="M0.5 0H224.8V44H0.5V0Z" fill="white"/>
</mask>
<g mask="url(#mask0_505_218)">
<path fill-rule="evenodd" clip-rule="evenodd" d="M77.9 22L55.9 0V16.1L34.1 32.1H56V44L78 22H77.9Z" fill="white" fill-opacity="0.8"/>
<path fill-rule="evenodd" clip-rule="evenodd" d="M0.5 22L22.5 43.9V27.9L44.3 11.7H22.5V0L0.5 22Z" fill="white"/>
<path d="M111.7 34.9H94.8V30L104.5 19.3H95V14.5H111.4V19.1L101.4 30.1H111.6V34.9H111.7ZM134.6 14.5L126.5 23.1L134.8 34.9H128.1L122.7 27.1L120.4 29.5V34.9H115V4.90002H120.5V22.1L127.5 14.5H134.7H134.6ZM158.6 12.6L153.4 14.1C153.3 13.1 152.7 12.1 151.9 11.3C151 10.4 149.8 10 148.1 10C146.8 10 145.7 10.4 144.8 11.1C143.9 11.8 143.5 12.7 143.5 13.7C143.5 15.5 144.5 16.7 146.7 17L150.8 17.8C153.4 18.3 155.4 19.3 156.8 20.9C158.21 22.3843 158.997 24.3527 159 26.4C159 28.9 158 31 156 32.8C153.91 34.6477 151.187 35.6152 148.4 35.5C146.5 35.5 144.9 35.2 143.4 34.7C142.129 34.2758 140.959 33.5954 139.961 32.7011C138.964 31.8067 138.16 30.7172 137.6 29.5C137.1 28.5 136.8 27.5 136.7 26.3L142 25C142.074 26.5127 142.717 27.9417 143.8 29C144.9 30 146.5 30.5 148.4 30.5C149.9 30.5 151.1 30.2 151.9 29.5C152.319 29.2123 152.659 28.8228 152.886 28.368C153.113 27.9132 153.221 27.4081 153.2 26.9C153.195 26.484 153.103 26.0736 152.931 25.6949C152.759 25.3161 152.51 24.9773 152.2 24.7C151.6 24.1 150.8 23.7 149.6 23.4L145.6 22.6C143.2 22.1 141.3 21.1 139.9 19.6C138.551 18.1321 137.833 16.1927 137.9 14.2C137.9 11.6 138.9 9.50002 140.9 7.70002C142.9 5.90002 145.3 5.10002 148.1 5.10002C149.7 5.10002 151.3 5.30002 152.6 5.80002C153.9 6.20002 155 6.80002 155.8 7.70002C157.216 9.04666 158.192 10.7894 158.6 12.7V12.6Z" fill="white" fill-opacity="0.9"/>
<path d="M168.3 42.9H162.4L167.2 32.3L158.6 14.5H164.7L170.2 26.5L175.2 14.5H181L168.3 43V42.9ZM188.6 23.2V34.9H183.1V14.5H188.5V17.1C189 16.1 189.9 15.3 191 14.8C192 14.3 193.2 14 194.3 14C196.7 14 198.6 14.8 199.8 16.3C201.157 17.9217 201.869 19.9865 201.8 22.1V34.9H196.2V23C196.2 21.8 195.9 20.8 195.2 20C194.6 19.3 193.7 19 192.4 19C191.3 19 190.4 19.4 189.7 20.2C189 21 188.7 22 188.7 23.2H188.6ZM215.2 19C214.513 18.9825 213.83 19.1066 213.194 19.3647C212.557 19.6227 211.981 20.0092 211.5 20.5C210.5 21.5 210 22.9 210 24.7C210 26.5 210.5 27.9 211.5 28.9C211.972 29.4089 212.545 29.8139 213.182 30.0894C213.819 30.3649 214.506 30.5047 215.2 30.5C216.5 30.5 217.6 30.1 218.3 29.5C219.1 28.8 219.6 28 219.9 27L224.8 28.6C224.269 30.5517 223.109 32.2739 221.5 33.5C219.703 34.8914 217.471 35.6001 215.2 35.5C213.779 35.5277 212.367 35.2665 211.049 34.7322C209.732 34.198 208.537 33.4018 207.537 32.392C206.536 31.3822 205.751 30.1797 205.229 28.8575C204.707 27.5353 204.459 26.1209 204.5 24.7C204.5 21.6 205.5 19 207.5 17C209.5 15 212.1 14 215.1 14C217.7 14 219.8 14.6 221.4 16C223.02 17.1531 224.159 18.8615 224.6 20.8L219.7 22.4C219 20.1 217.5 19 215.2 19Z" fill="white" fill-opacity="0.9"/>
</g>
</g>
<defs>
<clipPath id="clip0_505_218">
<rect width="225" height="44" fill="white"/>
</clipPath>
</defs>
</svg>
